<?xml version="1.0" standalone="no"?>
<!DOCTYPE svg PUBLIC "-//W3C//DTD SVG 1.1//EN" "http://www.w3.org/Graphics/SVG/1.1/DTD/svg11.dtd" >
<svg xmlns="http://www.w3.org/2000/svg" xmlns:xlink="http://www.w3.org/1999/xlink" version="1.1">
<metadata></metadata>
<defs>
<font id="museo_sans_cyrl500" horiz-adv-x="1181" >
<font-face units-per-em="2048" ascent="1536" descent="-512" />
<missing-glyph horiz-adv-x="512" />
<glyph unicode="&#xfb01;" horiz-adv-x="1189" d="M72 877v159h129v35q0 98 28.5 171t70.5 113t98.5 63.5t101.5 30.5t92 7q35 0 76 -6v-172q-16 4 -52 4q-217 0 -217 -213v-33h639v-1036h-196v877h-443v-877h-198v877h-129zM838 1245v201h202v-201h-202z" />
<glyph unicode="&#xfb02;" horiz-adv-x="1224" d="M74 864v162h129v45q0 98 28.5 171t70.5 113t98.5 63.5t101.5 30.5t92 7q37 0 76 -6v-172q-16 4 -52 4q-217 0 -217 -213v-43h244v-162h-244v-864h-198v864h-129zM829 285v1161h197v-1129q0 -84 29.5 -115.5t83.5 -31.5q23 0 35 2v-176q-43 -6 -66 -6q-279 0 -279 295z " />
<glyph unicode="&#xfb03;" horiz-adv-x="1882" d="M72 877v159h129v35q0 98 28.5 171t70.5 113t98.5 63.5t101.5 30.5t92 7q35 0 76 -6v-172q-16 4 -52 4q-217 0 -217 -213v-33h494v35q0 98 28.5 171t70.5 113t98.5 63.5t101.5 30.5t92 7q35 0 76 -6v-172q-16 4 -51 4q-217 0 -217 -213v-33h639v-1036h-197v877h-442v-877 h-199v877h-494v-877h-198v877h-129zM1530 1245v201h205v-201h-205z" />
<glyph unicode="&#xfb04;" horiz-adv-x="1914" d="M72 877v159h129v35q0 98 28.5 171t70.5 113t98.5 63.5t101.5 30.5t92 7q35 0 76 -6v-172q-16 4 -52 4q-217 0 -217 -213v-33h494v35q0 98 28.5 171t70.5 113t98.5 63.5t101.5 30.5t92 7q35 0 76 -6v-172q-16 4 -51 4q-217 0 -217 -213v-33h243v-159h-243v-877h-199v877 h-494v-877h-198v877h-129zM1520 285v1161h198v-1129q0 -84 30 -115.5t83 -31.5q23 0 35 2v-176q-43 -6 -66 -6q-280 0 -280 295z" />
<glyph horiz-adv-x="0" />
<glyph unicode="&#xd;" horiz-adv-x="681" />
<glyph unicode=" "  horiz-adv-x="512" />
<glyph unicode="&#x09;" horiz-adv-x="512" />
<glyph unicode="&#xa0;" horiz-adv-x="512" />
<glyph unicode="!" horiz-adv-x="563" d="M178 0v203h205v-203h-205zM178 1446h205l-14 -1049h-179z" />
<glyph unicode="&#x22;" horiz-adv-x="747" d="M152 1085v385h157v-385h-157zM440 1085v385h156v-385h-156z" />
<glyph unicode="#" horiz-adv-x="1476" d="M88 391l27 150h268l61 346h-266l25 149h266l72 410h166l-72 -410h317l72 410h166l-72 -410h268l-26 -149h-266l-62 -346h264l-24 -150h-264l-70 -391h-166l68 391h-318l-67 -391h-166l67 391h-268zM549 541h317l62 346h-320z" />
<glyph unicode="$" d="M123 166l113 153q68 -68 169 -111.5t199 -43.5q106 0 178 57.5t72 155.5q0 82 -72.5 142.5t-177 104.5t-209 95t-177.5 139t-73 209q0 150 105.5 261.5t275.5 135.5v193h144v-191q207 -12 352 -143l-92 -166q-61 55 -147.5 91t-170.5 36q-113 0 -187.5 -62.5 t-74.5 -150.5q0 -68 52.5 -120t131 -83.5t171 -74.5t171 -89.5t131 -129t52.5 -191.5q0 -158 -104.5 -270.5t-284.5 -132.5v-189h-144v189q-251 24 -403 186z" />
<glyph unicode="%" horiz-adv-x="1562" d="M100 1167q0 125 90.5 214t219.5 89t221 -89t92 -214t-92 -214t-221 -89t-219.5 88t-90.5 215zM131 0l1108 1446h193l-1106 -1446h-195zM260 1167.5q0 -63.5 43.5 -107.5t106.5 -44q66 0 109.5 44t43.5 107.5t-45 108.5t-108.5 45t-106.5 -45t-43 -108.5zM844 276 q0 127 90 216.5t219 89.5t220 -89.5t91 -216.5q0 -125 -91 -213t-220 -88t-219 88t-90 213zM1004 278.5q0 -63.5 43 -107.5t106.5 -44t107.5 44t44 107.5t-44 108.5t-107.5 45t-106.5 -45t-43 -108.5z" />
<glyph unicode="&#x26;" horiz-adv-x="1380" d="M115 403q0 125 68.5 229.5t185.5 141.5v4q-88 39 -140.5 121t-52.5 199q0 176 124 274t323 98q82 0 176 -22l-51 -162q-47 12 -109 12q-111 0 -183.5 -59t-72.5 -162q0 -90 58.5 -158.5t205.5 -68.5h268v197h201v-197h193v-176h-193v-193q0 -240 -133 -373t-369 -133 q-221 0 -360 122t-139 306zM322 416q0 -109 80.5 -181.5t211.5 -72.5q143 0 222 82t79 248v182h-274q-154 0 -236.5 -67.5t-82.5 -190.5z" />
<glyph unicode="'" horiz-adv-x="462" d="M152 1085v385h157v-385h-157z" />
<glyph unicode="(" horiz-adv-x="600" d="M109 696q0 430 237 809h174q-231 -387 -231 -811q0 -469 231 -889h-174q-238 395 -237 891z" />
<glyph unicode=")" horiz-adv-x="600" d="M80 -195q231 420 231 889q0 424 -231 811h174q238 -379 238 -809q0 -496 -238 -891h-174z" />
<glyph unicode="*" horiz-adv-x="1013" d="M102 1085l56 175l272 -105l-16 291h186l-16 -291l274 102l55 -170l-280 -77v-4l182 -226l-147 -106l-160 241h-4l-156 -241l-149 106l184 226v4z" />
<glyph unicode="+" d="M49 504v160h459v503h168v-503h457v-160h-457v-504h-168v504h-459z" />
<glyph unicode="," horiz-adv-x="557" d="M72 -207l127 422h209l-179 -422h-157z" />
<glyph unicode="-" horiz-adv-x="884" d="M143 496v176h598v-176h-598z" />
<glyph unicode="." horiz-adv-x="499" d="M143 0v215h213v-215h-213z" />
<glyph unicode="/" horiz-adv-x="851" d="M78 -86l520 1610h176l-520 -1610h-176z" />
<glyph unicode="0" horiz-adv-x="1273" d="M125 725q0 164 26.5 294t84 233.5t160 160.5t241.5 57q512 0 512 -745q0 -750 -512 -750q-139 0 -241.5 57.5t-160 162t-84 235.5t-26.5 295zM334 725q0 -563 303 -563t303 563q0 559 -303 559t-303 -559z" />
<glyph unicode="1" horiz-adv-x="1011" d="M106 1110l347 336h180v-1270h317v-176h-833v176h319v934l2 88h-4q-16 -31 -69 -84l-136 -131z" />
<glyph unicode="2" horiz-adv-x="1173" d="M113 111q0 104 38.5 194t101 155.5t138.5 124t153 109.5t139 102.5t101 114t39 129.5q0 106 -73.5 173t-188.5 67q-88 0 -167 -51t-126 -133l-149 100q66 121 186.5 197.5t272.5 76.5q201 0 327.5 -114.5t126.5 -300.5q0 -111 -51 -207t-128 -158.5t-167 -128t-168 -117 t-130 -122t-54 -146.5h721v-176h-932q-10 66 -10 111z" />
<glyph unicode="3" horiz-adv-x="1161" d="M90 172l111 154q63 -68 157.5 -113t192.5 -45q123 0 209 74.5t86 189.5q0 127 -97.5 196.5t-240.5 69.5h-98l-48 109l316 371q20 25 42.5 48t35.5 36l12 10v4q-43 -6 -123 -6h-489v176h864v-129l-393 -455q104 -10 195 -53t160 -140.5t69 -230.5q0 -190 -137.5 -326.5 t-354.5 -136.5q-129 0 -254 51.5t-215 145.5z" />
<glyph unicode="4" horiz-adv-x="1249" d="M70 387v127l669 932h230v-889h196v-170h-196v-387h-199v387h-700zM293 557h477v528l8 146h-4q-33 -70 -72 -121l-409 -549v-4z" />
<glyph unicode="5" horiz-adv-x="1153" d="M100 176l115 148q127 -156 317 -156q131 0 223.5 82t92.5 211t-93 213t-235 84q-135 0 -244 -72l-118 43l71 717h732v-176h-555l-33 -305l-13 -74h5q82 43 188 43q225 0 364.5 -136t139.5 -337q0 -207 -146.5 -346.5t-365.5 -139.5q-129 0 -247 52.5t-198 148.5z" />
<glyph unicode="6" horiz-adv-x="1222" d="M117 655q0 115 24.5 228.5t76.5 220t126 187.5t183.5 130t238.5 49q158 0 283 -59l-66 -174q-90 47 -209 47q-184 0 -294.5 -142.5t-137.5 -342.5h4q45 61 134 98t186 37q203 0 329.5 -135t126.5 -342q0 -209 -131 -345.5t-334 -136.5q-233 0 -386.5 188.5t-153.5 491.5z M330 551q0 -133 95.5 -261t238.5 -128q115 0 186.5 84t71.5 211q0 137 -80 222t-217 85q-119 0 -207 -59.5t-88 -153.5z" />
<glyph unicode="7" horiz-adv-x="1099" d="M84 1270v176h967v-139l-652 -1307h-211l564 1137q18 37 38.5 70.5t32.5 47.5l11 15v4q-29 -4 -103 -4h-647z" />
<glyph unicode="8" horiz-adv-x="1234" d="M113 412q0 76 26.5 146.5t69.5 119.5t73.5 76.5t61.5 48.5q-162 113 -162 284q0 160 117 271.5t334 111.5q203 0 328.5 -105t125.5 -280q0 -119 -58 -220t-116 -158q197 -119 197 -308q0 -174 -137 -299t-359 -125q-215 0 -358 124.5t-143 312.5zM319 428 q0 -117 88.5 -193.5t204.5 -76.5q119 0 205 68.5t86 176.5q0 47 -21.5 85t-70.5 71t-88 53.5t-116 53t-111 49.5q-177 -123 -177 -287zM383 1087q0 -31 9 -57t22.5 -46.5t40 -42t47 -36t58.5 -33t61.5 -30t68.5 -30t68 -28.5q131 139 131 285q0 102 -72 160.5t-188 58.5 q-115 0 -180.5 -57t-65.5 -144z" />
<glyph unicode="9" horiz-adv-x="1222" d="M98 987q0 213 131 348t334 135q236 0 388.5 -188t152.5 -494q0 -143 -40 -283t-117 -261t-205 -195t-289 -74q-160 1 -281 60l66 176q98 -49 206 -49q186 0 297 142t138 343h-5q-43 -61 -133 -98t-186 -37q-203 0 -330 135t-127 340zM301 987q0 -135 80 -220t215 -85 q121 0 209 62.5t88 140.5q0 147 -97.5 273t-230.5 126q-121 0 -192.5 -83t-71.5 -214z" />
<glyph unicode=":" horiz-adv-x="495" d="M143 0v211h209v-211h-209zM143 825v211h209v-211h-209z" />
<glyph unicode=";" horiz-adv-x="589" d="M109 -207l108 422h205l-156 -422h-157zM221 825v211h205v-211h-205z" />
<glyph unicode="&#x3c;" d="M86 516v135l954 426v-182l-731 -309v-4l731 -310v-182z" />
<glyph unicode="=" d="M102 309v160h977v-160h-977zM102 696v160h977v-160h-977z" />
<glyph unicode="&#x3e;" d="M139 90v182l731 310v4l-731 309v182l955 -426v-135z" />
<glyph unicode="?" horiz-adv-x="954" d="M80 1343q147 131 356 132q178 0 303 -104.5t125 -270.5q0 -94 -36.5 -169t-90 -125t-108 -96t-91 -103.5t-36.5 -125.5v-84h-193v97q0 86 36 155.5t86 117.5t101.5 92t87 101.5t35.5 124.5q0 86 -66.5 144.5t-166.5 58.5q-125 0 -232 -86zM303 0v203h205v-203h-205z" />
<glyph unicode="@" horiz-adv-x="1630" d="M115 493.5q0 317.5 217 537.5t530 220q276 0 404.5 -117.5t128.5 -297.5v-580h147v-150h-559q-186 0 -305 114t-119 272q0 160 118 272.5t306 112.5h221q-2 90 -90 150t-242 60q-236 0 -397.5 -176t-161.5 -417q0 -248 163 -418t419 -170v-162q-338 0 -559 216 t-221 533.5zM760 496q0 -100 67.5 -170t169.5 -70h207v483h-203q-104 0 -172.5 -70.5t-68.5 -172.5z" />
<glyph unicode="A" horiz-adv-x="1312" d="M31 0l518 1446h215l518 -1446h-209l-145 416h-545l-145 -416h-207zM436 584h438l-159 456l-58 207h-4q-31 -131 -55 -207z" />
<glyph unicode="B" horiz-adv-x="1277" d="M190 0v1446h506q188 0 304 -98.5t116 -270.5q0 -104 -48 -186t-132 -125v-4q113 -33 176.5 -129t63.5 -221q0 -197 -133.5 -304.5t-333.5 -107.5h-519zM393 176h326q115 0 181.5 67.5t66.5 180.5q0 111 -68 178.5t-180 67.5h-326v-494zM393 838h303q96 0 154.5 61.5 t58.5 157.5t-57 154.5t-158 58.5h-301v-432z" />
<glyph unicode="C" horiz-adv-x="1468" d="M102 731q0 317 208 528t528 211q330 0 528 -190l-102 -152q-80 72 -194 115t-224 43q-246 0 -390.5 -157.5t-144.5 -395.5q0 -240 147.5 -405.5t391.5 -165.5q121 0 238.5 50t205.5 138l109 -145q-229 -229 -559 -229q-1 0 -2 -1q-329 0 -534 216q-206 216 -206 540z" />
<glyph unicode="D" horiz-adv-x="1509" d="M190 0v1446h482q334 0 532.5 -191.5t198.5 -529.5q0 -340 -198.5 -532.5t-532.5 -192.5h-482zM393 176h264q248 0 392.5 142.5t144.5 406.5q0 260 -145.5 402.5t-391.5 142.5h-264v-1094z" />
<glyph unicode="E" horiz-adv-x="1155" d="M190 0v1446h842v-176h-639v-453h518v-176h-518v-465h674v-176h-877z" />
<glyph unicode="F" horiz-adv-x="1052" d="M190 0v1446h797v-176h-594v-477h506v-177h-506v-616h-203z" />
<glyph unicode="G" horiz-adv-x="1560" d="M102 725q0 315 211 530t527 215q317 0 526 -176l-102 -149q-74 61 -187.5 101t-222.5 40q-246 0 -394.5 -159.5t-148.5 -397.5q0 -248 151.5 -407.5t379.5 -159.5q236 0 409 180v209h-233v176h420v-727h-178v90l2 62h-5q-76 -80 -194.5 -128.5t-249.5 -48.5 q-297 0 -504 212t-207 538z" />
<glyph unicode="H" horiz-adv-x="1536" d="M190 0v1446h203v-635h752v635h201v-1446h-201v635h-752v-635h-203z" />
<glyph unicode="I" horiz-adv-x="585" d="M190 0v1446h203v-1446h-203z" />
<glyph unicode="J" horiz-adv-x="1091" d="M57 416v71h201v-61q0 -115 56.5 -189.5t170.5 -74.5q98 0 163 62.5t65 193.5v852h-365v176h565v-1030q0 -219 -125.5 -330t-302 -111t-302.5 112t-126 329z" />
<glyph unicode="K" horiz-adv-x="1257" d="M190 0v1446h203v-608h215l367 608h223l-422 -686v-4l449 -756h-232l-385 662h-215v-662h-203z" />
<glyph unicode="L" horiz-adv-x="1077" d="M190 0v1446h203v-1270h649v-176h-852z" />
<glyph unicode="M" horiz-adv-x="1742" d="M135 0l119 1446h211l334 -782l69 -195h4q39 115 72 195l334 782h211l117 -1446h-201l-70 911l-4 213h-4q-45 -133 -78 -213l-288 -651h-181l-286 651l-78 217h-4q1 -43 1 -81q0 -77 -5 -136l-70 -911h-203z" />
<glyph unicode="N" horiz-adv-x="1540" d="M190 0v1446h201l645 -938l119 -211h4q-12 129 -12 211v938h201v-1446h-199l-645 938l-119 211h-4q12 -129 12 -211v-938h-203z" />
<glyph unicode="O" horiz-adv-x="1685" d="M100 733q0 313 211 525t533 212q319 0 530 -211.5t211 -525.5q0 -322 -211 -540t-530.5 -218t-531.5 218t-212 540zM309 733q0 -244 151.5 -407.5t383.5 -163.5q229 0 380.5 163.5t151.5 407.5q0 236 -151.5 394.5t-380.5 158.5q-231 0 -383 -158.5t-152 -394.5z" />
<glyph unicode="P" horiz-adv-x="1241" d="M190 0v1446h531q201 0 327 -124t126 -329t-127 -331.5t-326 -126.5h-328v-535h-203zM393 711h295q129 0 205 75.5t76 206.5q0 129 -75 203t-204 74h-297v-559z" />
<glyph unicode="Q" horiz-adv-x="1687" d="M102 731q0 315 211 527t529 212q324 0 533.5 -211.5t209.5 -527.5q0 -272 -168 -477l170 -164l-119 -127l-168 170q-193 -158 -458 -158q-319 0 -529.5 219.5t-210.5 536.5zM311 731q0 -240 152.5 -404.5t378.5 -164.5q186 0 315 106l-170 166l117 127l166 -170 q106 147 106 340q0 238 -152.5 396.5t-381.5 158.5q-225 0 -378 -158.5t-153 -396.5z" />
<glyph unicode="R" horiz-adv-x="1286" d="M190 0v1446h459q182 0 269 -39q106 -47 167.5 -145.5t61.5 -233.5q0 -139 -70.5 -248.5t-187.5 -148.5v-4q16 -20 41 -66l307 -561h-229l-306 575h-309v-575h-203zM393 752h291q119 0 188.5 72.5t69.5 193.5q0 170 -135 227q-55 25 -174 25h-240v-518z" />
<glyph unicode="S" horiz-adv-x="1116" d="M84 166l115 153q70 -68 168 -111.5t196 -43.5q115 0 184.5 56t69.5 151q0 88 -71.5 150.5t-175 105.5t-206 92t-174 137t-71.5 213q0 180 134 290.5t339 110.5q248 0 403 -147l-92 -166q-61 57 -148 92t-171 35q-113 0 -186.5 -56.5t-73.5 -148.5q0 -72 51 -127 t129 -86.5t168 -73.5t168 -87.5t129 -127t51 -190.5q0 -176 -123 -294t-338 -118q-280 1 -475 191z" />
<glyph unicode="T" horiz-adv-x="1259" d="M31 1270v176h1196v-176h-498v-1270h-201v1270h-497z" />
<glyph unicode="U" horiz-adv-x="1486" d="M174 512v934h203v-932q0 -166 99 -259t267 -93t266.5 93t98.5 261v930h203v-934q0 -242 -156 -389.5t-410 -147.5q-256 0 -413.5 147.5t-157.5 389.5z" />
<glyph unicode="V" horiz-adv-x="1318" d="M25 1446h217l360 -1022l55 -199h5q29 121 55 199l362 1022h215l-528 -1446h-213z" />
<glyph unicode="W" horiz-adv-x="1927" d="M59 1446h213l252 -1061l29 -154h4q12 74 33 154l284 1061h179l282 -1061l33 -154h4q8 76 27 154l268 1061h209l-381 -1446h-231l-254 938l-43 203h-9q-18 -109 -45 -203l-251 -938h-234z" />
<glyph unicode="X" horiz-adv-x="1224" d="M33 0l454 745l-426 701h232l227 -391l92 -172h4q41 92 89 172l229 391h233l-430 -701l457 -745h-227l-265 444l-90 166h-4q-43 -86 -88 -166l-262 -444h-225z" />
<glyph unicode="Y" horiz-adv-x="1212" d="M20 1446h230l266 -475l88 -183h4q43 98 88 183l267 475h229l-485 -834v-612h-201v612z" />
<glyph unicode="Z" horiz-adv-x="1216" d="M74 0v135l694 1004q25 37 51.5 69.5t40.5 46.5l12 15v4q-39 -4 -106 -4h-657v176h1015v-133l-696 -1006q-25 -35 -50.5 -67.5t-37.5 -46.5l-14 -17v-4q37 4 106 4h701v-176h-1059z" />
<glyph unicode="[" horiz-adv-x="616" d="M176 -195v1700h340v-149h-166v-1399h166v-152h-340z" />
<glyph unicode="\" horiz-adv-x="851" d="M78 1524h176l520 -1610h-176z" />
<glyph unicode="]" horiz-adv-x="616" d="M100 -43h166v1399h-166v149h340v-1700h-340v152z" />
<glyph unicode="^" horiz-adv-x="1253" d="M141 506l410 940h129l410 -940h-181l-295 721l-292 -721h-181z" />
<glyph unicode="_" horiz-adv-x="1222" d="M59 0h1104v-160h-1104v160z" />
<glyph unicode="`" horiz-adv-x="1021" d="M330 1806h213l149 -260h-168z" />
<glyph unicode="a" horiz-adv-x="1079" d="M68 283q0 115 63.5 192.5t169 111.5t195.5 46t190 12h53v21q0 227 -227 227q-150 0 -291 -100l-80 145q63 53 172 88t215 35q197 0 303.5 -104.5t106.5 -301.5v-655h-186v104l6 82h-4q-47 -92 -138.5 -151.5t-201.5 -59.5q-141 0 -243.5 84.5t-102.5 223.5zM266 299 q0 -68 51.5 -117t143.5 -49q123 0 200.5 102.5t77.5 227.5v39h-51q-422 0 -422 -203z" />
<glyph unicode="b" horiz-adv-x="1230" d="M154 0v1446h198v-479l-8 -88h4q47 84 138.5 133t197.5 49q209 0 332 -149.5t123 -393.5q0 -246 -131 -394.5t-340 -148.5q-102 0 -190.5 50.5t-139.5 136.5h-4q6 -31 6 -78v-84h-186zM346 514q0 -150 77 -258.5t216 -108.5q127 0 213 99.5t86 269.5q0 168 -81 269.5 t-212 101.5q-127 0 -213 -94.5t-86 -278.5z" />
<glyph unicode="c" horiz-adv-x="1116" d="M86 518q0 231 156.5 387t398.5 156q246 0 389 -152l-94 -139q-119 119 -287 119q-156 0 -258 -105.5t-102 -263.5q0 -160 103.5 -266.5t262.5 -106.5q86 0 173 38t147 102l80 -146q-72 -76 -182.5 -121t-231.5 -45q-244 0 -399.5 153.5t-155.5 389.5z" />
<glyph unicode="d" horiz-adv-x="1230" d="M90 518q0 246 131 394.5t338 148.5q100 0 186 -44t136 -126h4q-4 31 -4 70v485h196v-1446h-188v104l6 70h-4q-47 -88 -136 -143.5t-208 -55.5q-207 0 -332 149.5t-125 393.5zM293 518q0 -168 81 -269.5t212 -101.5q127 0 213 94.5t86 278.5q0 152 -77 259.5t-218 107.5 q-127 0 -212 -99.5t-85 -269.5z" />
<glyph unicode="e" horiz-adv-x="1140" d="M86 518q0 244 147.5 393.5t372.5 149.5q211 0 330 -138.5t119 -347.5q0 -27 -8 -83h-754q8 -162 109.5 -253.5t246.5 -91.5q170 0 305 121l84 -145q-74 -68 -183.5 -108t-217.5 -40q-242 0 -396.5 155t-154.5 388zM299 635h555q-4 129 -74.5 200.5t-177.5 71.5 q-117 0 -200 -72.5t-103 -199.5z" />
<glyph unicode="f" horiz-adv-x="694" d="M74 864v162h129v45q0 98 28.5 171t70.5 113t98.5 63.5t101.5 30.5t92 7q37 0 76 -6v-172q-16 4 -52 4q-217 0 -217 -213v-43h244v-162h-244v-864h-198v864h-129z" />
<glyph unicode="g" horiz-adv-x="1216" d="M92 540.5q0 229.5 121 375t332 145.5q104 0 192 -39t135 -119h7q-6 12 -7 31v102h191v-993q0 -123 -44 -217t-120 -148.5t-166 -81t-192 -26.5q-182 0 -355 86l66 156q139 -70 284.5 -70t236.5 70.5t91 218.5v84l6 65h-4q-100 -168 -311 -168t-337 149.5t-126 379z M293 547q0 -164 81 -263.5t220 -99.5q121 0 197.5 84t76.5 273q0 348 -293 348q-133 0 -207.5 -91t-74.5 -251z" />
<glyph unicode="h" horiz-adv-x="1234" d="M154 0v1446h198v-537l-8 -86h4q43 90 145.5 164t243.5 74q354 0 355 -397v-664h-199v618q0 125 -40 193t-155 68q-150 0 -248 -110t-98 -277v-492h-198z" />
<glyph unicode="i" horiz-adv-x="503" d="M150 1245v201h204v-201h-204zM154 0v1036h198v-1036h-198z" />
<glyph unicode="j" horiz-adv-x="503" d="M-115 -248q20 -4 45 -4q37 0 70 8t71 29.5t60.5 70.5t22.5 121v1059h198v-1071q0 -98 -29.5 -172t-71.5 -113.5t-100.5 -64.5t-103.5 -31t-92 -6q-20 0 -70 4v170zM150 1245v201h204v-201h-204z" />
<glyph unicode="k" horiz-adv-x="1069" d="M154 0v1446h198v-791h148l280 381h226l-344 -456v-5l382 -575h-231l-309 485h-152v-485h-198z" />
<glyph unicode="l" horiz-adv-x="546" d="M154 285v1161h196v-1129q0 -84 30 -115.5t83 -31.5q23 0 35 2v-176q-43 -6 -66 -6q-278 0 -278 295z" />
<glyph unicode="m" horiz-adv-x="1871" d="M154 0v1036h192v-141l-6 -78h4q39 96 141.5 170t219.5 74q256 0 309 -236h4q45 96 146.5 166t221.5 70q176 0 259.5 -98.5t83.5 -298.5v-664h-199v621q0 125 -38 192.5t-144 67.5q-137 0 -222.5 -120t-85.5 -278v-483h-198v621q0 123 -36 191.5t-142 68.5 q-139 0 -225.5 -121t-86.5 -277v-483h-198z" />
<glyph unicode="n" horiz-adv-x="1234" d="M154 0v1036h192v-141l-6 -78h4q39 88 140.5 166t252.5 78q354 0 355 -397v-664h-199v618q0 125 -40 193t-155 68q-150 0 -248 -110t-98 -271v-498h-198z" />
<glyph unicode="o" horiz-adv-x="1288" d="M86 520q0 231 162 386t395 155q236 0 397.5 -153.5t161.5 -387t-161.5 -389.5t-395 -156t-396.5 156t-163 389zM289 520q0 -162 103.5 -267.5t252.5 -105.5q147 0 251.5 106.5t104.5 266.5t-104 264.5t-252 104.5q-150 0 -253 -104.5t-103 -264.5z" />
<glyph unicode="p" horiz-adv-x="1230" d="M154 -410v1446h184v-92l-6 -78h4q49 92 141 143.5t207 51.5q209 0 332 -149.5t123 -393.5q0 -246 -131 -394.5t-338 -148.5t-322 177h-4q8 -37 8 -91v-471h-198zM346 514q0 -147 79 -257t214 -110q127 0 213 99.5t86 269.5q0 168 -81 269.5t-212 101.5q-127 0 -213 -94.5 t-86 -278.5z" />
<glyph unicode="q" horiz-adv-x="1230" d="M90 518q0 246 131 394.5t338 148.5q102 0 191.5 -48t138.5 -132h4q-4 31 -4 71v84h188v-1446h-196v480l4 90h-4q-45 -80 -132 -132.5t-202 -52.5q-207 0 -332 149.5t-125 393.5zM293 518q0 -168 81 -269.5t212 -101.5q127 0 213 94.5t86 278.5q0 152 -77 259.5 t-218 107.5q-127 0 -212 -99.5t-85 -269.5z" />
<glyph unicode="r" horiz-adv-x="770" d="M154 0v1036h192v-186l-6 -76h4q39 119 127 197t203 78q20 0 53 -5v-196q-16 4 -57 4q-156 0 -237 -126t-81 -296v-430h-198z" />
<glyph unicode="s" horiz-adv-x="915" d="M66 127l94 135q125 -121 305 -121q80 0 128 36t48 99q0 53 -55.5 92.5t-133 68t-155.5 63.5t-133 101.5t-55 160.5q0 141 106.5 220t265.5 79q209 0 336 -115l-80 -143q-45 43 -117.5 67.5t-144.5 24.5q-80 0 -128 -33t-48 -96q0 -55 55.5 -94t133 -66.5t156.5 -62.5 t134.5 -101.5t55.5 -160.5q0 -133 -104.5 -219.5t-268.5 -86.5q-245 0 -395 152z" />
<glyph unicode="t" horiz-adv-x="714" d="M61 864v162h140v295h194v-295h250v-162h-250v-463q0 -59 16.5 -103t40 -68.5t55.5 -39t57.5 -18.5t52 -4t47.5 4v-176q-49 -6 -70 -6q-47 0 -93 7t-103.5 30.5t-99.5 63.5t-71.5 115t-29.5 173v485h-136z" />
<glyph unicode="u" horiz-adv-x="1222" d="M141 373v663h199v-618q0 -123 41 -190.5t154 -67.5q154 0 245.5 114.5t91.5 276.5v485h197v-1036h-192v143l8 76h-4q-41 -92 -143.5 -168t-241.5 -76q-355 1 -355 398z" />
<glyph unicode="v" horiz-adv-x="1081" d="M39 1036h211l252 -700l37 -141h4q16 84 35 141l251 700h209l-383 -1036h-227z" />
<glyph unicode="w" horiz-adv-x="1695" d="M49 1036h211l215 -727l27 -110h4q12 57 29 110l223 725h184l223 -725l27 -110h4q10 57 27 110l217 727h207l-332 -1036h-221l-213 666l-31 112h-4q-12 -59 -29 -112l-213 -666h-221z" />
<glyph unicode="x" horiz-adv-x="1021" d="M35 0l354 532l-334 504h228l192 -315l33 -62h4q20 35 35 62l192 315h228l-334 -504l354 -532h-225l-217 346l-33 55h-4q-14 -31 -31 -55l-217 -346h-225z" />
<glyph unicode="y" horiz-adv-x="1095" d="M27 1036h223l260 -678l39 -125h4q16 70 35 123l252 680h215l-488 -1222q-45 -119 -134 -181.5t-202 -62.5q-51 0 -100 16.5t-74 32.5l-24 14l69 152q57 -45 119 -45q125 0 189 154l51 118z" />
<glyph unicode="z" horiz-adv-x="1046" d="M74 0v115l524 655l84 96v4q-33 -4 -100 -4h-486v170h854v-114l-522 -656q-18 -25 -40.5 -48t-35.5 -36l-12 -12v-4q35 6 102 6h527v-172h-895z" />
<glyph unicode="{" horiz-adv-x="727" d="M84 578v176q82 16 128 74.5t46 152.5v172q0 92 25.5 160.5t61.5 104.5t86 58.5t86 27.5t73 5l47 -2v-151h-27q-27 0 -51 -7.5t-56 -26.5t-51.5 -65.5t-19.5 -115.5v-211q0 -90 -45 -160t-121 -100v-4q166 -66 166 -260v-236q0 -70 19.5 -117t51.5 -66.5t56.5 -25.5 t50.5 -6h27v-152q-18 -4 -47 -4q-37 0 -73 5.5t-86 28t-86 58t-61.5 105.5t-25.5 162v196q0 90 -44 149.5t-130 74.5z" />
<glyph unicode="|" horiz-adv-x="520" d="M172 -326v1948h174v-1948h-174z" />
<glyph unicode="}" horiz-adv-x="727" d="M90 -45h29q27 0 50.5 6t55 25.5t51 66.5t19.5 117v236q0 92 43 161.5t123 98.5v4q-70 27 -118 96.5t-48 163.5v211q0 70 -19.5 116t-51 65t-55.5 26.5t-50 7.5h-29v151q18 2 47 2q37 0 73 -5t86 -27.5t86 -58.5t61.5 -104.5t25.5 -160.5v-172q0 -90 45 -151.5t129 -75.5 v-176q-82 -10 -128 -73t-46 -151v-196q0 -92 -25.5 -162t-61.5 -105.5t-86 -58t-86 -28t-73 -5.5l-47 4v152z" />
<glyph unicode="~" horiz-adv-x="1251" d="M139 418q0 174 75 260t212 86q72 0 130 -32t89 -68.5t76 -68.5t96 -32q74 0 105.5 57.5t31.5 135.5h162q0 -346 -285 -346q-59 0 -107 20.5t-80 49t-61.5 58t-66.5 50t-80 20.5q-72 0 -102.5 -57t-30.5 -133h-164z" />
<glyph unicode="&#xa1;" horiz-adv-x="520" d="M156 -412l14 1049h178l12 -1049h-204zM156 831v203h204v-203h-204z" />
<glyph unicode="&#xa2;" d="M109 723q0 227 116.5 388t315.5 187v172h145v-172q133 -20 232.5 -103t152.5 -214l-180 -70q-90 203 -273 203q-145 0 -226 -109.5t-81 -281.5q0 -176 80 -282.5t227 -106.5q182 0 273 201l180 -70q-53 -125 -152.5 -213t-232.5 -102v-175h-145v175q-199 27 -315.5 187.5 t-116.5 385.5z" />
<glyph unicode="&#xa3;" d="M98 0v176h125v477h-90v144h90v278q0 170 126 282.5t319 112.5q195 0 342 -131l-119 -141q-94 88 -221 88q-111 0 -176.5 -62.5t-65.5 -156.5v-270h377v-144h-377v-477h666v-176h-996z" />
<glyph unicode="&#xa4;" horiz-adv-x="1249" d="M111 348v144h143v143h-143v164h143v647h477q211 0 331 -110.5t120 -301.5q0 -186 -128 -293.5t-331 -107.5h-266v-141h512v-144h-512v-348h-203v348h-143zM457 799h239q131 0 204 66.5t73 177t-72 175t-201 64.5h-243v-483z" />
<glyph unicode="&#xa5;" d="M27 1446h231l242 -451l88 -207h4q43 111 88 207l244 451h231l-338 -606h207v-129h-276l-56 -99v-73h332v-131h-332v-408h-205v408h-333v131h333v73l-53 99h-280v129h211z" />
<glyph unicode="&#xa7;" horiz-adv-x="915" d="M104 -23l91 138q88 -76 198 -76q94 0 155.5 56.5t61.5 158.5q0 41 -12 92l-135 770h162l143 -799q10 -55 10 -92q0 -156 -104.5 -254t-280.5 -98q-168 0 -289 104zM137 1120q0 154 103.5 252t281.5 98q172 0 289 -104l-94 -131q-86 70 -195 70q-96 0 -156.5 -53.5 t-60.5 -153.5q0 -43 10 -82l140 -789h-162l-146 799q-10 39 -10 94z" />
<glyph unicode="&#xa8;" horiz-adv-x="1021" d="M258 1599v207h164v-207h-164zM602 1599v207h162v-207h-162z" />
<glyph unicode="&#xa9;" horiz-adv-x="1685" d="M113 723q0 311 213 529t514 218q307 0 521 -218t214 -529t-214 -529.5t-521 -218.5q-301 0 -514 218.5t-213 529.5zM262 723q0 -256 167 -433t411 -177q248 0 416.5 176t168.5 434t-169 434t-416 176q-244 0 -411 -177t-167 -433zM453 721q0 168 111.5 288.5t291.5 120.5 q104 0 194.5 -55t139.5 -147l-127 -68q-27 53 -83 91t-120 38q-115 0 -184.5 -77.5t-69.5 -190.5q0 -115 67.5 -191.5t186.5 -76.5q63 0 116.5 35.5t86.5 93.5l127 -68q-43 -84 -134 -143.5t-200 -59.5q-182 0 -292.5 120t-110.5 290z" />
<glyph unicode="&#xaa;" horiz-adv-x="872" d="M152 543v116h561v-116h-561zM152 981q0 225 387 225h20v13q0 129 -131 129q-84 0 -170 -58l-59 101q100 76 247 75q127 0 194 -66.5t67 -191.5v-411h-140v94h-4q-23 -45 -74 -76t-114 -31q-90 0 -156.5 52.5t-66.5 144.5zM301 991q0 -39 28 -63.5t77 -24.5 q66 0 109.5 56.5t43.5 125.5v17h-24q-233 0 -234 -111z" />
<glyph unicode="&#xab;" horiz-adv-x="1148" d="M92 578l336 421h199l-336 -421l336 -420h-199zM506 578l336 421h198l-335 -421l335 -420h-198z" />
<glyph unicode="&#xac;" horiz-adv-x="1282" d="M147 696v160h977v-549h-166v389h-811z" />
<glyph unicode="&#xad;" horiz-adv-x="884" d="M143 496v176h598v-176h-598z" />
<glyph unicode="&#xae;" horiz-adv-x="1685" d="M113 723q0 311 213 529t514 218q307 0 521 -218t214 -529t-214 -529.5t-521 -218.5q-301 0 -514 218.5t-213 529.5zM262 723q0 -256 167 -433t411 -177q248 0 416.5 176t168.5 434t-169 434t-416 176q-244 0 -411 -177t-167 -433zM590 340v774h299q109 0 175 -65.5 t66 -171.5q0 -82 -43 -136.5t-98 -68.5v-4q8 -8 27 -43l149 -285h-161l-142 299h-127v-299h-145zM735 745h123q59 0 92 35t33 97q0 59 -32.5 91.5t-90.5 32.5h-125v-256z" />
<glyph unicode="&#xaf;" horiz-adv-x="1021" d="M252 1606v145h520v-145h-520z" />
<glyph unicode="&#xb0;" horiz-adv-x="837" d="M109 1167q0 125 90 214t219 89t221 -89t92 -214t-92 -214t-221 -89t-219 88t-90 215zM268 1167q0 -66 43.5 -109.5t106.5 -43.5q66 0 109.5 44t43.5 109q0 63 -45 108.5t-108.5 45.5t-106.5 -45t-43 -109z" />
<glyph unicode="&#xb1;" d="M49 504v160h459v503h168v-503h457v-160h-457v-504h-168v504h-459zM82 -195h1018v-157h-1018v157z" />
<glyph unicode="&#xb2;" horiz-adv-x="790" d="M90 940q0 96 45 171t108.5 121t127 86t108.5 87t45 102q0 57 -42 95t-105 38q-92 0 -174 -98l-101 92q43 63 120 105.5t161 42.5q127 0 211 -75t84 -194q0 -82 -42 -147.5t-102.5 -107t-122 -78.5t-106.5 -81t-49 -98h436v-135h-596q-6 37 -6 74z" />
<glyph unicode="&#xb3;" horiz-adv-x="790" d="M72 981l86 109q31 -43 88 -73t121 -30q70 0 120 45t50 111q0 68 -53.5 106.5t-127.5 38.5h-69l-35 78l182 211l51 49v4q-39 -6 -75 -6h-289v137h555v-98l-223 -258q102 -14 170.5 -81t68.5 -181q0 -121 -90 -209t-229 -88q-86 0 -168 34.5t-133 100.5z" />
<glyph unicode="&#xb4;" horiz-adv-x="1021" d="M330 1546l147 260h215l-196 -260h-166z" />
<glyph unicode="&#xb5;" horiz-adv-x="1230" d="M172 -410v1446h199v-618q0 -125 39 -191.5t151 -66.5q156 0 247 114.5t91 276.5v485h199v-1036h-191v141l4 74h-6q-4 -10 -12 -26.5t-40 -57.5t-71 -72.5t-109.5 -57.5t-150.5 -26q-129 0 -186 66h-4q16 -102 16 -164v-287h-176z" />
<glyph unicode="&#xb6;" horiz-adv-x="1222" d="M78 971q0 199 142 337t343 138h555v-176h-403v-1372h-152v596q-199 0 -342 138t-143 339zM842 -102v1255h153v-1255h-153z" />
<glyph unicode="&#xb7;" horiz-adv-x="495" d="M143 487v215h207v-215h-207z" />
<glyph unicode="&#xb8;" horiz-adv-x="1021" d="M350 -291q35 -14 86 -14q98 0 98.5 63.5t-108.5 63.5l-37 -2l60 227l100 -22v-15l-25 -112q66 -8 107 -47t41 -103q0 -88 -60.5 -130t-148.5 -42q-57 0 -113 12v121z" />
<glyph unicode="&#xb9;" horiz-adv-x="790" d="M137 1550l217 211h138v-760h188v-135h-533v135h191v510l4 54h-4q-8 -18 -35 -45l-74 -70z" />
<glyph unicode="&#xba;" horiz-adv-x="989" d="M143 1130q0 143 101.5 240.5t247.5 97.5q150 0 251 -96t101 -242q0 -150 -101.5 -247t-249 -97t-249 97.5t-101.5 246.5zM176 543v116h639v-116h-639zM291 1130q0 -92 58.5 -151t144.5 -59q84 0 142 59t58 151q0 90 -58 148.5t-142 58.5q-86 0 -144.5 -58t-58.5 -149z " />
<glyph unicode="&#xbb;" horiz-adv-x="1148" d="M109 158l335 420l-335 421h198l336 -421l-336 -420h-198zM520 158l336 420l-336 421h199l336 -421l-336 -420h-199z" />
<glyph unicode="&#xbc;" horiz-adv-x="1953" d="M113 1237l217 211h137v-760h188v-135h-532v135h190v510l4 53h-4q-8 -18 -34 -45l-74 -69zM535 0l688 1446h151l-686 -1446h-153zM1169 219v103l410 573h166v-541h127v-135h-127v-219h-152v219h-424zM1335 354h258v252l6 119h-4q-27 -55 -59 -98l-201 -269v-4z" />
<glyph unicode="&#xbd;" horiz-adv-x="1931" d="M111 1237l217 211h137v-760h188v-135h-532v135h190v510l4 53h-4q-8 -18 -35 -45l-73 -69zM535 0l688 1446h151l-686 -1446h-153zM1227 74q0 96 45 170.5t108.5 121t127 86.5t108.5 87t45 102q0 57 -42 95t-106 38q-92 0 -174 -98l-100 92q43 63 120 105t161 42 q127 0 211 -74.5t84 -193.5q0 -82 -42 -147.5t-102.5 -107.5t-122 -79t-106.5 -81t-49 -97h436v-135h-596q-6 37 -6 74z" />
<glyph unicode="&#xbe;" horiz-adv-x="1986" d="M88 668l86 108q31 -43 88 -72.5t121 -29.5q70 0 120 45t50 110q0 68 -53.5 107t-126.5 39h-70l-35 78l183 211l51 49v4q-39 -6 -76 -6h-289v137h555v-98l-223 -258q102 -14 171 -81t69 -182q0 -121 -90.5 -209t-229.5 -88q-86 0 -168 35t-133 101zM565 0l688 1446h152 l-686 -1446h-154zM1200 219v103l410 573h166v-541h127v-135h-127v-219h-152v219h-424zM1366 354h258v252l6 119h-4q-27 -55 -59 -98l-201 -269v-4z" />
<glyph unicode="&#xbf;" horiz-adv-x="935" d="M78 -66q0 94 37 169t90 125.5t107.5 96.5t91 103t36.5 125v84h193v-96q0 -86 -36 -156t-87 -118t-101.5 -92t-86 -101.5t-35.5 -124.5q0 -86 66.5 -144.5t166.5 -58.5q125 0 232 86l110 -141q-147 -131 -356 -131q-178 0 -303 104.5t-125 269.5zM434 831v203h205v-203 h-205z" />
<glyph unicode="&#xc0;" horiz-adv-x="1312" d="M31 0l518 1446h215l518 -1446h-209l-145 416h-545l-145 -416h-207zM381 1806h213l149 -260h-168zM436 584h438l-159 456l-58 207h-4q-31 -131 -55 -207z" />
<glyph unicode="&#xc1;" horiz-adv-x="1312" d="M31 0l518 1446h215l518 -1446h-209l-145 416h-545l-145 -416h-207zM436 584h438l-159 456l-58 207h-4q-31 -131 -55 -207zM567 1546l148 260h215l-197 -260h-166z" />
<glyph unicode="&#xc2;" horiz-adv-x="1312" d="M31 0l518 1446h215l518 -1446h-209l-145 416h-545l-145 -416h-207zM371 1546l180 260h205l182 -260h-174l-109 164h-4l-106 -164h-174zM436 584h438l-159 456l-58 207h-4q-31 -131 -55 -207z" />
<glyph unicode="&#xc3;" horiz-adv-x="1312" d="M31 0l518 1446h215l518 -1446h-209l-145 416h-545l-145 -416h-207zM309 1548q0 260 209 260q59 0 104.5 -34.5t82 -69.5t71.5 -35q41 0 60.5 40t19.5 93h143q0 -260 -208 -260q-59 0 -104.5 35t-82.5 69.5t-72 34.5q-80 0 -79 -133h-144zM436 584h438l-159 456l-58 207 h-4q-31 -131 -55 -207z" />
<glyph unicode="&#xc4;" horiz-adv-x="1312" d="M31 0l518 1446h215l518 -1446h-209l-145 416h-545l-145 -416h-207zM401 1599v207h164v-207h-164zM436 584h438l-159 456l-58 207h-4q-31 -131 -55 -207zM745 1599v207h162v-207h-162z" />
<glyph unicode="&#xc5;" horiz-adv-x="1312" d="M31 0l518 1446h215l518 -1446h-209l-145 416h-545l-145 -416h-207zM436 584h438l-159 456l-58 207h-4q-31 -131 -55 -207zM481 1673q0 70 51.5 112t123 42t121.5 -42t50 -112q0 -68 -51 -109.5t-121 -41.5q-72 0 -123 42t-51 109zM588 1673q0 -29 18 -48t49 -19 q29 0 48.5 19.5t19.5 47.5q0 33 -19.5 52.5t-48.5 19.5q-31 0 -49 -19.5t-18 -52.5z" />
<glyph unicode="&#xc6;" horiz-adv-x="1796" d="M18 0l598 1446h1059v-176h-639v-453h518v-176h-518v-465h672v-176h-872v643h-351l-256 -643h-211zM553 811h283v459h-97z" />
<glyph unicode="&#xc7;" horiz-adv-x="1468" d="M102 731q0 317 208 528t528 211q330 0 528 -190l-102 -152q-80 72 -194 115t-224 43q-246 0 -390.5 -157.5t-144.5 -395.5q0 -240 147.5 -405.5t391.5 -165.5q121 0 238.5 50t205.5 138l109 -145q-217 -217 -531 -228l-16 -79q66 -8 107 -47t41 -103q0 -88 -60.5 -130 t-148.5 -42q-57 0 -113 12v121q35 -14 86 -14q98 0 98 63.5t-108 63.5l-37 -2l41 160q-297 27 -478.5 237.5t-181.5 513.5z" />
<glyph unicode="&#xc8;" horiz-adv-x="1155" d="M190 0v1446h842v-176h-639v-453h518v-176h-518v-465h674v-176h-877zM358 1806h213l150 -260h-168z" />
<glyph unicode="&#xc9;" horiz-adv-x="1155" d="M190 0v1446h842v-176h-639v-453h518v-176h-518v-465h674v-176h-877zM543 1546l147 260h215l-196 -260h-166z" />
<glyph unicode="&#xca;" horiz-adv-x="1155" d="M190 0v1446h842v-176h-639v-453h518v-176h-518v-465h674v-176h-877zM348 1546l180 260h205l182 -260h-174l-108 164h-4l-107 -164h-174z" />
<glyph unicode="&#xcb;" horiz-adv-x="1155" d="M190 0v1446h842v-176h-639v-453h518v-176h-518v-465h674v-176h-877zM381 1599v207h164v-207h-164zM725 1599v207h162v-207h-162z" />
<glyph unicode="&#xcc;" horiz-adv-x="585" d="M20 1806h213l150 -260h-168zM190 0v1446h203v-1446h-203z" />
<glyph unicode="&#xcd;" horiz-adv-x="585" d="M190 0v1446h203v-1446h-203zM207 1546l147 260h215l-196 -260h-166z" />
<glyph unicode="&#xce;" horiz-adv-x="585" d="M12 1546l181 260h204l183 -260h-174l-109 164h-4l-107 -164h-174zM190 0v1446h203v-1446h-203z" />
<glyph unicode="&#xcf;" horiz-adv-x="585" d="M43 1599v207h164v-207h-164zM190 0v1446h203v-1446h-203zM387 1599v207h162v-207h-162z" />
<glyph unicode="&#xd0;" horiz-adv-x="1521" d="M84 639v168h119v639h481q334 0 532.5 -191.5t198.5 -529.5q0 -340 -198.5 -532.5t-532.5 -192.5h-481v639h-119zM403 176h267q248 0 392 142.5t144 406.5q0 260 -145.5 402.5t-390.5 142.5h-267v-463h308v-168h-308v-463z" />
<glyph unicode="&#xd1;" horiz-adv-x="1540" d="M190 0v1446h201l645 -938l119 -211h4q-12 129 -12 211v938h201v-1446h-199l-645 938l-119 211h-4q12 -129 12 -211v-938h-203zM424 1548q0 260 209 260q59 0 104 -34.5t82 -69.5t72 -35q41 0 60.5 40t19.5 93h143q0 -260 -209 -260q-59 0 -104 35t-82 69.5t-72 34.5 q-80 0 -80 -133h-143z" />
<glyph unicode="&#xd2;" horiz-adv-x="1685" d="M100 733q0 313 211 525t533 212q319 0 530 -211.5t211 -525.5q0 -322 -211 -540t-530.5 -218t-531.5 218t-212 540zM309 733q0 -244 151.5 -407.5t383.5 -163.5q229 0 380.5 163.5t151.5 407.5q0 236 -151.5 394.5t-380.5 158.5q-231 0 -383 -158.5t-152 -394.5z M567 1806h213l150 -260h-168z" />
<glyph unicode="&#xd3;" horiz-adv-x="1685" d="M100 733q0 313 211 525t533 212q319 0 530 -211.5t211 -525.5q0 -322 -211 -540t-530.5 -218t-531.5 218t-212 540zM309 733q0 -244 151.5 -407.5t383.5 -163.5q229 0 380.5 163.5t151.5 407.5q0 236 -151.5 394.5t-380.5 158.5q-231 0 -383 -158.5t-152 -394.5z M754 1546l147 260h215l-196 -260h-166z" />
<glyph unicode="&#xd4;" horiz-adv-x="1685" d="M100 733q0 313 211 525t533 212q319 0 530 -211.5t211 -525.5q0 -322 -211 -540t-530.5 -218t-531.5 218t-212 540zM309 733q0 -244 151.5 -407.5t383.5 -163.5q229 0 380.5 163.5t151.5 407.5q0 236 -151.5 394.5t-380.5 158.5q-231 0 -383 -158.5t-152 -394.5z M559 1546l180 260h205l182 -260h-174l-108 164h-4l-107 -164h-174z" />
<glyph unicode="&#xd5;" horiz-adv-x="1685" d="M100 733q0 313 211 525t533 212q319 0 530 -211.5t211 -525.5q0 -322 -211 -540t-530.5 -218t-531.5 218t-212 540zM309 733q0 -244 151.5 -407.5t383.5 -163.5q229 0 380.5 163.5t151.5 407.5q0 236 -151.5 394.5t-380.5 158.5q-231 0 -383 -158.5t-152 -394.5z M498 1548q0 260 209 260q59 0 104 -34.5t82 -69.5t72 -35q41 0 60 40t19 93h144q0 -260 -209 -260q-59 0 -104.5 35t-82 69.5t-71.5 34.5q-80 0 -80 -133h-143z" />
<glyph unicode="&#xd6;" horiz-adv-x="1685" d="M100 733q0 313 211 525t533 212q319 0 530 -211.5t211 -525.5q0 -322 -211 -540t-530.5 -218t-531.5 218t-212 540zM309 733q0 -244 151.5 -407.5t383.5 -163.5q229 0 380.5 163.5t151.5 407.5q0 236 -151.5 394.5t-380.5 158.5q-231 0 -383 -158.5t-152 -394.5z M590 1599v207h164v-207h-164zM934 1599v207h162v-207h-162z" />
<glyph unicode="&#xd7;" d="M57 113l424 471l-424 471l115 112l418 -465l418 465l114 -112l-424 -471l424 -471l-114 -113l-418 465l-418 -465z" />
<glyph unicode="&#xd8;" horiz-adv-x="1683" d="M100 731q0 313 215 526t529 213q205 0 379 -100l94 129l100 -69l-92 -130q123 -104 191.5 -250.5t68.5 -318.5q0 -317 -214 -536.5t-527 -219.5q-217 0 -393 111l-97 -137l-102 69l100 140q-117 104 -184.5 253.5t-67.5 319.5zM309 731q0 -241 162 -407l637 886 q-123 76 -264 76q-223 0 -379 -159.5t-156 -395.5zM563 244q127 -82 279 -82q223 0 378.5 163.5t155.5 405.5q0 246 -170 406z" />
<glyph unicode="&#xd9;" horiz-adv-x="1486" d="M174 512v934h203v-932q0 -166 99 -259t267 -93t266.5 93t98.5 261v930h203v-934q0 -242 -156 -389.5t-410 -147.5q-256 0 -413.5 147.5t-157.5 389.5zM467 1806h213l149 -260h-167z" />
<glyph unicode="&#xda;" horiz-adv-x="1486" d="M174 512v934h203v-932q0 -166 99 -259t267 -93t266.5 93t98.5 261v930h203v-934q0 -242 -156 -389.5t-410 -147.5q-256 0 -413.5 147.5t-157.5 389.5zM653 1546l148 260h215l-197 -260h-166z" />
<glyph unicode="&#xdb;" horiz-adv-x="1486" d="M174 512v934h203v-932q0 -166 99 -259t267 -93t266.5 93t98.5 261v930h203v-934q0 -242 -156 -389.5t-410 -147.5q-256 0 -413.5 147.5t-157.5 389.5zM459 1546l180 260h205l182 -260h-174l-109 164h-4l-106 -164h-174z" />
<glyph unicode="&#xdc;" horiz-adv-x="1486" d="M174 512v934h203v-932q0 -166 99 -259t267 -93t266.5 93t98.5 261v930h203v-934q0 -242 -156 -389.5t-410 -147.5q-256 0 -413.5 147.5t-157.5 389.5zM489 1599v207h164v-207h-164zM834 1599v207h161v-207h-161z" />
<glyph unicode="&#xdd;" horiz-adv-x="1212" d="M20 1446h230l266 -475l88 -183h4q43 98 88 183l267 475h229l-485 -834v-612h-201v612zM516 1546l148 260h215l-197 -260h-166z" />
<glyph unicode="&#xde;" horiz-adv-x="1245" d="M190 0v1446h203v-246h328q201 0 327 -124t126 -328.5t-127 -331.5t-328 -127h-326v-289h-203zM393 465h295q129 0 205 75.5t76 207.5q0 129 -75 202.5t-204 73.5h-297v-559z" />
<glyph unicode="&#xdf;" horiz-adv-x="1204" d="M154 0v1085q0 178 132 281.5t310 103.5q168 0 278.5 -95t110.5 -234q0 -68 -31.5 -126.5t-70.5 -93t-71 -77.5t-32 -84q0 -35 38 -72t92.5 -73.5t107.5 -78.5t91 -104.5t38 -134.5q0 -150 -101.5 -230.5t-248.5 -80.5q-178 0 -291 59v176q123 -63 266 -63q74 0 123 36.5 t49 110.5q0 55 -57.5 109.5t-126 94.5t-125.5 105.5t-57 139.5q0 57 32.5 110.5t70.5 89t70.5 86t32.5 99.5q0 63 -52 111t-142 48q-98 0 -168 -59t-70 -168v-1071h-198z" />
<glyph unicode="&#xe0;" horiz-adv-x="1079" d="M68 283q0 115 63.5 192.5t169 111.5t195.5 46t190 12h53v21q0 227 -227 227q-150 0 -291 -100l-80 145q63 53 172 88t215 35q197 0 303.5 -104.5t106.5 -301.5v-655h-186v104l6 82h-4q-47 -92 -138.5 -151.5t-201.5 -59.5q-141 0 -243.5 84.5t-102.5 223.5zM262 1448h213 l150 -260h-168zM266 299q0 -68 51.5 -117t143.5 -49q123 0 200.5 102.5t77.5 227.5v39h-51q-422 0 -422 -203z" />
<glyph unicode="&#xe1;" horiz-adv-x="1079" d="M68 283q0 115 63.5 192.5t169 111.5t195.5 46t190 12h53v21q0 227 -227 227q-150 0 -291 -100l-80 145q63 53 172 88t215 35q197 0 303.5 -104.5t106.5 -301.5v-655h-186v104l6 82h-4q-47 -92 -138.5 -151.5t-201.5 -59.5q-141 0 -243.5 84.5t-102.5 223.5zM266 299 q0 -68 51.5 -117t143.5 -49q123 0 200.5 102.5t77.5 227.5v39h-51q-422 0 -422 -203zM442 1188l148 260h215l-197 -260h-166z" />
<glyph unicode="&#xe2;" horiz-adv-x="1079" d="M68 283q0 115 63.5 192.5t169 111.5t195.5 46t190 12h53v21q0 227 -227 227q-150 0 -291 -100l-80 145q63 53 172 88t215 35q197 0 303.5 -104.5t106.5 -301.5v-655h-186v104l6 82h-4q-47 -92 -138.5 -151.5t-201.5 -59.5q-141 0 -243.5 84.5t-102.5 223.5zM248 1188 l180 260h205l182 -260h-174l-109 164h-4l-106 -164h-174zM266 299q0 -68 51.5 -117t143.5 -49q123 0 200.5 102.5t77.5 227.5v39h-51q-422 0 -422 -203z" />
<glyph unicode="&#xe3;" horiz-adv-x="1079" d="M68 283q0 115 63.5 192.5t169 111.5t195.5 46t190 12h53v21q0 227 -227 227q-150 0 -291 -100l-80 145q63 53 172 88t215 35q197 0 303.5 -104.5t106.5 -301.5v-655h-186v104l6 82h-4q-47 -92 -138.5 -151.5t-201.5 -59.5q-141 0 -243.5 84.5t-102.5 223.5zM188 1190 q0 260 209 260q59 0 104.5 -35t82.5 -69.5t71 -34.5q41 0 60.5 40t19.5 93h144q0 -260 -209 -260q-59 0 -104.5 34.5t-82.5 69.5t-71 35q-80 0 -80 -133h-144zM266 299q0 -68 51.5 -117t143.5 -49q123 0 200.5 102.5t77.5 227.5v39h-51q-422 0 -422 -203z" />
<glyph unicode="&#xe4;" horiz-adv-x="1079" d="M68 283q0 115 63.5 192.5t169 111.5t195.5 46t190 12h53v21q0 227 -227 227q-150 0 -291 -100l-80 145q63 53 172 88t215 35q197 0 303.5 -104.5t106.5 -301.5v-655h-186v104l6 82h-4q-47 -92 -138.5 -151.5t-201.5 -59.5q-141 0 -243.5 84.5t-102.5 223.5zM266 299 q0 -68 51.5 -117t143.5 -49q123 0 200.5 102.5t77.5 227.5v39h-51q-422 0 -422 -203zM281 1241v207h163v-207h-163zM625 1241v207h161v-207h-161z" />
<glyph unicode="&#xe5;" horiz-adv-x="1079" d="M68 283q0 115 63.5 192.5t169 111.5t195.5 46t190 12h53v21q0 227 -227 227q-150 0 -291 -100l-80 145q63 53 172 88t215 35q197 0 303.5 -104.5t106.5 -301.5v-655h-186v104l6 82h-4q-47 -92 -138.5 -151.5t-201.5 -59.5q-141 0 -243.5 84.5t-102.5 223.5zM266 299 q0 -68 51.5 -117t143.5 -49q123 0 200.5 102.5t77.5 227.5v39h-51q-422 0 -422 -203zM358 1315q0 70 51.5 111.5t123 41.5t122 -42t50.5 -111q0 -68 -51.5 -110t-121.5 -42q-72 0 -123 42t-51 110zM465 1315q0 -29 18 -48.5t49 -19.5q29 0 48.5 19.5t19.5 48.5 q0 33 -19.5 52t-48.5 19q-31 0 -49 -19t-18 -52z" />
<glyph unicode="&#xe6;" horiz-adv-x="1767" d="M70 291q0 80 29.5 141.5t85 98t112.5 60t136 34t133.5 13.5t121.5 3h51v25q0 227 -233 227q-147 0 -287 -100l-80 145q66 55 171.5 89t207.5 34q262 0 346 -182h4q123 182 367 182q207 0 325.5 -137.5t118.5 -343.5q0 -27 -4 -84h-745q8 -166 104 -257.5t242 -91.5 q172 0 307 119l82 -143q-72 -66 -182.5 -107t-218.5 -41q-154 0 -268.5 68t-176.5 190h-4q-10 -29 -33.5 -63.5t-67.5 -81.5t-121 -79t-169 -32q-150 0 -252 84.5t-102 229.5zM270 301q0 -70 51.5 -118t145.5 -48q121 0 197.5 103.5t76.5 228.5v29h-98q-373 0 -373 -195z M938 641h541q-4 123 -75 191.5t-171 68.5q-117 0 -196 -67.5t-99 -192.5z" />
<glyph unicode="&#xe7;" horiz-adv-x="1118" d="M86 518q0 231 156.5 387t398.5 156q246 0 389 -152l-94 -139q-119 119 -287 119q-156 0 -258 -105.5t-102 -263.5q0 -160 103.5 -266.5t262.5 -106.5q86 0 173 38t147 102l80 -146q-145 -156 -389 -166l-17 -77q66 -8 107 -47t41 -103q0 -88 -60.5 -130t-148.5 -42 q-57 0 -113 12v121q37 -14 86 -14q98 0 98 63.5t-108 63.5l-37 -2l41 162q-211 29 -340 176t-129 360z" />
<glyph unicode="&#xe8;" horiz-adv-x="1140" d="M86 518q0 244 147.5 393.5t372.5 149.5q211 0 330 -138.5t119 -347.5q0 -27 -8 -83h-754q8 -162 109.5 -253.5t246.5 -91.5q170 0 305 121l84 -145q-74 -68 -183.5 -108t-217.5 -40q-242 0 -396.5 155t-154.5 388zM299 635h555q-4 129 -74.5 200.5t-177.5 71.5 q-117 0 -200 -72.5t-103 -199.5zM332 1448h213l149 -260h-168z" />
<glyph unicode="&#xe9;" horiz-adv-x="1140" d="M86 518q0 244 147.5 393.5t372.5 149.5q211 0 330 -138.5t119 -347.5q0 -27 -8 -83h-754q8 -162 109.5 -253.5t246.5 -91.5q170 0 305 121l84 -145q-74 -68 -183.5 -108t-217.5 -40q-242 0 -396.5 155t-154.5 388zM299 635h555q-4 129 -74.5 200.5t-177.5 71.5 q-117 0 -200 -72.5t-103 -199.5zM514 1188l148 260h215l-197 -260h-166z" />
<glyph unicode="&#xea;" horiz-adv-x="1140" d="M86 518q0 244 147.5 393.5t372.5 149.5q211 0 330 -138.5t119 -347.5q0 -27 -8 -83h-754q8 -162 109.5 -253.5t246.5 -91.5q170 0 305 121l84 -145q-74 -68 -183.5 -108t-217.5 -40q-242 0 -396.5 155t-154.5 388zM299 635h555q-4 129 -74.5 200.5t-177.5 71.5 q-117 0 -200 -72.5t-103 -199.5zM319 1188l181 260h205l182 -260h-174l-109 164h-4l-106 -164h-175z" />
<glyph unicode="&#xeb;" horiz-adv-x="1140" d="M86 518q0 244 147.5 393.5t372.5 149.5q211 0 330 -138.5t119 -347.5q0 -27 -8 -83h-754q8 -162 109.5 -253.5t246.5 -91.5q170 0 305 121l84 -145q-74 -68 -183.5 -108t-217.5 -40q-242 0 -396.5 155t-154.5 388zM299 635h555q-4 129 -74.5 200.5t-177.5 71.5 q-117 0 -200 -72.5t-103 -199.5zM352 1241v207h164v-207h-164zM696 1241v207h162v-207h-162z" />
<glyph unicode="&#xec;" horiz-adv-x="503" d="M-18 1448h213l149 -260h-168zM154 0v1036h198v-1036h-198z" />
<glyph unicode="&#xed;" horiz-adv-x="503" d="M154 0v1036h198v-1036h-198zM166 1188l147 260h215l-196 -260h-166z" />
<glyph unicode="&#xee;" horiz-adv-x="503" d="M-29 1188l181 260h204l183 -260h-174l-109 164h-4l-107 -164h-174zM154 0v1036h198v-1036h-198z" />
<glyph unicode="&#xef;" horiz-adv-x="503" d="M4 1241v207h164v-207h-164zM154 0v1036h198v-1036h-198zM348 1241v207h162v-207h-162z" />
<glyph unicode="&#xf0;" horiz-adv-x="1189" d="M90 481q0 193 130 333t355 140q74 0 136.5 -21.5t89.5 -43.5l26 -21h4q-61 164 -223 273l-370 -164l-21 127l254 113q-115 59 -264 94l55 162q248 -59 424 -164l285 125l18 -125l-188 -86q295 -246 295 -660q0 -109 -30 -209t-89 -187t-163.5 -139.5t-238.5 -52.5 q-221 0 -353 150.5t-132 355.5zM293 477q0 -135 75.5 -233.5t213.5 -98.5q154 0 232.5 116t78.5 267q0 117 -79 192t-210 75q-150 0 -230.5 -93.5t-80.5 -224.5z" />
<glyph unicode="&#xf1;" horiz-adv-x="1234" d="M154 0v1036h192v-141l-6 -78h4q39 88 140.5 166t252.5 78q354 0 355 -397v-664h-199v618q0 125 -40 193t-155 68q-150 0 -248 -110t-98 -271v-498h-198zM293 1190q0 260 209 260q59 0 104 -35t82 -69.5t72 -34.5q41 0 60.5 40t19.5 93h143q0 -260 -209 -260 q-59 0 -104 34.5t-82 69.5t-72 35q-80 0 -80 -133h-143z" />
<glyph unicode="&#xf2;" horiz-adv-x="1288" d="M86 520q0 231 162 386t395 155q236 0 397.5 -153.5t161.5 -387t-161.5 -389.5t-395 -156t-396.5 156t-163 389zM289 520q0 -162 103.5 -267.5t252.5 -105.5q147 0 251.5 106.5t104.5 266.5t-104 264.5t-252 104.5q-150 0 -253 -104.5t-103 -264.5zM369 1448h213l149 -260 h-168z" />
<glyph unicode="&#xf3;" horiz-adv-x="1288" d="M86 520q0 231 162 386t395 155q236 0 397.5 -153.5t161.5 -387t-161.5 -389.5t-395 -156t-396.5 156t-163 389zM289 520q0 -162 103.5 -267.5t252.5 -105.5q147 0 251.5 106.5t104.5 266.5t-104 264.5t-252 104.5q-150 0 -253 -104.5t-103 -264.5zM555 1188l147 260h216 l-197 -260h-166z" />
<glyph unicode="&#xf4;" horiz-adv-x="1288" d="M86 520q0 231 162 386t395 155q236 0 397.5 -153.5t161.5 -387t-161.5 -389.5t-395 -156t-396.5 156t-163 389zM289 520q0 -162 103.5 -267.5t252.5 -105.5q147 0 251.5 106.5t104.5 266.5t-104 264.5t-252 104.5q-150 0 -253 -104.5t-103 -264.5zM360 1188l181 260h204 l183 -260h-174l-109 164h-4l-106 -164h-175z" />
<glyph unicode="&#xf5;" horiz-adv-x="1288" d="M86 520q0 231 162 386t395 155q236 0 397.5 -153.5t161.5 -387t-161.5 -389.5t-395 -156t-396.5 156t-163 389zM289 520q0 -162 103.5 -267.5t252.5 -105.5q147 0 251.5 106.5t104.5 266.5t-104 264.5t-252 104.5q-150 0 -253 -104.5t-103 -264.5zM299 1190 q0 260 209 260q59 0 104 -35t82 -69.5t72 -34.5q41 0 60.5 40t19.5 93h143q0 -260 -209 -260q-59 0 -104 34.5t-82 69.5t-72 35q-80 0 -80 -133h-143z" />
<glyph unicode="&#xf6;" horiz-adv-x="1288" d="M86 520q0 231 162 386t395 155q236 0 397.5 -153.5t161.5 -387t-161.5 -389.5t-395 -156t-396.5 156t-163 389zM289 520q0 -162 103.5 -267.5t252.5 -105.5q147 0 251.5 106.5t104.5 266.5t-104 264.5t-252 104.5q-150 0 -253 -104.5t-103 -264.5zM391 1241v207h164v-207 h-164zM735 1241v207h162v-207h-162z" />
<glyph unicode="&#xf7;" d="M74 504v160h1034v-160h-1034zM494 90v186h192v-186h-192zM494 891v186h192v-186h-192z" />
<glyph unicode="&#xf8;" horiz-adv-x="1290" d="M86 520q0 233 162 387t397 154q147 0 277 -68l82 113l96 -70l-80 -110q184 -158 184 -406q0 -233 -162.5 -389t-396.5 -156q-145 0 -262 62l-80 -115l-98 70l78 108q-197 160 -197 420zM289 520q0 -155 104 -264l422 588q-78 45 -170 45q-147 0 -251.5 -104.5 t-104.5 -264.5zM489 184q78 -37 156 -37q150 0 253 105.5t103 267.5q0 147 -94 246z" />
<glyph unicode="&#xf9;" horiz-adv-x="1222" d="M141 373v663h199v-618q0 -123 41 -190.5t154 -67.5q154 0 245.5 114.5t91.5 276.5v485h197v-1036h-192v143l8 76h-4q-41 -92 -143.5 -168t-241.5 -76q-355 1 -355 398zM332 1448h213l149 -260h-168z" />
<glyph unicode="&#xfa;" horiz-adv-x="1222" d="M141 373v663h199v-618q0 -123 41 -190.5t154 -67.5q154 0 245.5 114.5t91.5 276.5v485h197v-1036h-192v143l8 76h-4q-41 -92 -143.5 -168t-241.5 -76q-355 1 -355 398zM516 1188l148 260h215l-197 -260h-166z" />
<glyph unicode="&#xfb;" horiz-adv-x="1222" d="M141 373v663h199v-618q0 -123 41 -190.5t154 -67.5q154 0 245.5 114.5t91.5 276.5v485h197v-1036h-192v143l8 76h-4q-41 -92 -143.5 -168t-241.5 -76q-355 1 -355 398zM319 1188l181 260h205l182 -260h-174l-109 164h-4l-106 -164h-175z" />
<glyph unicode="&#xfc;" horiz-adv-x="1222" d="M141 373v663h199v-618q0 -123 41 -190.5t154 -67.5q154 0 245.5 114.5t91.5 276.5v485h197v-1036h-192v143l8 76h-4q-41 -92 -143.5 -168t-241.5 -76q-355 1 -355 398zM352 1241v207h164v-207h-164zM696 1241v207h162v-207h-162z" />
<glyph unicode="&#xfd;" horiz-adv-x="1095" d="M27 1036h223l260 -678l39 -125h4q16 70 35 123l252 680h215l-488 -1222q-45 -119 -134 -181.5t-202 -62.5q-51 0 -100 16.5t-74 32.5l-24 14l69 152q57 -45 119 -45q125 0 189 154l51 118zM461 1188l147 260h215l-196 -260h-166z" />
<glyph unicode="&#xfe;" horiz-adv-x="1228" d="M154 -410v1856h198v-473l-4 -84h4q43 78 128 125t200 47q209 0 334 -151.5t125 -391t-130 -391.5t-335 -152q-98 0 -187.5 44t-134.5 126h-4q4 -37 4 -90v-465h-198zM346 516q0 -164 81 -267.5t216 -103.5q127 0 211 103.5t84 269.5q0 164 -81 267.5t-210 103.5 t-215 -92.5t-86 -280.5z" />
<glyph unicode="&#xff;" horiz-adv-x="1095" d="M27 1036h223l260 -678l39 -125h4q16 70 35 123l252 680h215l-488 -1222q-45 -119 -134 -181.5t-202 -62.5q-51 0 -100 16.5t-74 32.5l-24 14l69 152q57 -45 119 -45q125 0 189 154l51 118zM297 1241v207h164v-207h-164zM641 1241v207h162v-207h-162z" />
<glyph unicode="&#x152;" horiz-adv-x="1957" d="M102 725q0 313 214 526t534 213q53 0 136 -9t116 -9h733v-176h-639v-453h520v-176h-520v-465h674v-176h-768q-31 0 -115 -9t-137 -9q-319 0 -533.5 214t-214.5 529zM311 725q0 -242 150.5 -404.5t388.5 -162.5q37 0 72.5 4t54.5 8l18 4v1098q-63 16 -145 16 q-236 0 -387.5 -161.5t-151.5 -401.5z" />
<glyph unicode="&#x153;" horiz-adv-x="2054" d="M86 516q0 240 161 392.5t392 152.5q301 0 448 -246h5q129 246 426 246q213 0 330.5 -138.5t117.5 -347.5l-6 -83h-756q12 -162 113.5 -253.5t243.5 -91.5q170 0 307 121l82 -145q-74 -68 -182.5 -108t-219.5 -40q-313 0 -452 252h-4q-145 -252 -453 -252 q-231 0 -392 150.5t-161 390.5zM289 516q0 -164 103.5 -266.5t250.5 -102.5q150 0 253 103.5t103 271.5q0 162 -104 264.5t-251.5 102.5t-251 -103.5t-103.5 -269.5zM1210 635h553q-4 127 -73.5 197.5t-173.5 70.5q-117 0 -200 -71.5t-106 -196.5z" />
<glyph unicode="&#x178;" horiz-adv-x="1212" d="M20 1446h230l266 -475l88 -183h4q43 98 88 183l267 475h229l-485 -834v-612h-201v612zM346 1599v207h164v-207h-164zM690 1599v207h162v-207h-162z" />
<glyph unicode="&#x2c6;" horiz-adv-x="1021" d="M227 1546l181 260h204l183 -260h-174l-109 164h-4l-107 -164h-174z" />
<glyph unicode="&#x2dc;" horiz-adv-x="1021" d="M166 1548q0 260 209 260q59 0 104 -34.5t82 -69.5t72 -35q41 0 60.5 40t19.5 93h143q0 -260 -209 -260q-74 0 -146.5 69.5t-111.5 69.5q-80 0 -80 -133h-143z" />
<glyph unicode="&#x2000;" horiz-adv-x="913" />
<glyph unicode="&#x2001;" horiz-adv-x="1827" />
<glyph unicode="&#x2002;" horiz-adv-x="913" />
<glyph unicode="&#x2003;" horiz-adv-x="1827" />
<glyph unicode="&#x2004;" horiz-adv-x="609" />
<glyph unicode="&#x2005;" horiz-adv-x="456" />
<glyph unicode="&#x2006;" horiz-adv-x="304" />
<glyph unicode="&#x2007;" horiz-adv-x="304" />
<glyph unicode="&#x2008;" horiz-adv-x="228" />
<glyph unicode="&#x2009;" horiz-adv-x="365" />
<glyph unicode="&#x200a;" horiz-adv-x="101" />
<glyph unicode="&#x2010;" horiz-adv-x="884" d="M143 496v176h598v-176h-598z" />
<glyph unicode="&#x2011;" horiz-adv-x="884" d="M143 496v176h598v-176h-598z" />
<glyph unicode="&#x2012;" horiz-adv-x="884" d="M143 496v176h598v-176h-598z" />
<glyph unicode="&#x2013;" horiz-adv-x="1370" d="M147 504v160h1076v-160h-1076z" />
<glyph unicode="&#x2014;" horiz-adv-x="1779" d="M147 504v160h1485v-160h-1485z" />
<glyph unicode="&#x2018;" horiz-adv-x="512" d="M123 1071l133 397h147l-88 -397h-192z" />
<glyph unicode="&#x2019;" horiz-adv-x="499" d="M131 1071l86 397h195l-136 -397h-145z" />
<glyph unicode="&#x201a;" horiz-adv-x="528" d="M102 -182l88 397h187l-131 -397h-144z" />
<glyph unicode="&#x201c;" horiz-adv-x="800" d="M123 1071l133 397h147l-88 -397h-192zM412 1071l133 397h147l-88 -397h-192z" />
<glyph unicode="&#x201d;" horiz-adv-x="790" d="M131 1071l86 397h195l-133 -397h-148zM420 1071l86 397h194l-133 -397h-147z" />
<glyph unicode="&#x201e;" horiz-adv-x="811" d="M102 -182l88 397h187l-131 -397h-144zM385 -182l88 397h189l-134 -397h-143z" />
<glyph unicode="&#x2022;" horiz-adv-x="974" d="M172 596q0 131 92 224t223 93t224.5 -93t93.5 -224t-93.5 -224t-224.5 -93t-223 93t-92 224z" />
<glyph unicode="&#x2026;" horiz-adv-x="1558" d="M143 0v215h207v-215h-207zM676 0v215h207v-215h-207zM1206 0v215h209v-215h-209z" />
<glyph unicode="&#x202f;" horiz-adv-x="365" />
<glyph unicode="&#x2039;" horiz-adv-x="735" d="M92 578l336 421h199l-336 -421l336 -420h-199z" />
<glyph unicode="&#x203a;" horiz-adv-x="735" d="M109 158l335 420l-335 421h198l336 -421l-336 -420h-198z" />
<glyph unicode="&#x205f;" horiz-adv-x="456" />
<glyph unicode="&#x20ac;" d="M53 528v129h115q-10 57 -2 148h-113v131h137q63 238 254 386t441 148q102 0 205 -24l-48 -184q-68 20 -161 20q-170 0 -297 -94t-178 -252h575l-27 -131h-577q-10 -61 0 -148h551l-27 -129h-491q49 -164 178 -262t299 -98q100 0 186 27l39 -185q-94 -35 -227 -35 q-260 0 -448.5 153t-248.5 400h-135z" />
<glyph unicode="&#x2122;" horiz-adv-x="2031" d="M125 1309v137h778v-137h-311v-764h-154v764h-313zM969 545l71 901h144l211 -471l28 -84h4q12 47 27 84l213 471h143l70 -901h-154l-43 538l3 62h-5l-192 -434h-125l-197 434h-4l2 -62l-43 -538h-153z" />
<glyph unicode="&#x25fc;" horiz-adv-x="1034" d="M0 0v1034h1034v-1034h-1034z" />
</font>
</defs>
</svg>
