<?xml version="1.0" standalone="no"?>
<!DOCTYPE svg PUBLIC "-//W3C//DTD SVG 1.1//EN" "http://www.w3.org/Graphics/SVG/1.1/DTD/svg11.dtd" >
<svg xmlns="http://www.w3.org/2000/svg" xmlns:xlink="http://www.w3.org/1999/xlink" version="1.1">
<metadata></metadata>
<defs>
<font id="soleilbook" horiz-adv-x="1126" >
<font-face units-per-em="2048" ascent="1542" descent="-506" />
<missing-glyph horiz-adv-x="512" />
<glyph unicode="&#xfb01;" horiz-adv-x="1239" d="M84 854v182h117v133q0 179 67 273q82 119 281 119q77 0 160 -27l-33 -180q-56 16 -107 16q-71 0 -110 -33q-47 -44 -47 -186v-115h276v-182h-276v-854h-211v854h-117zM864 0v1036h211v-1036h-211zM864 1225v219h211v-219h-211z" />
<glyph unicode="&#xfb02;" horiz-adv-x="1241" d="M84 854v182h117v133q0 179 67 273q82 119 281 119q77 0 160 -27l-33 -180q-56 16 -107 16q-71 0 -110 -33q-47 -44 -47 -186v-115h276v-182h-276v-854h-211v854h-117zM864 0v1536h211v-1536h-211z" />
<glyph unicode="&#xfb03;" horiz-adv-x="1941" d="M84 854v182h117v133q0 179 67 273q82 119 281 119q108 0 217 -50l-61 -172q-64 31 -136 31q-71 0 -110 -33q-47 -44 -47 -186v-115h233v-182h-233v-854h-211v854h-117zM784 854v182h117v133q0 178 68 273q82 119 280 119q77 0 160 -27l-33 -180q-56 16 -106 16 q-72 0 -111 -33q-47 -44 -47 -186v-115h277v-182h-277v-854h-211v854h-117zM1567 0v1036h211v-1036h-211zM1567 1225v219h211v-219h-211z" />
<glyph unicode="&#xfb04;" horiz-adv-x="1939" d="M84 854v182h117v133q0 179 67 273q82 119 281 119q108 0 217 -50l-61 -172q-64 31 -136 31q-71 0 -110 -33q-47 -44 -47 -186v-115h233v-182h-233v-854h-211v854h-117zM784 854v182h117v133q0 178 68 273q82 119 280 119q77 0 160 -27l-33 -180q-56 16 -106 16 q-72 0 -111 -33q-47 -44 -47 -186v-115h277v-182h-277v-854h-211v854h-117zM1565 0v1536h211v-1536h-211z" />
<glyph horiz-adv-x="0" />
<glyph horiz-adv-x="682" />
<glyph horiz-adv-x="0" />
<glyph horiz-adv-x="0" />
<glyph unicode="&#xd;" horiz-adv-x="1024" />
<glyph unicode=" "  horiz-adv-x="512" />
<glyph unicode="&#x09;" horiz-adv-x="512" />
<glyph unicode="&#xa0;" horiz-adv-x="512" />
<glyph unicode="!" horiz-adv-x="653" d="M203 1200v234h248v-234l-21 -756h-205zM207 0v254h239v-254h-239z" />
<glyph unicode="&#x22;" horiz-adv-x="991" d="M156 1434h227l-18 -555h-189zM606 1434h228l-19 -555h-188z" />
<glyph unicode="#" horiz-adv-x="1413" d="M109 375v164h253l52 284h-172v162h198l68 377h180l-67 -377h266l67 377h181l-68 -377h238v-162h-267l-51 -284h184v-164h-210l-66 -375h-180l65 375h-266l-65 -375h-179l64 375h-225zM543 539h264l51 284h-264z" />
<glyph unicode="$" d="M51 186l146 138q164 -164 344 -164q123 0 201.5 58t78.5 165q0 48 -28 98q-18 32 -80 70q-51 31 -113 51l-65 23l-62 24q-133 47 -229 121q-105 88 -105 250q0 152 102.5 250t268.5 112v195h141v-199q172 -21 340 -137l-129 -154q-125 113 -295 113q-91 0 -156 -48 t-65 -130q0 -38 20.5 -67t59.5 -60q11 -7 32.5 -17t50.5 -22.5t36 -15.5l73 -27q47 -14 72 -25q80 -30 132 -58t106 -71q110 -88 110 -258q0 -169 -110.5 -280.5t-288.5 -136.5v-201h-139v194q-240 9 -449 209z" />
<glyph unicode="%" horiz-adv-x="1742" d="M113 1114q0 142 98 236q101 96 238 96q136 0 237 -96q98 -94 98 -236q0 -141 -98 -235q-102 -97 -237 -97q-136 0 -238 97q-98 94 -98 235zM285 1114q0 -77 45 -125q47 -47 119 -47q69 0 116 47q47 50 47 125q0 76 -47 123q-46 49 -116 49q-73 0 -119 -49 q-45 -45 -45 -123zM305 61l1020 1399l119 -88l-1018 -1399zM958 319q0 141 99 236q101 96 237 96q137 0 238 -96q98 -94 98 -236q0 -141 -98 -235q-101 -96 -238 -96q-136 0 -237 96q-99 94 -99 235zM1130 319q0 -75 46 -124q48 -48 118 -48q69 0 117 48q47 50 47 124 q0 76 -47 123q-47 50 -117 50q-71 0 -118 -50q-46 -46 -46 -123z" />
<glyph unicode="&#x26;" horiz-adv-x="1398" d="M125 424q0 122 63 222t174 161q-133 148 -133 295q0 153 125 254q126 102 287 102q141 0 242.5 -71.5t136.5 -198.5l-195 -55q-34 137 -192 137q-83 0 -139 -49.5t-56 -126.5q0 -74 49 -138q52 -64 170 -170l-122 -143l-39 35q-74 -37 -117 -103t-43 -147q0 -111 86 -188 q85 -76 205 -76q181 0 282 143l-161 146l124 143l555 -496l-124 -141l-252 223q-154 -207 -443 -207q-194 0 -340 134q-143 134 -143 315z" />
<glyph unicode="'" horiz-adv-x="540" d="M156 1434h227l-18 -555h-189z" />
<glyph unicode="(" horiz-adv-x="720" d="M94 625q0 633 553 979l88 -150q-426 -278 -426 -829q0 -565 424 -832l-84 -149q-555 334 -555 981z" />
<glyph unicode=")" horiz-adv-x="720" d="M-14 1454l88 150q553 -346 553 -979q0 -647 -555 -981l-84 149q424 267 424 832q0 551 -426 829z" />
<glyph unicode="*" horiz-adv-x="1011" d="M137 1118l60 187l237 -105l-26 258h196l-24 -258l235 105l59 -187l-247 -55l176 -195l-160 -114l-137 233l-137 -233l-160 114l174 195z" />
<glyph unicode="+" d="M51 547v180h422v422h180v-422h422v-180h-422v-422h-180v422h-422z" />
<glyph unicode="," horiz-adv-x="512" d="M33 -270l106 524h234l-140 -524h-200z" />
<glyph unicode="-" horiz-adv-x="935" d="M197 483v187h542v-187h-542z" />
<glyph unicode="." horiz-adv-x="512" d="M135 0v254h240v-254h-240z" />
<glyph unicode="/" horiz-adv-x="768" d="M0 -47l596 1610l172 -66l-596 -1610z" />
<glyph unicode="0" horiz-adv-x="1132" d="M78 680q0 331 128 517.5t359 186.5q232 0 361 -186.5t129 -517.5t-129 -518t-361 -187q-231 0 -359 187t-128 518zM299 680q0 -252 68.5 -382t197.5 -130q130 0 199.5 130t69.5 382t-69.5 382t-199.5 130t-198 -130t-68 -382z" />
<glyph unicode="1" horiz-adv-x="712" d="M109 1014v200q104 52 276 146h141v-1360h-217v1104q-14 -10 -200 -90z" />
<glyph unicode="2" horiz-adv-x="1050" d="M90 1030q12 156 137 254q124 100 285 100q169 0 295 -102q125 -101 125 -262q0 -172 -144 -375q-137 -196 -380 -457h585v-188h-876v184q324 339 475 559q119 174 119 277q0 78 -59 127t-146 49q-86 0 -143.5 -58.5t-57.5 -148.5z" />
<glyph unicode="3" horiz-adv-x="1071" d="M68 217l174 92q76 -143 256 -143q110 0 182 58t72 159q0 98 -79.5 160.5t-201.5 62.5q-82 0 -145 -14v207q124 3 186 18q79 24 125.5 75.5t46.5 119.5q0 78 -60 130t-153 52q-75 0 -132 -38t-77 -105l-184 75q41 117 149 187.5t248 70.5q191 0 309 -100 q121 -103 121 -264q0 -91 -46 -169.5t-124 -119.5q106 -37 171 -129t65 -207q0 -192 -133 -307q-131 -113 -330 -113q-143 0 -262 63.5t-178 178.5z" />
<glyph unicode="4" horiz-adv-x="1110" d="M51 340v215l596 805h221v-832h201v-188h-201v-340h-213v340h-604zM281 528h374v537z" />
<glyph unicode="5" horiz-adv-x="1030" d="M72 213l174 94q76 -141 243 -141q117 0 189 73t72 185q0 105 -71.5 171.5t-184.5 66.5q-123 0 -201 -84l-152 88q19 187 47 694h711v-189h-506q-15 -263 -24 -358q81 37 190 37q170 0 291 -121t121 -295q0 -197 -131 -328t-330 -131q-136 0 -258 64q-120 63 -180 174z " />
<glyph unicode="6" horiz-adv-x="1103" d="M78 522q0 314 192 555q194 244 490 363l84 -187q-213 -95 -339 -213t-175 -288q114 114 288 114q178 0 293 -127t115 -309q0 -195 -125 -326q-126 -129 -317 -129q-230 0 -369 160q-137 162 -137 387zM297 520q0 -151 65 -254q68 -102 205 -102q107 0 173.5 75t66.5 189 q0 111 -65.5 180.5t-170.5 69.5q-87 0 -161.5 -42.5t-112.5 -115.5z" />
<glyph unicode="7" horiz-adv-x="937" d="M20 1167v193h879v-150q-303 -633 -563 -1259l-199 88q59 139 178 401q66 147 213 453l131 274h-639z" />
<glyph unicode="8" horiz-adv-x="1150" d="M111 377q0 223 206 340q-165 101 -165 295q0 158 118 264q120 108 305 108q188 0 308 -108q118 -106 118 -264q0 -195 -167 -295q208 -117 208 -340q0 -171 -131 -287q-133 -115 -336 -115q-202 0 -335 115q-129 117 -129 287zM330 387q0 -96 70 -159.5t175 -63.5 t176.5 63.5t71.5 159.5t-73 160q-71 65 -175 65q-103 0 -174 -65t-71 -160zM365 999q0 -82 61 -140t149 -58t149.5 57t61.5 141q0 86 -60 141.5t-151 55.5q-89 0 -149.5 -56t-60.5 -141z" />
<glyph unicode="9" horiz-adv-x="1103" d="M78 932q0 193 125 321q125 131 317 131q229 0 367 -159q139 -160 139 -387q0 -312 -192 -553q-194 -244 -490 -363l-84 184q419 183 514 502q-115 -112 -289 -112q-179 0 -292 125q-115 127 -115 311zM297 934q0 -113 64.5 -182.5t170.5 -69.5q86 0 161.5 43.5 t113.5 116.5q0 159 -69 256.5t-201 97.5q-107 0 -173.5 -74t-66.5 -188z" />
<glyph unicode=":" horiz-adv-x="512" d="M135 0v254h240v-254h-240zM135 782v254h240v-254h-240z" />
<glyph unicode=";" horiz-adv-x="512" d="M33 -270l106 524h234l-140 -524h-200zM135 782v254h238v-254h-238z" />
<glyph unicode="&#x3c;" d="M43 553v170l1038 414v-181l-800 -317l800 -320v-180z" />
<glyph unicode="=" d="M100 377v180h924v-180h-924zM100 719v180h924v-180h-924z" />
<glyph unicode="&#x3e;" d="M45 139v180l801 320l-801 317v181l1038 -414v-170z" />
<glyph unicode="?" horiz-adv-x="1110" d="M145 1034v15q0 179 121 294t293 115q174 0 291 -117q117 -114 117 -258q0 -181 -99 -280q-47 -47 -93 -76.5t-120 -64.5v-218h-221v334q85 30 128.5 49t90.5 52q105 71 105 198q0 81 -57 138t-142 57q-94 0 -149.5 -58t-55.5 -157v-23h-209zM426 0v254h238v-254h-238z " />
<glyph unicode="@" horiz-adv-x="1636" d="M109 424q0 296 204 500q206 206 496 206q320 0 518 -186q203 -185 203 -479q0 -182 -82 -307t-238 -125q-150 0 -206 160q-70 -125 -232 -125q-143 0 -231 98q-90 104 -90 248q0 139 88 243q88 107 235 107q111 0 201 -84v63h160v-313q0 -134 21.5 -187t66.5 -53 q64 0 98.5 76.5t34.5 194.5q0 230 -148 366q-144 138 -397 138q-224 0 -377 -156q-151 -154 -151 -383q0 -228 151 -385q150 -156 375 -156q124 0 248 62l65 -152q-149 -76 -315 -76q-289 0 -496 207q-202 205 -202 498zM612 412q0 -84 50 -141.5t133 -57.5q52 0 103 41 t77 108v148q-75 106 -176 106q-89 0 -138 -57.5t-49 -146.5z" />
<glyph unicode="A" horiz-adv-x="1355" d="M29 0l563 1434h186l547 -1434h-254l-106 295h-588l-107 -295h-241zM449 487h446l-221 613h-2z" />
<glyph unicode="B" horiz-adv-x="1261" d="M186 0v1434h351q241 0 383 -91q155 -101 155 -301q0 -209 -209 -292q269 -83 269 -338q0 -120 -63 -212.5t-177 -142.5q-134 -57 -377 -57h-332zM406 190h98q210 0 289 39q108 53 108 181q0 105 -74.5 167t-208.5 62h-212v-449zM406 829h126q324 0 324 203q0 113 -76 162 t-284 49h-90v-414z" />
<glyph unicode="C" horiz-adv-x="1380" d="M117 717q0 315 225 526q226 215 545 215q211 0 397 -119l-104 -168q-146 93 -293 93q-235 0 -385 -156q-152 -155 -152 -391q0 -249 148 -400q147 -147 389 -147q169 0 313 106l119 -161q-199 -140 -436 -140q-330 0 -547 205q-219 207 -219 537z" />
<glyph unicode="D" horiz-adv-x="1470" d="M186 0v1434h394q296 0 522 -160q118 -81 185 -224.5t67 -326.5q0 -188 -66.5 -333t-185.5 -228q-229 -162 -541 -162h-375zM406 193h59q324 0 489.5 122t165.5 390q0 259 -149.5 397.5t-425.5 138.5h-139v-1048z" />
<glyph unicode="E" horiz-adv-x="1187" d="M186 0v1434h875v-193h-655v-405h655v-193h-655v-450h655v-193h-875z" />
<glyph unicode="F" horiz-adv-x="1017" d="M186 0v1434h744v-193h-524v-444h524v-193h-524v-604h-220z" />
<glyph unicode="G" horiz-adv-x="1640" d="M117 717q0 315 225 526q226 215 545 215q338 0 565 -260l-154 -131q-173 197 -411 197q-235 0 -385 -156q-152 -155 -152 -391q0 -247 148 -398q149 -149 389 -149q224 0 377 147v293h-361v193h580v-549q-104 -134 -259.5 -206.5t-336.5 -72.5q-332 0 -551 207t-219 535z " />
<glyph unicode="H" horiz-adv-x="1533" d="M186 0v1434h220v-598h722v598h220v-1434h-220v643h-722v-643h-220z" />
<glyph unicode="I" horiz-adv-x="591" d="M186 0v1434h220v-1434h-220z" />
<glyph unicode="J" horiz-adv-x="700" d="M-45 25l63 178q62 -33 129 -33q93 0 127 49q31 42 31 176v1039h219v-1067q0 -186 -71 -281q-83 -111 -275 -111q-108 0 -223 50z" />
<glyph unicode="K" horiz-adv-x="1282" d="M186 0v1434h220v-697l573 697h268l-479 -570l504 -864h-256l-398 688l-212 -254v-434h-220z" />
<glyph unicode="L" horiz-adv-x="1030" d="M186 0v1434h220v-1241h614v-193h-834z" />
<glyph unicode="M" horiz-adv-x="1906" d="M186 0v1434h340l424 -1092l432 1092h338v-1434h-219v1171l-475 -1171h-154l-466 1171v-1171h-220z" />
<glyph unicode="N" horiz-adv-x="1542" d="M186 0v1434h193l758 -1028v1028h219v-1434h-195l-755 1028v-1028h-220z" />
<glyph unicode="O" horiz-adv-x="1716" d="M117 717q0 308 213 524q214 217 528 217q315 0 526 -217q215 -215 215 -524t-215 -527q-212 -215 -526 -215q-313 0 -528 215q-213 219 -213 527zM350 717q0 -233 144 -389q146 -158 364 -158q217 0 363 158q145 157 145 389t-145 389q-146 158 -363 158 q-218 0 -364 -158q-144 -156 -144 -389z" />
<glyph unicode="P" horiz-adv-x="1193" d="M186 0v1434h435q125 0 237 -41q119 -40 198 -144.5t79 -247.5q0 -92 -31 -167t-81.5 -124t-118 -82.5t-138.5 -48t-145 -14.5h-215v-565h-220zM406 758h165q330 0 330 237q0 114 -79.5 180t-211.5 66h-204v-483z" />
<glyph unicode="Q" horiz-adv-x="1716" d="M117 717q0 308 213 524q214 217 528 217q315 0 526 -217q215 -215 215 -524q0 -311 -213 -524l191 -189l-137 -137l-209 207q-169 -99 -373 -99q-313 0 -528 215q-213 219 -213 527zM350 717q0 -233 144 -389q146 -158 364 -158q124 0 223 51l-196 197l137 137l213 -213 q131 155 131 375q0 232 -145 389q-146 158 -363 158q-218 0 -364 -158q-144 -156 -144 -389z" />
<glyph unicode="R" horiz-adv-x="1265" d="M186 0v1434h432q121 0 230 -41q110 -41 188 -138q80 -95 80 -237q0 -161 -93 -264t-247 -140l451 -614h-275l-422 598h-124v-598h-220zM406 791h163q147 0 230.5 55.5t83.5 165.5q0 103 -76 166t-199 63h-202v-450z" />
<glyph unicode="S" horiz-adv-x="1247" d="M88 197l154 145q96 -96 179.5 -134t194.5 -38q121 0 199 60t78 171q0 80 -62 138q-26 26 -71 49q-67 35 -176 71q-166 59 -271 138q-129 97 -129 264q0 194 125 295q126 102 314 102q252 0 452 -153l-133 -158q-129 117 -299 117q-107 0 -173.5 -50t-66.5 -135 q0 -58 54 -112q26 -23 67 -41q52 -24 72 -31l88 -31q96 -34 125 -47q56 -20 117 -57q69 -41 104 -82q41 -45 68.5 -113t27.5 -143q0 -92 -32 -168.5t-83.5 -127t-119 -85.5t-137.5 -50.5t-140 -15.5q-299 0 -526 222z" />
<glyph unicode="T" horiz-adv-x="1001" d="M35 1241v193h932v-193h-357v-1241h-219v1241h-356z" />
<glyph unicode="U" horiz-adv-x="1476" d="M178 674v760h219v-807q0 -223 89 -340t251 -117q165 0 253.5 116.5t88.5 340.5v807h219v-760q0 -350 -137.5 -524.5t-427.5 -174.5q-284 0 -419.5 174.5t-135.5 524.5z" />
<glyph unicode="V" horiz-adv-x="1316" d="M10 1434h254l398 -1098h2l401 1098h242l-564 -1434h-186z" />
<glyph unicode="W" horiz-adv-x="1843" d="M10 1434h244l274 -1043h4l289 1043h207l277 -1043h4l286 1043h238l-410 -1434h-219l-280 1055h-4l-302 -1055h-212z" />
<glyph unicode="X" horiz-adv-x="1361" d="M8 0l527 727l-510 707h284l381 -533l379 533h274l-518 -707l529 -727h-281l-399 549l-389 -549h-277z" />
<glyph unicode="Y" horiz-adv-x="1163" d="M10 1434h273l303 -582h4l307 582h256l-467 -826v-608h-219v618z" />
<glyph unicode="Z" horiz-adv-x="1128" d="M78 0v117l659 1124h-643v193h944v-117l-657 -1124h709v-193h-1012z" />
<glyph unicode="[" horiz-adv-x="647" d="M174 -344v1878h453v-176h-260v-1528h260v-174h-453z" />
<glyph unicode="\" horiz-adv-x="763" d="M0 1499l168 64l596 -1610l-168 -66z" />
<glyph unicode="]" horiz-adv-x="647" d="M20 -170h261v1528h-261v176h453v-1878h-453v174z" />
<glyph unicode="^" d="M150 707l309 696h209l309 -696h-186l-228 489l-227 -489h-186z" />
<glyph unicode="_" d="M0 -328h1126v-147h-1126v147z" />
<glyph unicode="`" horiz-adv-x="737" d="M100 1499l150 117l258 -354l-127 -97z" />
<glyph unicode="a" horiz-adv-x="1132" d="M106 295q0 94 39 162.5t106.5 106.5t145.5 55.5t168 17.5q78 0 203 -23v31q0 240 -236 240q-155 0 -325 -92l-60 170q206 98 418 98q414 0 414 -432v-629h-195l-6 104q-114 -129 -303 -129q-153 0 -262 80q-107 82 -107 240zM313 305q0 -79 52.5 -120.5t140.5 -41.5 q123 0 262 115v209q-92 18 -176 18q-72 0 -127 -14q-62 -13 -107 -57t-45 -109z" />
<glyph unicode="b" horiz-adv-x="1290" d="M164 0v1536h211v-633q53 74 141.5 116t183.5 42q217 0 363 -158q145 -157 145 -387q0 -214 -145 -379q-143 -162 -367 -162q-91 0 -178 38t-149 104l-4 -117h-201zM375 315q50 -70 127.5 -109.5t159.5 -39.5q159 0 243 106q88 107 88 248q0 142 -90 246q-88 104 -237 104 q-90 0 -173 -49.5t-118 -134.5v-371z" />
<glyph unicode="c" horiz-adv-x="991" d="M82 518q0 229 156 385q158 158 383 158q174 0 311 -98l-103 -166q-94 73 -208 73q-136 0 -230 -104q-94 -101 -94 -248q0 -153 94 -254q94 -98 230 -98q120 0 215 74l106 -156q-127 -109 -330 -109q-229 0 -379 150q-151 151 -151 393z" />
<glyph unicode="d" horiz-adv-x="1290" d="M82 520q0 217 143 379t369 162q192 0 321 -135v610h211v-1536h-200l-6 137q-53 -77 -142 -119.5t-188 -42.5q-217 0 -363 158q-145 157 -145 387zM297 516q0 -141 90 -248q88 -102 238 -102q90 0 172.5 49.5t117.5 134.5v371q-50 70 -127.5 109.5t-158.5 39.5 q-159 0 -246 -106q-86 -109 -86 -248z" />
<glyph unicode="e" horiz-adv-x="1161" d="M82 516q0 231 147 387q152 158 369 158q210 0 344 -137q137 -137 137 -344q0 -57 -10 -115h-774q9 -132 94 -223q85 -88 219 -88q210 0 301 163l148 -96q-79 -127 -190 -186.5t-269 -59.5q-237 0 -377 152q-139 154 -139 389zM307 627h553q-6 108 -80 182q-70 76 -178 76 q-112 0 -188.5 -69.5t-106.5 -188.5z" />
<glyph unicode="f" horiz-adv-x="700" d="M84 854v182h117v133q0 179 67 273q82 119 281 119q108 0 217 -50l-61 -172q-64 31 -136 31q-71 0 -110 -33q-47 -44 -47 -186v-115h276v-182h-276v-854h-211v854h-117z" />
<glyph unicode="g" horiz-adv-x="1280" d="M82 532q0 216 143 371q146 158 369 158q91 0 179 -37.5t149 -103.5l4 116h200v-981q0 -167 -57 -272q-125 -242 -465 -242q-263 0 -465 140l82 178q75 -56 180 -91.5t197 -35.5q145 0 231 75t86 218v133q-53 -74 -141.5 -116t-183.5 -42q-219 0 -365 152 q-143 152 -143 380zM297 528q0 -140 90 -241q91 -97 238 -97q90 0 172 50t118 135v346q-50 70 -127.5 109.5t-158.5 39.5q-161 0 -246 -102q-86 -103 -86 -240z" />
<glyph unicode="h" horiz-adv-x="1247" d="M164 0v1536h211v-659q57 87 145 135.5t187 48.5q196 0 294 -131q93 -128 93 -391v-539h-211v520q0 195 -49 271q-49 79 -170 79q-82 0 -160 -49.5t-129 -134.5v-686h-211z" />
<glyph unicode="i" horiz-adv-x="538" d="M164 0v1036h211v-1036h-211zM164 1225v219h211v-219h-211z" />
<glyph unicode="j" horiz-adv-x="557" d="M-131 -414l59 170q54 -28 117 -28q82 0 108.5 50t26.5 167v1091h211v-1124q0 -138 -37 -213q-71 -158 -280 -158q-119 0 -205 45zM180 1225v219h211v-219h-211z" />
<glyph unicode="k" horiz-adv-x="1073" d="M164 0v1536h211v-995l4 -2l399 497h254l-366 -426l397 -610h-254l-283 446l-151 -176v-270h-211z" />
<glyph unicode="l" horiz-adv-x="538" d="M164 0v1536h211v-1536h-211z" />
<glyph unicode="m" horiz-adv-x="1888" d="M164 0v1036h201l4 -149q60 80 147 127t174 47q190 0 285 -141q11 -16 24 -46q132 187 357 187q189 0 284 -127t95 -395v-539h-211v520q0 197 -45 271q-49 79 -168 79q-69 0 -141 -42.5t-126 -114.5q11 -108 11 -174v-539h-211v520q0 208 -51 279q-47 71 -152 71 q-67 0 -140 -48t-126 -120v-702h-211z" />
<glyph unicode="n" horiz-adv-x="1247" d="M164 0v1036h201l6 -164q56 90 145.5 139.5t190.5 49.5q196 0 294 -131q93 -128 93 -391v-539h-211v520q0 195 -49 271q-49 79 -170 79q-82 0 -160 -49.5t-129 -134.5v-686h-211z" />
<glyph unicode="o" horiz-adv-x="1228" d="M82 518q0 228 151 385q152 158 381 158q227 0 379 -158q154 -157 154 -385q0 -230 -154 -387q-150 -156 -379 -156q-231 0 -381 156q-151 157 -151 387zM297 518q0 -146 90 -250q88 -102 227 -102q140 0 228 102q90 104 90 250t-90 250q-88 102 -228 102 q-139 0 -227 -102q-90 -104 -90 -250z" />
<glyph unicode="p" horiz-adv-x="1290" d="M164 -512v1548h201l6 -137q53 77 141.5 119.5t187.5 42.5q217 0 363 -158q145 -157 145 -387q0 -214 -145 -379q-143 -162 -367 -162q-191 0 -321 136v-623h-211zM375 315q50 -70 127.5 -109.5t159.5 -39.5q159 0 243 106q88 107 88 248q0 142 -90 246q-88 104 -237 104 q-90 0 -173 -49.5t-118 -134.5v-371z" />
<glyph unicode="q" horiz-adv-x="1290" d="M82 520q0 217 143 379t369 162q91 0 179 -37.5t149 -103.5l4 116h200v-1548h-211v645q-53 -74 -141.5 -116t-183.5 -42q-217 0 -363 158q-145 157 -145 387zM297 516q0 -141 90 -248q88 -102 238 -102q90 0 172.5 49.5t117.5 134.5v371q-50 70 -127.5 109.5t-158.5 39.5 q-159 0 -246 -106q-86 -109 -86 -248z" />
<glyph unicode="r" horiz-adv-x="739" d="M164 0v1036h201l6 -162q108 187 262 187q67 0 119 -14l-43 -213q-46 22 -99 22q-143 0 -235 -160v-696h-211z" />
<glyph unicode="s" horiz-adv-x="937" d="M78 141l139 121q106 -112 232 -112q76 0 124 37.5t48 103.5q0 38 -33 67q-29 30 -59 46t-105 45q-27 10 -63.5 26t-43.5 19q-33 17 -86 55q-96 69 -96 201q0 150 101 229q101 82 243 82q197 0 328 -119l-123 -133q-89 80 -205 80q-63 0 -102 -34t-39 -89q0 -35 31 -66 q30 -28 57 -42t102 -44q4 -1 23.5 -9t23 -9.5t19 -8t20.5 -9t17.5 -8.5t20 -10.5t18.5 -11t22 -13.5q139 -86 139 -232q0 -164 -110 -246q-107 -82 -270 -82q-235 0 -373 166z" />
<glyph unicode="t" horiz-adv-x="724" d="M41 854v182h135l10 244h201v-244h285v-182h-285v-451q0 -61 2 -81q5 -80 35.5 -118t95.5 -38q54 0 117 29l61 -166q-88 -49 -206 -49q-217 0 -285 176q-31 79 -31 204v494h-135z" />
<glyph unicode="u" horiz-adv-x="1247" d="M154 498v538h211v-520q0 -194 49 -270q50 -80 170 -80q82 0 159.5 49.5t128.5 134.5v686h211v-1036h-200l-6 164q-56 -90 -145.5 -139.5t-190.5 -49.5q-197 0 -295 131q-92 127 -92 392z" />
<glyph unicode="v" horiz-adv-x="1007" d="M14 1036h234l260 -768h4l258 768h227l-409 -1036h-180z" />
<glyph unicode="w" horiz-adv-x="1525" d="M29 1036h227l184 -764h4l218 764h212l201 -764h6l199 764h217l-301 -1036h-223l-209 754h-4l-213 -754h-232z" />
<glyph unicode="x" horiz-adv-x="1056" d="M12 0l389 520l-364 516h268l238 -352l237 352h258l-376 -506l380 -530h-270l-248 369l-250 -369h-262z" />
<glyph unicode="y" horiz-adv-x="1003" d="M10 1036h234l254 -745h4l262 745h229l-583 -1505l-187 74l164 434z" />
<glyph unicode="z" horiz-adv-x="944" d="M94 854v182h746v-94l-445 -760h479v-182h-757v96l442 758h-465z" />
<glyph unicode="{" horiz-adv-x="653" d="M16 528l4 181q160 38 160 286v152q0 181 105 295q105 117 274 117q37 0 72 -3v-178q-54 4 -58 4q-200 0 -200 -288v-154q0 -214 -135 -322q135 -114 135 -323v-197q0 -291 200 -291q4 0 12.5 1t21.5 2t24 2v-179q-23 -2 -72 -2q-169 0 -274 117q-105 114 -105 295v221 q0 107 -42 177t-122 87z" />
<glyph unicode="|" horiz-adv-x="653" d="M236 -348v2105h184v-2105h-184z" />
<glyph unicode="}" horiz-adv-x="653" d="M20 -188q11 -1 24 -2t21.5 -2t12.5 -1q201 0 201 291v197q0 209 135 323q-135 108 -135 322v154q0 288 -201 288q-4 0 -58 -4v178q34 3 72 3q170 0 275 -117q104 -113 104 -295v-152q0 -248 160 -286l4 -181q-80 -17 -122 -87t-42 -177v-221q0 -182 -104 -295 q-105 -117 -275 -117q-49 0 -72 2v179z" />
<glyph unicode="~" d="M59 596q0 121 78.5 192.5t206.5 71.5q68 0 137 -27t115 -65q123 -90 201 -90q39 0 69.5 26.5t30.5 63.5q0 21 -4 33l172 14q4 -36 4 -59q0 -120 -78.5 -192t-204.5 -72q-68 0 -136.5 26.5t-119.5 63.5q-115 92 -198 92q-42 0 -71.5 -26t-29.5 -64q0 -13 5 -33l-173 -14 q-4 36 -4 59z" />
<glyph unicode="&#xa1;" horiz-adv-x="653" d="M203 -162l22 754h205l21 -754v-235h-248v235zM207 782v254h239v-254h-239z" />
<glyph unicode="&#xa2;" d="M145 641q0 203 125 352q124 148 322 183v184h141v-180q144 -12 262 -95l-102 -165q-94 73 -209 73q-135 0 -229 -104q-93 -104 -93 -248q0 -151 95 -254q94 -98 227 -98q121 0 215 73l107 -157q-113 -90 -273 -105v-180h-141v182q-193 27 -322 174q-125 143 -125 365z " />
<glyph unicode="&#xa3;" d="M160 0v193h114v446h-114v188h114v101q0 199 119 327q120 129 303 129q180 0 314 -79l-88 -177q-77 68 -211 68q-226 0 -226 -317v-52h273v-188h-273v-446h521v-193h-846z" />
<glyph unicode="&#xa4;" d="M86 309l111 109q-78 113 -78 248q0 131 78 247l-111 111l119 119l110 -109q113 76 248 76t248 -76l111 109l118 -119l-110 -111q78 -116 78 -247q0 -135 -78 -248l110 -109l-118 -119l-111 109q-116 -78 -248 -78q-135 0 -248 78l-110 -109zM293 666q0 -112 78 -193 q81 -78 192 -78q113 0 191 78q80 80 80 193t-80 190q-77 80 -191 80q-112 0 -192 -80q-78 -78 -78 -190z" />
<glyph unicode="&#xa5;" d="M23 1360h245l299 -547h4l287 547h244l-383 -674h291v-162h-344v-127h344v-159h-346v-238h-211v238h-347v159h345v127h-345v162h293z" />
<glyph unicode="&#xa6;" horiz-adv-x="653" d="M236 373h184v-779h-184v779zM236 758v778h184v-778h-184z" />
<glyph unicode="&#xa7;" d="M92 -125l125 145q143 -131 324 -131q101 0 167 44t66 120q0 68 -86 115q-57 31 -178 65l-113 33q-37 11 -106 43q-92 43 -138 104t-53 162q0 213 197 302q-145 92 -145 247q0 161 116 246q119 88 285 88q220 0 373 -112l-117 -142q-121 80 -262 80q-80 0 -136.5 -36.5 t-56.5 -100.5q0 -67 84 -113q53 -27 88 -41l49 -16l109 -35q81 -27 133 -51.5t103 -63.5q112 -77 112 -227q0 -84 -51.5 -158.5t-140.5 -124.5q147 -83 147 -243q0 -181 -125 -269q-124 -92 -317 -92q-276 0 -453 162zM315 612q0 -29 13 -53t25.5 -36.5t41.5 -35.5 q40 -24 123 -49l148 -45q65 27 108 78t43 109q7 63 -80 118q-24 17 -119 52q-22 9 -73 24l-72 23q-73 -25 -115.5 -75t-42.5 -110z" />
<glyph unicode="&#xa8;" horiz-adv-x="737" d="M43 1225v219h215v-219h-215zM479 1225v219h215v-219h-215z" />
<glyph unicode="&#xa9;" horiz-adv-x="1636" d="M111 682q0 294 206 500q210 207 502 207q293 0 500 -207q209 -206 209 -500t-209 -500q-207 -207 -500 -207q-292 0 -502 207q-206 206 -206 500zM274 682q0 -222 160 -387q158 -162 385 -162t385 162q160 165 160 387q0 227 -160 387q-158 162 -385 162t-385 -162 q-160 -160 -160 -387zM436 682q0 163 117 274q119 113 287 113q110 0 219 -68l-78 -124q-71 45 -145 45q-100 0 -165 -68t-65 -172q0 -114 62 -178t168 -64q80 0 153 54l84 -123q-116 -78 -233 -78q-174 0 -289 106q-115 109 -115 283z" />
<glyph unicode="&#xaa;" horiz-adv-x="784" d="M74 989q0 116 85 173t224 57q55 0 129 -15v17q-3 147 -150 147q-103 0 -212 -59l-46 125q141 69 287 69q285 0 285 -295v-417h-146l-8 65q-70 -82 -198 -82q-107 0 -178.5 58t-71.5 157zM238 999q0 -50 32 -76t88 -26q71 0 154 68v135q-62 12 -102 12q-172 0 -172 -113z " />
<glyph unicode="&#xab;" horiz-adv-x="1114" d="M117 436v242l305 315l106 -188l-260 -250l260 -248l-106 -188zM586 436v242l305 315l106 -188l-260 -250l260 -248l-106 -188z" />
<glyph unicode="&#xac;" d="M47 688v180h1030v-608h-180v428h-850z" />
<glyph unicode="&#xad;" horiz-adv-x="935" d="M197 483v187h542v-187h-542z" />
<glyph unicode="&#xae;" horiz-adv-x="1177" d="M106 987q0 201 142 340q141 141 340 141q201 0 342 -141q141 -138 141 -340q0 -199 -141 -340q-142 -139 -342 -139q-198 0 -340 139q-142 142 -142 340zM240 987q0 -147 102 -252q102 -102 248 -102t248 102q102 105 102 252t-102 252q-101 104 -248 104t-248 -104 q-102 -105 -102 -252zM412 741v492h129q225 0 225 -150q0 -103 -96 -141l147 -201h-141l-125 181h-23v-181h-116zM528 1018q63 0 90 12.5t27 46.5q0 36 -24.5 49t-92.5 13v-121z" />
<glyph unicode="&#xaf;" horiz-adv-x="737" d="M53 1245v158h631v-158h-631z" />
<glyph unicode="&#xb0;" horiz-adv-x="946" d="M156 1108q0 130 92 219q92 92 223 92t223 -92q92 -89 92 -219q0 -129 -92 -221q-93 -90 -223 -90t-223 90q-92 92 -92 221zM309 1108q0 -70 47 -117t115 -47t115 47t47 117t-47 117t-115 47t-115 -47t-47 -117z" />
<glyph unicode="&#xb1;" d="M51 0v180h1024v-180h-1024zM51 713v180h422v422h180v-422h422v-180h-422v-422h-180v422h-422z" />
<glyph unicode="&#xb2;" horiz-adv-x="659" d="M55 1360q6 98 84 164q75 63 180 63q111 0 187 -61q80 -62 80 -162q0 -114 -82 -227q-84 -119 -221 -250h338v-135h-549v127q156 156 282 323q66 91 66 158q0 41 -29 66.5t-72 25.5q-45 0 -73.5 -32t-28.5 -85z" />
<glyph unicode="&#xb3;" horiz-adv-x="667" d="M33 901l131 64q46 -88 145 -88q56 0 92.5 30t36.5 82q0 56 -43 89.5t-112 33.5q-38 0 -74 -8v135q50 0 102 10q92 24 92 103q0 43 -31.5 71.5t-80.5 28.5q-92 0 -113 -84l-133 57q26 75 93 118.5t155 43.5q117 0 195.5 -61t78.5 -158q0 -118 -104 -176q65 -20 104 -76 t39 -125q0 -114 -83 -183t-210 -69q-93 0 -169 43t-111 119z" />
<glyph unicode="&#xb4;" horiz-adv-x="737" d="M229 1262l258 354l150 -117l-281 -334z" />
<glyph unicode="&#xb5;" d="M98 -512v1548h211v-520q0 -194 49 -270q50 -80 170 -80q82 0 160 49.5t129 134.5v686h211v-1036h-201l-6 164q-38 -67 -103.5 -112.5t-136.5 -63t-143 -11.5t-127 35v-524h-213z" />
<glyph unicode="&#xb6;" d="M80 1001q0 147 80 250q146 183 432 183h115v-1792h-209v929q-179 24 -299 129q-119 107 -119 301zM287 1001q0 -102 58.5 -163.5t152.5 -69.5v469q-94 -11 -152.5 -73t-58.5 -163zM817 -358v1792h209v-1792h-209z" />
<glyph unicode="&#xb7;" horiz-adv-x="512" d="M135 524v254h240v-254h-240z" />
<glyph unicode="&#xb8;" horiz-adv-x="819" d="M180 -186l90 213l121 -25l-49 -133l2 -2q44 33 96 33q73 0 128 -57t55 -138t-66 -147t-160 -66q-146 0 -217 127l121 59q24 -65 92 -65q36 0 61 25t25 61q0 39 -26 66.5t-64 27.5q-54 0 -78 -47z" />
<glyph unicode="&#xb9;" horiz-adv-x="448" d="M61 1339v146l175 90h106v-823h-162v639q-31 -15 -119 -52z" />
<glyph unicode="&#xba;" horiz-adv-x="839" d="M57 1139q0 152 103 258t260 106q159 0 260 -104q102 -105 102 -260t-102 -260t-260 -105q-155 0 -260 105q-103 109 -103 260zM225 1139q0 -94 54 -160q55 -64 141 -64q87 0 139 64q55 64 55 160q0 93 -55 157q-54 66 -139 66q-84 0 -141 -66q-54 -66 -54 -157z" />
<glyph unicode="&#xbb;" horiz-adv-x="1114" d="M117 307l260 246l-260 250l106 172l305 -299v-242l-305 -299zM586 307l260 246l-260 250l106 172l305 -299v-242l-305 -299z" />
<glyph unicode="&#xbc;" horiz-adv-x="1554" d="M170 61l1020 1399l121 -88l-1020 -1399zM201 1210v142l69 34l90 48h107v-742h-156v568q-78 -38 -110 -50zM813 178v133l315 426h158v-432h105v-127h-105v-178h-153v178h-320zM973 305h160v234q-121 -182 -160 -234z" />
<glyph unicode="&#xbd;" horiz-adv-x="1605" d="M170 61l1020 1399l121 -88l-1020 -1399zM201 1210v142l69 34l90 48h107v-742h-156v568q-78 -38 -110 -50zM924 545q6 91 76.5 149t170.5 58q98 0 168 -58q74 -56 73.5 -149t-79.5 -201q-64 -90 -186 -215h295v-129h-504v117q144 138 258 291q57 75 57 135q0 36 -24.5 57 t-63.5 21q-41 0 -64.5 -27.5t-23.5 -75.5z" />
<glyph unicode="&#xbe;" horiz-adv-x="1695" d="M162 834l129 59q35 -80 127 -80q49 0 79.5 26t30.5 72q0 49 -38 76t-101 27q-40 0 -61 -6v129q64 0 88 8q80 21 80 90q0 38 -26.5 61t-72.5 23q-76 0 -94 -76l-129 57q25 69 85.5 108.5t139.5 39.5q107 0 179.5 -55t72.5 -144q0 -45 -25.5 -88.5t-66.5 -66.5 q58 -24 92.5 -73.5t34.5 -111.5q0 -102 -76.5 -163.5t-189.5 -61.5q-86 0 -154.5 39t-103.5 111zM313 61l1018 1399l121 -88l-1018 -1399zM956 178v133l316 426h158v-432h102v-127h-102v-178h-154v178h-320zM1116 305h160v234q-121 -182 -160 -234z" />
<glyph unicode="&#xbf;" horiz-adv-x="1110" d="M143 -45q0 182 99 281q47 47 93 76.5t120 64.5v217h221v-334q-85 -30 -128 -49t-93 -53q-103 -71 -103 -197q0 -81 57 -137.5t142 -56.5q94 0 149.5 58t55.5 157v22h209v-14q0 -180 -121 -295t-293 -115q-174 0 -291 117q-117 114 -117 258zM446 784v254h238v-254h-238z " />
<glyph unicode="&#xc0;" horiz-adv-x="1355" d="M29 0l563 1434h186l547 -1434h-254l-106 295h-588l-107 -295h-241zM360 1772l119 149l340 -285l-96 -125zM449 487h446l-221 613h-2z" />
<glyph unicode="&#xc1;" horiz-adv-x="1355" d="M29 0l563 1434h186l547 -1434h-254l-106 295h-588l-107 -295h-241zM449 487h446l-221 613h-2zM537 1636l340 285l118 -149l-362 -261z" />
<glyph unicode="&#xc2;" horiz-adv-x="1355" d="M29 0l563 1434h186l547 -1434h-254l-106 295h-588l-107 -295h-241zM344 1616l227 270h228l221 -270l-125 -96l-211 223l-215 -223zM449 487h446l-221 613h-2z" />
<glyph unicode="&#xc3;" horiz-adv-x="1355" d="M29 0l563 1434h186l547 -1434h-254l-106 295h-588l-107 -295h-241zM354 1638q0 90 58 144.5t151 54.5q78 0 170 -63q95 -62 131 -62q27 0 45.5 15.5t18.5 41.5q0 17 -2 21l141 14q6 -24 6 -61q0 -90 -58 -144.5t-151 -54.5q-75 0 -170 62q-92 63 -131 63q-60 0 -63 -57 q0 -17 2 -21l-142 -14q-6 24 -6 61zM449 487h446l-221 613h-2z" />
<glyph unicode="&#xc4;" horiz-adv-x="1355" d="M29 0l563 1434h186l547 -1434h-254l-106 295h-588l-107 -295h-241zM291 1563v233h231v-233h-231zM449 487h446l-221 613h-2zM846 1563v233h231v-233h-231z" />
<glyph unicode="&#xc5;" horiz-adv-x="1355" d="M29 0l563 1434h186l547 -1434h-254l-106 295h-588l-107 -295h-241zM449 487h446l-221 613h-2zM487 1683.5q0 81.5 60 141.5t141 60t141 -60t60 -141.5t-60 -141.5t-141 -60t-141 60t-60 141.5zM599 1683.5q0 -37.5 26 -63.5t63.5 -26t63.5 26t26 63.5t-26 63.5t-63.5 26 t-63.5 -26t-26 -63.5z" />
<glyph unicode="&#xc6;" horiz-adv-x="2031" d="M-20 0l1050 1434h873v-193h-654v-405h654v-193h-654v-450h654v-193h-875v297h-565l-207 -297h-276zM594 487h434v621z" />
<glyph unicode="&#xc7;" horiz-adv-x="1380" d="M117 717q0 315 225 526q226 215 545 215q211 0 397 -119l-104 -168q-146 93 -293 93q-235 0 -385 -156q-152 -155 -152 -391q0 -249 148 -400q147 -147 389 -147q169 0 313 106l119 -161q-199 -140 -436 -140q-66 0 -115 9l-47 -115l4 -2q36 33 98 33q78 0 129.5 -56.5 t51.5 -138.5q0 -81 -66 -147t-160 -66q-146 0 -217 127l123 59q21 -65 90 -65q36 0 61 25t25 61q0 38 -23.5 66t-60.5 28q-57 0 -84 -47l-131 70l88 190q-238 64 -387 254q-145 192 -145 457z" />
<glyph unicode="&#xc8;" horiz-adv-x="1187" d="M186 0v1434h875v-193h-655v-405h655v-193h-655v-450h655v-193h-875zM346 1772l119 149l340 -285l-96 -125z" />
<glyph unicode="&#xc9;" horiz-adv-x="1187" d="M186 0v1434h875v-193h-655v-405h655v-193h-655v-450h655v-193h-875zM469 1636l340 285l119 -149l-363 -261z" />
<glyph unicode="&#xca;" horiz-adv-x="1187" d="M186 0v1434h875v-193h-655v-405h655v-193h-655v-450h655v-193h-875zM295 1616l227 270h228l221 -270l-125 -96l-211 223l-215 -223z" />
<glyph unicode="&#xcb;" horiz-adv-x="1187" d="M186 0v1434h875v-193h-655v-405h655v-193h-655v-450h655v-193h-875zM287 1563v233h229v-233h-229zM762 1563v233h229v-233h-229z" />
<glyph unicode="&#xcc;" horiz-adv-x="591" d="M-27 1772l119 149l340 -285l-96 -125zM186 0v1434h220v-1434h-220z" />
<glyph unicode="&#xcd;" horiz-adv-x="591" d="M168 1636l340 285l119 -149l-363 -261zM186 0v1434h220v-1434h-220z" />
<glyph unicode="&#xce;" horiz-adv-x="591" d="M-43 1616l227 270h228l221 -270l-125 -96l-211 223l-215 -223zM186 0v1434h220v-1434h-220z" />
<glyph unicode="&#xcf;" horiz-adv-x="591" d="M-55 1563v233h233v-233h-233zM186 0v1434h220v-1434h-220zM414 1563v233h233v-233h-233z" />
<glyph unicode="&#xd0;" horiz-adv-x="1470" d="M45 653v172h141v609h394q296 0 522 -160q118 -81 185 -224.5t67 -326.5q0 -188 -66.5 -333t-185.5 -228q-229 -162 -541 -162h-375v653h-141zM406 193h59q324 0 489.5 122t165.5 390q0 259 -149.5 397.5t-425.5 138.5h-139v-416h243v-172h-243v-460z" />
<glyph unicode="&#xd1;" horiz-adv-x="1542" d="M186 0v1434h193l758 -1028v1028h219v-1434h-195l-755 1028v-1028h-220zM430 1638q0 90 58 144.5t151 54.5q78 0 170 -63q95 -62 131 -62q27 0 45.5 15.5t18.5 41.5q0 15 -3 21l142 14q6 -24 6 -61q0 -90 -58 -144.5t-151 -54.5q-75 0 -170 62q-92 63 -131 63 q-61 0 -64 -57q0 -15 3 -21l-142 -14q-6 24 -6 61z" />
<glyph unicode="&#xd2;" horiz-adv-x="1716" d="M117 717q0 308 213 524q214 217 528 217q315 0 526 -217q215 -215 215 -524t-215 -527q-212 -215 -526 -215q-313 0 -528 215q-213 219 -213 527zM350 717q0 -233 144 -389q146 -158 364 -158q217 0 363 158q145 157 145 389t-145 389q-146 158 -363 158 q-218 0 -364 -158q-144 -156 -144 -389zM537 1772l118 149l340 -285l-96 -125z" />
<glyph unicode="&#xd3;" horiz-adv-x="1716" d="M117 717q0 308 213 524q214 217 528 217q315 0 526 -217q215 -215 215 -524t-215 -527q-212 -215 -526 -215q-313 0 -528 215q-213 219 -213 527zM350 717q0 -233 144 -389q146 -158 364 -158q217 0 363 158q145 157 145 389t-145 389q-146 158 -363 158 q-218 0 -364 -158q-144 -156 -144 -389zM729 1636l340 285l119 -149l-363 -261z" />
<glyph unicode="&#xd4;" horiz-adv-x="1716" d="M117 717q0 308 213 524q214 217 528 217q315 0 526 -217q215 -215 215 -524t-215 -527q-212 -215 -526 -215q-313 0 -528 215q-213 219 -213 527zM350 717q0 -233 144 -389q146 -158 364 -158q217 0 363 158q145 157 145 389t-145 389q-146 158 -363 158 q-218 0 -364 -158q-144 -156 -144 -389zM518 1616l227 270h228l221 -270l-125 -96l-211 223l-215 -223z" />
<glyph unicode="&#xd5;" horiz-adv-x="1716" d="M117 717q0 308 213 524q214 217 528 217q315 0 526 -217q215 -215 215 -524t-215 -527q-212 -215 -526 -215q-313 0 -528 215q-213 219 -213 527zM350 717q0 -233 144 -389q146 -158 364 -158q217 0 363 158q145 157 145 389t-145 389q-146 158 -363 158 q-218 0 -364 -158q-144 -156 -144 -389zM541 1638q0 90 58 144.5t151 54.5q78 0 170 -63q95 -62 131 -62q27 0 45 15.5t18 41.5q0 17 -2 21l141 14q7 -28 7 -61q0 -90 -58 -144.5t-151 -54.5q-75 0 -170 62q-92 63 -131 63q-61 0 -64 -57q0 -17 2 -21l-141 -14q-6 24 -6 61z " />
<glyph unicode="&#xd6;" horiz-adv-x="1716" d="M117 717q0 308 213 524q214 217 528 217q315 0 526 -217q215 -215 215 -524t-215 -527q-212 -215 -526 -215q-313 0 -528 215q-213 219 -213 527zM350 717q0 -233 144 -389q146 -158 364 -158q217 0 363 158q145 157 145 389t-145 389q-146 158 -363 158 q-218 0 -364 -158q-144 -156 -144 -389zM465 1563v233h231v-233h-231zM1020 1563v233h231v-233h-231z" />
<glyph unicode="&#xd7;" d="M137 338l299 299l-299 299l127 127l299 -299l299 299l127 -127l-299 -299l299 -299l-127 -127l-299 299l-299 -299z" />
<glyph unicode="&#xd8;" horiz-adv-x="1716" d="M117 717q0 308 213 524q214 217 528 217q173 0 332 -78l59 88l150 -96l-60 -88q124 -105 192 -253t68 -314q0 -309 -215 -527q-212 -215 -526 -215q-180 0 -346 84l-68 -100l-151 94l72 107q-118 104 -183 248.5t-65 308.5zM350 717q0 -229 135 -379l592 874 q-101 52 -219 52q-218 0 -364 -158q-144 -156 -144 -389zM625 227q102 -57 233 -57q217 0 363 158q145 157 145 389q0 234 -145 391z" />
<glyph unicode="&#xd9;" horiz-adv-x="1476" d="M178 674v760h219v-807q0 -223 89 -340t251 -117q165 0 253.5 116.5t88.5 340.5v807h219v-760q0 -350 -137.5 -524.5t-427.5 -174.5q-284 0 -419.5 174.5t-135.5 524.5zM416 1772l119 149l339 -285l-96 -125z" />
<glyph unicode="&#xda;" horiz-adv-x="1476" d="M178 674v760h219v-807q0 -223 89 -340t251 -117q165 0 253.5 116.5t88.5 340.5v807h219v-760q0 -350 -137.5 -524.5t-427.5 -174.5q-284 0 -419.5 174.5t-135.5 524.5zM602 1636l340 285l119 -149l-363 -261z" />
<glyph unicode="&#xdb;" horiz-adv-x="1476" d="M178 674v760h219v-807q0 -223 89 -340t251 -117q165 0 253.5 116.5t88.5 340.5v807h219v-760q0 -350 -137.5 -524.5t-427.5 -174.5q-284 0 -419.5 174.5t-135.5 524.5zM414 1616l227 270h227l222 -270l-125 -96l-211 223l-215 -223z" />
<glyph unicode="&#xdc;" horiz-adv-x="1476" d="M178 674v760h219v-807q0 -223 89 -340t251 -117q165 0 253.5 116.5t88.5 340.5v807h219v-760q0 -350 -137.5 -524.5t-427.5 -174.5q-284 0 -419.5 174.5t-135.5 524.5zM344 1563v233h231v-233h-231zM899 1563v233h231v-233h-231z" />
<glyph unicode="&#xdd;" horiz-adv-x="1163" d="M10 1434h273l303 -582h4l307 582h256l-467 -826v-608h-219v618zM434 1636l340 285l119 -149l-363 -261z" />
<glyph unicode="&#xde;" horiz-adv-x="1226" d="M186 0v1434h220v-275h215q125 0 237 -41q119 -41 198 -144.5t79 -246.5q0 -92 -31 -167t-81.5 -124t-118 -82.5t-138.5 -48t-145 -14.5h-215v-291h-220zM406 483h165q330 0 330 238q0 114 -79.5 180t-211.5 66h-204v-484z" />
<glyph unicode="&#xdf;" horiz-adv-x="1288" d="M158 0v1104q0 205 133 332q131 125 330 125q193 0 323 -115q129 -114 129 -301q0 -83 -41 -158t-110 -123q132 -45 205 -151t73 -262q0 -213 -141 -345q-140 -131 -350 -131q-119 0 -213 52l71 176q62 -39 144 -39q134 0 205 77t71 210q0 144 -90 222.5t-242 78.5 q-52 0 -92 -4v165h45q97 0 174 62q80 65 80 164q0 104 -65.5 168.5t-171.5 64.5q-126 0 -192 -79.5t-66 -227.5v-1065h-209z" />
<glyph unicode="&#xe0;" horiz-adv-x="1132" d="M106 295q0 94 39 162.5t106.5 106.5t145.5 55.5t168 17.5q78 0 203 -23v31q0 240 -236 240q-155 0 -325 -92l-60 170q206 98 418 98q414 0 414 -432v-629h-195l-6 104q-114 -129 -303 -129q-153 0 -262 80q-107 82 -107 240zM272 1499l150 117l258 -354l-127 -97z M313 305q0 -79 52.5 -120.5t140.5 -41.5q123 0 262 115v209q-92 18 -176 18q-72 0 -127 -14q-62 -13 -107 -57t-45 -109z" />
<glyph unicode="&#xe1;" horiz-adv-x="1132" d="M106 295q0 94 39 162.5t106.5 106.5t145.5 55.5t168 17.5q78 0 203 -23v31q0 240 -236 240q-155 0 -325 -92l-60 170q206 98 418 98q414 0 414 -432v-629h-195l-6 104q-114 -129 -303 -129q-153 0 -262 80q-107 82 -107 240zM313 305q0 -79 52.5 -120.5t140.5 -41.5 q123 0 262 115v209q-92 18 -176 18q-72 0 -127 -14q-62 -13 -107 -57t-45 -109zM434 1262l258 354l150 -117l-281 -334z" />
<glyph unicode="&#xe2;" horiz-adv-x="1132" d="M106 295q0 94 39 162.5t106.5 106.5t145.5 55.5t168 17.5q78 0 203 -23v31q0 240 -236 240q-155 0 -325 -92l-60 170q206 98 418 98q414 0 414 -432v-629h-195l-6 104q-114 -129 -303 -129q-153 0 -262 80q-107 82 -107 240zM215 1249l215 344h213l211 -344l-123 -80 l-196 277l-195 -277zM313 305q0 -79 52.5 -120.5t140.5 -41.5q123 0 262 115v209q-92 18 -176 18q-72 0 -127 -14q-62 -13 -107 -57t-45 -109z" />
<glyph unicode="&#xe3;" horiz-adv-x="1132" d="M106 295q0 94 39 162.5t106.5 106.5t145.5 55.5t168 17.5q78 0 203 -23v31q0 240 -236 240q-155 0 -325 -92l-60 170q206 98 418 98q414 0 414 -432v-629h-195l-6 104q-114 -129 -303 -129q-153 0 -262 80q-107 82 -107 240zM190 1278q0 90 59 144.5t152 54.5 q78 0 172 -64q94 -61 129 -61q61 0 64 59q0 15 -2 19l141 14q8 -24 8 -53q0 -90 -59 -144.5t-152 -54.5q-80 0 -174 61q-94 64 -127 64q-60 0 -63 -60q0 -14 2 -18l-141 -14q-9 27 -9 53zM313 305q0 -79 52.5 -120.5t140.5 -41.5q123 0 262 115v209q-92 18 -176 18 q-72 0 -127 -14q-62 -13 -107 -57t-45 -109z" />
<glyph unicode="&#xe4;" horiz-adv-x="1132" d="M106 295q0 94 39 162.5t106.5 106.5t145.5 55.5t168 17.5q78 0 203 -23v31q0 240 -236 240q-155 0 -325 -92l-60 170q206 98 418 98q414 0 414 -432v-629h-195l-6 104q-114 -129 -303 -129q-153 0 -262 80q-107 82 -107 240zM223 1225v219h215v-219h-215zM313 305 q0 -79 52.5 -120.5t140.5 -41.5q123 0 262 115v209q-92 18 -176 18q-72 0 -127 -14q-62 -13 -107 -57t-45 -109zM659 1225v219h215v-219h-215z" />
<glyph unicode="&#xe5;" horiz-adv-x="1132" d="M106 295q0 94 39 162.5t106.5 106.5t145.5 55.5t168 17.5q78 0 203 -23v31q0 240 -236 240q-155 0 -325 -92l-60 170q206 98 418 98q414 0 414 -432v-629h-195l-6 104q-114 -129 -303 -129q-153 0 -262 80q-107 82 -107 240zM313 305q0 -79 52.5 -120.5t140.5 -41.5 q123 0 262 115v209q-92 18 -176 18q-72 0 -127 -14q-62 -13 -107 -57t-45 -109zM356 1364q0 81 60 141t141 60t141 -60t60 -141t-60 -141t-141 -60t-141 60t-60 141zM468 1363.5q0 -37.5 26 -63.5t63.5 -26t63.5 26t26 63.5t-26 63.5t-63.5 26t-63.5 -26t-26 -63.5z" />
<glyph unicode="&#xe6;" horiz-adv-x="1839" d="M106 295q0 94 39 162.5t106.5 106.5t145.5 55.5t168 17.5q78 0 203 -23v31q0 240 -236 240q-155 0 -325 -92l-60 170q206 98 418 98q253 0 348 -164q144 164 365 164q208 0 342 -137q137 -137 137 -344q0 -57 -10 -115h-774q12 -134 97.5 -222.5t217.5 -88.5 q208 0 299 163l150 -96q-82 -128 -191.5 -187t-267.5 -59q-256 0 -397 172q-156 -172 -406 -172q-153 0 -262 80q-107 82 -107 240zM313 305q0 -79 52.5 -120.5t140.5 -41.5q160 0 293 148q-31 88 -39 176q-83 18 -168 18q-72 0 -127 -14q-62 -13 -107 -57t-45 -109z M985 627h553q-6 108 -80 182q-70 76 -178 76q-112 0 -188.5 -69.5t-106.5 -188.5z" />
<glyph unicode="&#xe7;" horiz-adv-x="991" d="M82 518q0 229 156 385q158 158 383 158q174 0 311 -98l-103 -166q-94 73 -208 73q-136 0 -230 -104q-94 -101 -94 -248q0 -153 94 -254q94 -98 230 -98q120 0 215 74l106 -156q-127 -109 -330 -109q-29 0 -37 2l-40 -108l2 -2q44 33 98 33q73 0 126.5 -57t53.5 -138 q0 -82 -65 -147q-66 -66 -160 -66q-146 0 -217 127l123 59q21 -65 90 -65q36 0 61 25t25 61q0 38 -25.5 66t-62.5 28q-56 0 -80 -47l-131 68l78 184q-168 48 -268.5 187.5t-100.5 332.5z" />
<glyph unicode="&#xe8;" horiz-adv-x="1161" d="M82 516q0 231 147 387q152 158 369 158q210 0 344 -137q137 -137 137 -344q0 -57 -10 -115h-774q9 -132 94 -223q85 -88 219 -88q210 0 301 163l148 -96q-79 -127 -190 -186.5t-269 -59.5q-237 0 -377 152q-139 154 -139 389zM303 1499l150 117l258 -354l-127 -97z M307 627h553q-6 108 -80 182q-70 76 -178 76q-112 0 -188.5 -69.5t-106.5 -188.5z" />
<glyph unicode="&#xe9;" horiz-adv-x="1161" d="M82 516q0 231 147 387q152 158 369 158q210 0 344 -137q137 -137 137 -344q0 -57 -10 -115h-774q9 -132 94 -223q85 -88 219 -88q210 0 301 163l148 -96q-79 -127 -190 -186.5t-269 -59.5q-237 0 -377 152q-139 154 -139 389zM307 627h553q-6 108 -80 182q-70 76 -178 76 q-112 0 -188.5 -69.5t-106.5 -188.5zM498 1262l258 354l149 -117l-280 -334z" />
<glyph unicode="&#xea;" horiz-adv-x="1161" d="M82 516q0 231 147 387q152 158 369 158q210 0 344 -137q137 -137 137 -344q0 -57 -10 -115h-774q9 -132 94 -223q85 -88 219 -88q210 0 301 163l148 -96q-79 -127 -190 -186.5t-269 -59.5q-237 0 -377 152q-139 154 -139 389zM279 1249l215 344h213l211 -344l-123 -80 l-197 277l-195 -277zM307 627h553q-6 108 -80 182q-70 76 -178 76q-112 0 -188.5 -69.5t-106.5 -188.5z" />
<glyph unicode="&#xeb;" horiz-adv-x="1161" d="M82 516q0 231 147 387q152 158 369 158q210 0 344 -137q137 -137 137 -344q0 -57 -10 -115h-774q9 -132 94 -223q85 -88 219 -88q210 0 301 163l148 -96q-79 -127 -190 -186.5t-269 -59.5q-237 0 -377 152q-139 154 -139 389zM274 1225v219h215v-219h-215zM307 627h553 q-6 108 -80 182q-70 76 -178 76q-112 0 -188.5 -69.5t-106.5 -188.5zM711 1225v219h215v-219h-215z" />
<glyph unicode="&#xec;" horiz-adv-x="538" d="M-33 1499l150 117l258 -354l-127 -97zM164 0v1036h211v-1036h-211z" />
<glyph unicode="&#xed;" horiz-adv-x="538" d="M162 1262l258 354l149 -117l-280 -334zM164 0v1036h211v-1036h-211z" />
<glyph unicode="&#xee;" horiz-adv-x="538" d="M-51 1249l215 344h213l211 -344l-123 -80l-197 277l-194 -277zM164 0v1036h211v-1036h-211z" />
<glyph unicode="&#xef;" horiz-adv-x="538" d="M-47 1225v219h215v-219h-215zM164 0v1036h211v-1036h-211zM375 1225v219h215v-219h-215z" />
<glyph unicode="&#xf0;" horiz-adv-x="1189" d="M82 483q0 199 133 338q137 140 328 140q127 0 250 -66q-109 184 -320 324l-113 -195l-141 84l111 192q-79 45 -195 91l78 178q65 -29 211 -101l106 189l146 -82l-107 -186q539 -342 539 -900q0 -213 -145 -364q-144 -150 -385 -150q-221 0 -359 150q-137 149 -137 358z M293 481q0 -133 84 -229q85 -94 217 -94q149 0 226 96t77 256q0 83 -31 201q-116 67 -258 67q-139 0 -227 -79.5t-88 -217.5z" />
<glyph unicode="&#xf1;" horiz-adv-x="1247" d="M164 0v1036h201l6 -164q56 90 145.5 139.5t190.5 49.5q196 0 294 -131q93 -128 93 -391v-539h-211v520q0 195 -49 271q-49 79 -170 79q-82 0 -160 -49.5t-129 -134.5v-686h-211zM305 1278q0 90 59 144.5t152 54.5q78 0 172 -64q94 -61 129 -61q61 0 64 59q0 15 -2 19 l141 14q8 -24 8 -53q0 -90 -59 -144.5t-152 -54.5q-80 0 -174 61q-94 64 -127 64q-60 0 -63 -60q0 -14 2 -18l-142 -14q-8 24 -8 53z" />
<glyph unicode="&#xf2;" horiz-adv-x="1228" d="M82 518q0 228 151 385q152 158 381 158q227 0 379 -158q154 -157 154 -385q0 -230 -154 -387q-150 -156 -379 -156q-231 0 -381 156q-151 157 -151 387zM295 1499l149 117l258 -354l-127 -97zM297 518q0 -146 90 -250q88 -102 227 -102q140 0 228 102q90 104 90 250 t-90 250q-88 102 -228 102q-139 0 -227 -102q-90 -104 -90 -250z" />
<glyph unicode="&#xf3;" horiz-adv-x="1228" d="M82 518q0 228 151 385q152 158 381 158q227 0 379 -158q154 -157 154 -385q0 -230 -154 -387q-150 -156 -379 -156q-231 0 -381 156q-151 157 -151 387zM297 518q0 -146 90 -250q88 -102 227 -102q140 0 228 102q90 104 90 250t-90 250q-88 102 -228 102 q-139 0 -227 -102q-90 -104 -90 -250zM516 1262l258 354l150 -117l-281 -334z" />
<glyph unicode="&#xf4;" horiz-adv-x="1228" d="M82 518q0 228 151 385q152 158 381 158q227 0 379 -158q154 -157 154 -385q0 -230 -154 -387q-150 -156 -379 -156q-231 0 -381 156q-151 157 -151 387zM293 1249l215 344h213l211 -344l-123 -80l-197 277l-194 -277zM297 518q0 -146 90 -250q88 -102 227 -102 q140 0 228 102q90 104 90 250t-90 250q-88 102 -228 102q-139 0 -227 -102q-90 -104 -90 -250z" />
<glyph unicode="&#xf5;" horiz-adv-x="1228" d="M82 518q0 228 151 385q152 158 381 158q227 0 379 -158q154 -157 154 -385q0 -230 -154 -387q-150 -156 -379 -156q-231 0 -381 156q-151 157 -151 387zM270 1278q0 90 59 144.5t152 54.5q78 0 172 -64q94 -61 129 -61q61 0 64 59q0 15 -2 19l141 14q8 -24 8 -53 q0 -90 -59 -144.5t-152 -54.5q-80 0 -174 61q-94 64 -127 64q-60 0 -63 -60q0 -14 2 -18l-141 -14q-9 27 -9 53zM297 518q0 -146 90 -250q88 -102 227 -102q140 0 228 102q90 104 90 250t-90 250q-88 102 -228 102q-139 0 -227 -102q-90 -104 -90 -250z" />
<glyph unicode="&#xf6;" horiz-adv-x="1228" d="M82 518q0 228 151 385q152 158 381 158q227 0 379 -158q154 -157 154 -385q0 -230 -154 -387q-150 -156 -379 -156q-231 0 -381 156q-151 157 -151 387zM289 1225v219h215v-219h-215zM297 518q0 -146 90 -250q88 -102 227 -102q140 0 228 102q90 104 90 250t-90 250 q-88 102 -228 102q-139 0 -227 -102q-90 -104 -90 -250zM725 1225v219h215v-219h-215z" />
<glyph unicode="&#xf7;" d="M49 549v178h1026v-178h-1026zM442 113v254h240v-254h-240zM442 909v254h240v-254h-240z" />
<glyph unicode="&#xf8;" horiz-adv-x="1228" d="M82 518q0 228 151 385q152 158 381 158q132 0 236 -55l51 75l121 -77l-53 -76q178 -163 178 -410q0 -230 -154 -387q-150 -156 -379 -156q-130 0 -247 60l-56 -82l-121 78l60 86q-168 155 -168 401zM297 518q0 -131 70 -225l372 549q-54 28 -125 28q-139 0 -227 -102 q-90 -104 -90 -250zM477 199q56 -33 137 -33q140 0 228 102q90 104 90 250q0 141 -80 236z" />
<glyph unicode="&#xf9;" horiz-adv-x="1247" d="M154 498v538h211v-520q0 -194 49 -270q50 -80 170 -80q82 0 159.5 49.5t128.5 134.5v686h211v-1036h-200l-6 164q-56 -90 -145.5 -139.5t-190.5 -49.5q-197 0 -295 131q-92 127 -92 392zM344 1499l150 117l258 -354l-127 -97z" />
<glyph unicode="&#xfa;" horiz-adv-x="1247" d="M154 498v538h211v-520q0 -194 49 -270q50 -80 170 -80q82 0 159.5 49.5t128.5 134.5v686h211v-1036h-200l-6 164q-56 -90 -145.5 -139.5t-190.5 -49.5q-197 0 -295 131q-92 127 -92 392zM516 1262l258 354l150 -117l-281 -334z" />
<glyph unicode="&#xfb;" horiz-adv-x="1247" d="M154 498v538h211v-520q0 -194 49 -270q50 -80 170 -80q82 0 159.5 49.5t128.5 134.5v686h211v-1036h-200l-6 164q-56 -90 -145.5 -139.5t-190.5 -49.5q-197 0 -295 131q-92 127 -92 392zM311 1249l215 344h213l211 -344l-123 -80l-196 277l-195 -277z" />
<glyph unicode="&#xfc;" horiz-adv-x="1247" d="M154 498v538h211v-520q0 -194 49 -270q50 -80 170 -80q82 0 159.5 49.5t128.5 134.5v686h211v-1036h-200l-6 164q-56 -90 -145.5 -139.5t-190.5 -49.5q-197 0 -295 131q-92 127 -92 392zM293 1225v219h215v-219h-215zM729 1225v219h215v-219h-215z" />
<glyph unicode="&#xfd;" horiz-adv-x="1003" d="M10 1036h234l254 -745h4l262 745h229l-583 -1505l-187 74l164 434zM371 1262l258 354l149 -117l-280 -334z" />
<glyph unicode="&#xfe;" horiz-adv-x="1290" d="M164 -512v2048h213v-631q53 74 140 115t183 41q217 0 363 -158q145 -157 145 -387q0 -214 -145 -379q-143 -162 -367 -162q-191 0 -319 134v-621h-213zM377 313q50 -70 126.5 -108.5t158.5 -38.5q159 0 243 106q88 107 88 248q0 142 -90 246q-88 104 -237 104 q-90 0 -172 -48.5t-117 -133.5v-375z" />
<glyph unicode="&#xff;" horiz-adv-x="1003" d="M10 1036h234l254 -745h4l262 745h229l-583 -1505l-187 74l164 434zM180 1225v219h215v-219h-215zM616 1225v219h215v-219h-215z" />
<glyph unicode="&#x152;" horiz-adv-x="2172" d="M117 717q0 308 213 524q214 217 528 217q173 0 313 -88v64h875v-193h-655v-405h655v-193h-655v-450h655v-193h-875v66q-139 -91 -313 -91q-313 0 -528 215q-213 219 -213 527zM350 717q0 -233 144 -389q146 -158 364 -158q175 0 313 111v872q-138 111 -313 111 q-218 0 -364 -158q-144 -156 -144 -389z" />
<glyph unicode="&#x153;" horiz-adv-x="2000" d="M82 518q0 228 151 385q152 158 381 158q273 0 418 -219q145 219 406 219q210 0 344 -137q137 -137 137 -344q0 -57 -10 -115h-774q9 -132 94 -223q85 -88 219 -88q210 0 301 163l147 -96q-80 -128 -190 -187t-268 -59q-280 0 -412 211q-68 -99 -175.5 -155t-236.5 -56 q-231 0 -381 156q-151 157 -151 387zM297 518q0 -146 90 -250q88 -102 227 -102q140 0 228 102q90 104 90 250t-90 250q-88 102 -228 102q-139 0 -227 -102q-90 -104 -90 -250zM1147 627h553q-6 108 -80 182q-70 76 -178 76q-112 0 -188.5 -69.5t-106.5 -188.5z" />
<glyph unicode="&#x178;" horiz-adv-x="1163" d="M10 1434h273l303 -582h4l307 582h256l-467 -826v-608h-221v618zM238 1563v233h229v-233h-229zM727 1563v233h229v-233h-229z" />
<glyph unicode="&#x2c6;" horiz-adv-x="737" d="M47 1249l215 344h213l211 -344l-123 -80l-196 277l-195 -277z" />
<glyph unicode="&#x2dc;" horiz-adv-x="737" d="M8 1278q0 90 59 144.5t152 54.5q78 0 172 -64q94 -61 129 -61q61 0 64 59q0 15 -2 19l141 14q8 -24 8 -53q0 -90 -59 -144.5t-152 -54.5q-80 0 -174 61q-94 64 -127 64q-60 0 -63 -60q0 -14 2 -18l-142 -14q-8 24 -8 53z" />
<glyph unicode="&#x2000;" horiz-adv-x="960" />
<glyph unicode="&#x2001;" horiz-adv-x="1921" />
<glyph unicode="&#x2002;" horiz-adv-x="960" />
<glyph unicode="&#x2003;" horiz-adv-x="1921" />
<glyph unicode="&#x2004;" horiz-adv-x="640" />
<glyph unicode="&#x2005;" horiz-adv-x="480" />
<glyph unicode="&#x2006;" horiz-adv-x="320" />
<glyph unicode="&#x2007;" horiz-adv-x="320" />
<glyph unicode="&#x2008;" horiz-adv-x="240" />
<glyph unicode="&#x2009;" horiz-adv-x="384" />
<glyph unicode="&#x200a;" horiz-adv-x="106" />
<glyph unicode="&#x2010;" horiz-adv-x="935" d="M197 483v187h542v-187h-542z" />
<glyph unicode="&#x2011;" horiz-adv-x="935" d="M197 483v187h542v-187h-542z" />
<glyph unicode="&#x2012;" horiz-adv-x="935" d="M197 483v187h542v-187h-542z" />
<glyph unicode="&#x2013;" horiz-adv-x="1228" d="M102 543v188h1024v-188h-1024z" />
<glyph unicode="&#x2014;" horiz-adv-x="1843" d="M102 543v188h1639v-188h-1639z" />
<glyph unicode="&#x2018;" horiz-adv-x="575" d="M117 909l139 525h201l-107 -525h-233z" />
<glyph unicode="&#x2019;" horiz-adv-x="575" d="M117 909l106 525h234l-140 -525h-200z" />
<glyph unicode="&#x201a;" horiz-adv-x="575" d="M117 -270l106 524h234l-140 -524h-200z" />
<glyph unicode="&#x201c;" horiz-adv-x="1089" d="M158 909l139 525h201l-107 -525h-233zM592 909l139 525h201l-107 -525h-233z" />
<glyph unicode="&#x201d;" horiz-adv-x="1089" d="M158 909l106 525h234l-140 -525h-200zM592 909l106 525h234l-139 -525h-201z" />
<glyph unicode="&#x201e;" horiz-adv-x="1089" d="M158 -270l106 524h234l-140 -524h-200zM592 -270l106 524h234l-139 -524h-201z" />
<glyph unicode="&#x2022;" horiz-adv-x="671" d="M72 592q0 108 78 186t186 78t186 -78t78 -186t-78 -186t-186 -78t-186 78t-78 186z" />
<glyph unicode="&#x2026;" horiz-adv-x="1536" d="M139 0v254h240v-254h-240zM647 0v254h240v-254h-240zM1159 0v254h240v-254h-240z" />
<glyph unicode="&#x202f;" horiz-adv-x="384" />
<glyph unicode="&#x2039;" horiz-adv-x="647" d="M117 436v242l305 315l106 -188l-260 -250l260 -248l-106 -188z" />
<glyph unicode="&#x203a;" horiz-adv-x="647" d="M117 307l260 246l-260 250l106 188l305 -315v-242l-305 -317z" />
<glyph unicode="&#x205f;" horiz-adv-x="480" />
<glyph unicode="&#x20ac;" horiz-adv-x="1331" d="M23 440v162h149q-4 66 -4 78q0 10 4 80h-149v162h182q71 216 248 338q176 124 413 124q219 0 396 -110l-97 -166q-125 88 -297 88q-155 0 -268.5 -71.5t-169.5 -202.5h541v-162h-584q-4 -70 -4 -80q0 -46 4 -78h584v-162h-543q56 -131 170.5 -202.5t269.5 -71.5 q182 0 316 98l112 -155q-190 -134 -432 -134q-236 0 -415 123q-179 126 -246 342h-180z" />
<glyph unicode="&#x2122;" horiz-adv-x="2007" d="M156 1288v146h567v-146h-201v-696h-166v696h-200zM858 592v842h258l236 -613l241 613h258v-842h-165v647l-265 -647h-139l-258 647v-647h-166z" />
<glyph unicode="&#x25fc;" horiz-adv-x="1034" d="M0 0v1034h1034v-1034h-1034z" />
</font>
</defs>
</svg>
