<?xml version="1.0" standalone="no"?>
<!DOCTYPE svg PUBLIC "-//W3C//DTD SVG 1.1//EN" "http://www.w3.org/Graphics/SVG/1.1/DTD/svg11.dtd" >
<svg xmlns="http://www.w3.org/2000/svg" xmlns:xlink="http://www.w3.org/1999/xlink" version="1.1">
<metadata></metadata>
<defs>
<font id="soleilsemibold" horiz-adv-x="1126" >
<font-face units-per-em="2048" ascent="1542" descent="-506" />
<missing-glyph horiz-adv-x="512" />
<glyph unicode="&#xfb01;" horiz-adv-x="1269" d="M72 846v209h116v112q0 182 72 279q86 115 291 115q80 0 172 -29l-39 -207q-50 18 -109 18q-70 0 -100 -34q-39 -39 -39 -160v-94h273v-209h-273v-846h-248v846h-116zM868 0v1055h248v-1055h-248zM868 1227v231h248v-231h-248z" />
<glyph unicode="&#xfb02;" horiz-adv-x="1269" d="M72 846v209h116v112q0 182 72 279q86 115 291 115q80 0 172 -29l-39 -207q-50 18 -109 18q-70 0 -100 -34q-39 -39 -39 -160v-94h273v-209h-273v-846h-248v846h-116zM868 0v1536h248v-1536h-248z" />
<glyph unicode="&#xfb03;" horiz-adv-x="1984" d="M72 846v209h116v112q0 182 72 279q86 115 291 115q125 0 240 -56l-74 -194q-65 32 -142 32q-70 0 -100 -34q-39 -39 -39 -160v-94h226v-209h-226v-846h-248v846h-116zM786 846v209h117v112q0 182 72 279q86 115 291 115q80 0 172 -29l-39 -207q-49 18 -109 18 q-70 0 -100 -34q-39 -39 -39 -160v-94h272v-209h-272v-846h-248v846h-117zM1583 0v1055h248v-1055h-248zM1583 1227v231h248v-231h-248z" />
<glyph unicode="&#xfb04;" horiz-adv-x="1984" d="M72 846v209h116v112q0 182 72 279q86 115 291 115q125 0 240 -56l-74 -194q-65 32 -142 32q-70 0 -100 -34q-39 -39 -39 -160v-94h226v-209h-226v-846h-248v846h-116zM786 846v209h117v112q0 182 72 279q86 115 291 115q80 0 172 -29l-39 -207q-49 18 -109 18 q-70 0 -100 -34q-39 -39 -39 -160v-94h272v-209h-272v-846h-248v846h-117zM1583 0v1536h248v-1536h-248z" />
<glyph horiz-adv-x="0" />
<glyph horiz-adv-x="682" />
<glyph horiz-adv-x="0" />
<glyph horiz-adv-x="0" />
<glyph unicode="&#xd;" horiz-adv-x="1024" />
<glyph unicode=" "  horiz-adv-x="512" />
<glyph unicode="&#x09;" horiz-adv-x="512" />
<glyph unicode="&#xa0;" horiz-adv-x="512" />
<glyph unicode="!" horiz-adv-x="661" d="M190 1190v244h281v-244l-20 -725h-240zM195 0v279h272v-279h-272z" />
<glyph unicode="&#x22;" horiz-adv-x="1011" d="M147 1434h261l-19 -572h-223zM604 1434h260l-18 -572h-223z" />
<glyph unicode="#" horiz-adv-x="1327" d="M72 358v181h225l53 286h-153v179h186l66 358h200l-65 -358h264l65 358h201l-65 -358h206v-179h-239l-53 -286h165v-181h-198l-66 -358h-200l65 358h-264l-66 -358h-200l65 358h-192zM498 539h264l53 286h-264z" />
<glyph unicode="$" d="M37 197l164 155q169 -166 334 -166q120 0 191 52.5t71 148.5q-3 86 -80 139q-11 6 -24.5 14.5t-26 15.5t-33.5 15q-41 18 -47 19l-54 20l-51 19q-86 32 -135.5 56.5t-103.5 64.5q-115 89 -115 256q0 159 104.5 260.5t272.5 115.5v195h153v-199q176 -21 347 -145 l-142 -172q-139 115 -295 115q-83 0 -140.5 -43.5t-57.5 -118.5q0 -69 73 -113q12 -5 35 -17.5t45 -21.5l45 -16l103 -37q91 -33 144.5 -59.5t111.5 -71.5q123 -95 123 -272q0 -176 -115 -285q-114 -108 -287 -135v-203h-155v194q-247 15 -455 220z" />
<glyph unicode="%" horiz-adv-x="1746" d="M106 1106q0 148 101 242q101 98 248 98q142 0 243 -98q103 -95 103 -242q0 -144 -103 -244q-104 -96 -243 -96q-144 0 -248 96q-101 98 -101 244zM301 66l1020 1398l131 -96l-1020 -1399zM305 1106q0 -69 42 -114.5t108 -45.5q63 0 105 45.5t42 114.5t-42 114.5 t-105 45.5q-66 0 -108 -45.5t-42 -114.5zM946 328q0 147 101 241q102 99 247 99q142 0 244 -99q102 -95 102 -241q0 -145 -102 -244q-104 -96 -244 -96q-143 0 -247 96q-101 98 -101 244zM1145 328q0 -69 41.5 -114.5t107.5 -45.5q63 0 105.5 45.5t42.5 114.5t-42.5 114 t-105.5 45q-66 0 -107.5 -45t-41.5 -114z" />
<glyph unicode="&#x26;" horiz-adv-x="1406" d="M117 430q0 112 61 211.5t170 165.5q-129 138 -129 287q0 155 129 260q128 104 293 104q146 0 250 -76.5t141 -210.5l-223 -65q-35 139 -174 139q-74 0 -123 -45.5t-49 -114.5q0 -65 49 -129q47 -61 168 -170l-137 -163l-43 39q-140 -78 -140 -224q0 -103 78 -178 q81 -72 191 -72q160 0 254 129l-156 142l137 162l570 -506l-142 -164l-250 221q-150 -197 -428 -197q-198 0 -350 134q-147 135 -147 321z" />
<glyph unicode="'" horiz-adv-x="555" d="M147 1434h261l-19 -572h-223z" />
<glyph unicode="(" horiz-adv-x="741" d="M80 627q0 626 571 983l101 -176q-420 -272 -420 -807q0 -544 418 -811l-97 -174q-573 349 -573 985z" />
<glyph unicode=")" horiz-adv-x="741" d="M-10 1434l100 176q572 -357 572 -983q0 -631 -574 -985l-96 176q418 267 418 809q0 535 -420 807z" />
<glyph unicode="*" horiz-adv-x="1021" d="M129 1096l70 217l233 -113l-35 258h228l-35 -260l235 115l70 -217l-256 -45l186 -191l-186 -133l-127 238l-129 -238l-184 133l182 191z" />
<glyph unicode="+" d="M49 532v209h408v408h209v-408h409v-209h-409v-409h-209v409h-408z" />
<glyph unicode="," horiz-adv-x="512" d="M14 -264l111 543h268l-143 -543h-236z" />
<glyph unicode="-" horiz-adv-x="925" d="M182 479v211h561v-211h-561z" />
<glyph unicode="." horiz-adv-x="512" d="M119 0v279h272v-279h-272z" />
<glyph unicode="/" horiz-adv-x="794" d="M0 -39l596 1606l207 -82l-596 -1606z" />
<glyph unicode="0" horiz-adv-x="1140" d="M74 680q0 332 130.5 519t364.5 187q237 0 367.5 -186.5t130.5 -519.5q0 -332 -130.5 -518.5t-367.5 -186.5q-234 0 -366 187q-129 188 -129 518zM328 680q0 -240 61.5 -363.5t179.5 -123.5q244 0 244 487t-244 487q-241 0 -241 -487z" />
<glyph unicode="1" horiz-adv-x="722" d="M100 983v227q117 57 285 152h164v-1362h-250v1069q-53 -26 -113 -49z" />
<glyph unicode="2" horiz-adv-x="1060" d="M84 1016q15 164 141 266q125 104 295 104q175 0 301 -102q127 -103 127 -268q0 -178 -143 -379q-127 -184 -356 -424h559v-213h-893v199q284 298 469 555q110 158 110 258q0 72 -52.5 115.5t-129.5 43.5q-79 0 -129 -54t-51 -144z" />
<glyph unicode="3" horiz-adv-x="1083" d="M63 238l205 102q70 -150 242 -150q97 0 161 53t64 144q0 96 -73.5 152.5t-190.5 56.5q-71 0 -129 -12v221q99 0 174 16q73 19 115.5 67t42.5 113q0 74 -54 122t-141 48q-69 0 -119 -38t-69 -105l-211 92q41 122 150 194t251 72q192 0 316 -100q129 -102 129 -264 q0 -88 -46.5 -169t-121.5 -122q105 -37 169 -129t64 -207q0 -194 -137 -307t-338 -113q-148 0 -271 70t-182 193z" />
<glyph unicode="4" horiz-adv-x="1120" d="M47 336v231l588 795h250v-813h196v-213h-196v-336h-246v336h-592zM313 549h326v479q-219 -333 -326 -479z" />
<glyph unicode="5" horiz-adv-x="1042" d="M63 227l207 109q65 -146 230 -146q102 0 165.5 68t63.5 170q0 97 -63.5 158t-163.5 61q-117 0 -189 -84l-168 109q32 364 45 690h728v-215h-492q-5 -121 -23 -322q78 35 177 35q169 0 286 -123q117 -120 117 -295q0 -200 -133 -333q-134 -134 -336 -134q-144 0 -267 67.5 t-184 184.5z" />
<glyph unicode="6" horiz-adv-x="1118" d="M74 528q0 314 196 553q200 240 504 363l90 -203q-201 -90 -323 -200.5t-174 -264.5q107 98 262 98q182 0 299 -126q119 -125 119 -308q0 -196 -129 -331q-131 -134 -328 -134q-237 0 -377 162q-139 165 -139 391zM324 524q0 -153 63.5 -244.5t187.5 -91.5q97 0 157.5 69 t60.5 173q0 105 -61.5 170.5t-160.5 65.5q-74 0 -141.5 -38.5t-105.5 -103.5z" />
<glyph unicode="7" horiz-adv-x="956" d="M20 1145v217h900v-166q-320 -669 -562 -1253l-227 104q67 156 178 402l203 423l131 273h-623z" />
<glyph unicode="8" horiz-adv-x="1153" d="M102 381q0 216 205 336q-164 102 -164 293q0 159 121 268q120 108 311 108q194 0 314 -108q121 -109 121 -268q0 -191 -164 -293q205 -120 205 -336q0 -171 -133 -289q-132 -117 -343 -117q-207 0 -339 117q-134 119 -134 289zM354 395q0 -90 63.5 -148.5t157.5 -58.5 q95 0 159.5 58.5t64.5 148.5q0 86 -65 146.5t-159 60.5q-92 0 -156.5 -60.5t-64.5 -146.5zM389 995q0 -78 53 -130t133 -52q82 0 135.5 52t53.5 130t-53.5 128.5t-135.5 50.5q-80 0 -133 -50.5t-53 -128.5z" />
<glyph unicode="9" horiz-adv-x="1118" d="M74 922q0 197 129 329q129 135 327 135q239 0 375 -161q142 -165 142 -391q0 -314 -199 -553q-196 -239 -502 -363l-90 203q201 90 323.5 200.5t174.5 264.5q-108 -99 -262 -99q-183 0 -302 125q-116 125 -116 310zM328 932q0 -106 61.5 -171t159.5 -65q74 0 142 38.5 t106 103.5q0 153 -64 244.5t-188 91.5q-97 0 -157 -69t-60 -173z" />
<glyph unicode=":" horiz-adv-x="512" d="M119 0v279h272v-279h-272zM119 778v277h272v-277h-272z" />
<glyph unicode=";" horiz-adv-x="512" d="M14 -264l111 543h268l-143 -543h-236zM117 778v277h272v-277h-272z" />
<glyph unicode="&#x3c;" d="M35 547v184l1055 422v-209l-764 -305l764 -303v-209z" />
<glyph unicode="=" d="M84 346v209h956v-209h-956zM84 719v211h956v-211h-956z" />
<glyph unicode="&#x3e;" d="M35 127v209l764 303l-764 305v209l1057 -422v-184z" />
<glyph unicode="?" horiz-adv-x="1114" d="M135 1018v22q0 183 121 301q123 117 303 117q182 0 301 -119q119 -116 119 -264q0 -169 -80 -258q-77 -89 -225 -160v-192h-256v323q104 34 180 74q68 33 99.5 81.5t37.5 125.5q0 75 -49 126.5t-127 51.5q-85 0 -132.5 -53t-47.5 -145v-31h-244zM410 0v279h272v-279h-272 z" />
<glyph unicode="@" horiz-adv-x="1638" d="M104 430q0 295 207 502q208 205 504 205q314 0 516 -187q205 -184 205 -481q0 -179 -86 -303q-82 -123 -242 -123q-154 0 -215 150q-30 -53 -92 -83t-133 -30q-134 0 -219 98q-84 104 -84 242q0 135 82 239q83 105 221 105q109 0 186 -80v64h183v-312q0 -116 17.5 -164.5 t59.5 -48.5q55 0 87 68.5t32 165.5q0 230 -136.5 361.5t-379.5 131.5q-217 0 -360 -149q-146 -149 -146 -369q0 -221 144 -371q143 -149 356 -149q125 0 236 57l83 -166q-157 -77 -321 -77q-294 0 -500 206q-205 205 -205 498zM647 420q0 -74 42.5 -125t109.5 -51 q46 0 88.5 33.5t66.5 91.5v147q-71 86 -151 86q-75 0 -115.5 -52t-40.5 -130z" />
<glyph unicode="A" horiz-adv-x="1380" d="M29 0l571 1434h211l543 -1434h-291l-100 283h-553l-103 -283h-278zM487 496h400l-197 551h-2z" />
<glyph unicode="B" horiz-adv-x="1261" d="M174 0v1434h363q243 0 385 -91q161 -106 161 -309t-196 -282q122 -38 189 -125.5t67 -208.5q0 -122 -65.5 -216.5t-182.5 -144.5q-134 -57 -377 -57h-344zM428 217h86q189 0 264 37q96 47 96 162q0 100 -66 156.5t-187 56.5h-193v-412zM428 836h104q297 0 297 186 q0 103 -69 149q-67 46 -258 46h-74v-381z" />
<glyph unicode="C" horiz-adv-x="1380" d="M111 717q0 318 223 528q227 213 543 213q210 0 417 -127l-120 -196q-138 100 -297 100q-216 0 -357 -150q-141 -147 -141 -368q0 -236 135 -377q138 -141 363 -141q169 0 309 110l141 -184q-211 -150 -457 -150q-327 0 -544 205q-215 206 -215 537z" />
<glyph unicode="D" horiz-adv-x="1468" d="M174 0v1434h406q114 0 222 -23.5t210 -78t178 -134.5t122 -202.5t46 -272.5q0 -187 -67.5 -332.5t-186.5 -228.5q-229 -162 -545 -162h-385zM428 217h47q615 0 615 488q0 246 -143 379t-402 133h-117v-1000z" />
<glyph unicode="E" horiz-adv-x="1187" d="M174 0v1434h895v-217h-641v-371h641v-217h-641v-412h641v-217h-895z" />
<glyph unicode="F" horiz-adv-x="1024" d="M174 0v1434h766v-217h-512v-406h512v-217h-512v-594h-254z" />
<glyph unicode="G" horiz-adv-x="1632" d="M111 717q0 318 223 528q227 213 543 213q346 0 583 -270l-178 -152q-175 199 -405 199q-216 0 -357 -150q-141 -147 -141 -368q0 -234 137 -377q138 -141 361 -141q205 0 356 139v256h-354v217h608v-551q-105 -138 -264 -211.5t-346 -73.5q-330 0 -549 207 q-217 205 -217 535z" />
<glyph unicode="H" horiz-adv-x="1525" d="M174 0v1434h254v-588h670v588h254v-1434h-254v629h-670v-629h-254z" />
<glyph unicode="I" horiz-adv-x="602" d="M174 0v1434h254v-1434h-254z" />
<glyph unicode="J" horiz-adv-x="702" d="M-66 33l74 200q69 -34 137 -34q84 0 113 45q25 42 25 162v1028h254v-1059q0 -200 -80 -295q-86 -105 -281 -105q-129 0 -242 58z" />
<glyph unicode="K" horiz-adv-x="1294" d="M174 0v1434h254v-648l530 648h310l-484 -574l500 -860h-293l-379 657l-184 -221v-436h-254z" />
<glyph unicode="L" horiz-adv-x="1038" d="M174 0v1434h254v-1217h602v-217h-856z" />
<glyph unicode="M" horiz-adv-x="1931" d="M174 0v1434h383l406 -1051l415 1051h379v-1434h-254v1114l-452 -1114h-181l-442 1118v-1118h-254z" />
<glyph unicode="N" horiz-adv-x="1538" d="M174 0v1434h223l713 -971v971h254v-1434h-227l-709 969v-969h-254z" />
<glyph unicode="O" horiz-adv-x="1710" d="M111 717q0 308 213 524q214 217 530 217t530 -217q215 -215 215 -524t-215 -527q-215 -215 -530 -215t-530 215q-213 219 -213 527zM379 717q0 -219 135 -369q134 -149 340 -149q208 0 342 149q135 150 135 369q0 218 -135 368t-342 150q-205 0 -340 -150t-135 -368z" />
<glyph unicode="P" horiz-adv-x="1198" d="M174 0v1434h444q75 0 147 -14.5t141.5 -48.5t121.5 -83.5t83.5 -125t31.5 -167.5q0 -94 -31.5 -170t-83 -125.5t-120.5 -82.5t-141.5 -47.5t-148.5 -14.5h-190v-555h-254zM428 772h143q303 0 303 217q0 104 -71.5 166t-190.5 62h-184v-445z" />
<glyph unicode="Q" horiz-adv-x="1710" d="M111 717q0 308 213 524q214 217 530 217t530 -217q215 -215 215 -524q0 -303 -204 -516l186 -185l-156 -153l-206 205q-169 -93 -365 -93q-315 0 -530 215q-213 219 -213 527zM379 717q0 -219 135 -369q134 -149 340 -149q100 0 193 41l-187 186l156 154l203 -203 q112 139 112 340q0 218 -135 368t-342 150q-205 0 -340 -150t-135 -368z" />
<glyph unicode="R" horiz-adv-x="1280" d="M174 0v1434h442q191 0 338 -97q80 -48 126 -133t46 -192q0 -155 -89.5 -258.5t-237.5 -143.5l444 -610h-315l-410 586h-90v-586h-254zM428 803h141q134 0 211.5 51.5t77.5 151.5q0 94 -69 152.5t-179 58.5h-182v-414z" />
<glyph unicode="S" horiz-adv-x="1247" d="M82 205l172 166q101 -96 182 -136t185 -40q111 0 182 55t71 156q0 36 -17 70t-42 56q-26 26 -70 46q-71 37 -165 69q-90 32 -149 61.5t-120 75.5q-127 98 -127 275q0 194 131 295q131 104 322 104q250 0 463 -160l-150 -182q-138 123 -299 123q-94 0 -153.5 -45.5 t-59.5 -122.5q0 -54 56 -106q28 -20 63 -37q29 -14 64 -29q29 -12 73 -25q81 -27 162 -63q54 -22 137 -82q150 -102 150 -309q0 -147 -84 -254q-155 -191 -441 -191q-306 0 -536 230z" />
<glyph unicode="T" horiz-adv-x="1005" d="M27 1217v217h950v-217h-348v-1217h-254v1217h-348z" />
<glyph unicode="U" horiz-adv-x="1472" d="M168 674v760h254v-803q0 -211 81.5 -321.5t231.5 -110.5q151 0 233.5 110.5t82.5 321.5v803h254v-760q0 -350 -140.5 -524.5t-433.5 -174.5q-563 0 -563 699z" />
<glyph unicode="V" horiz-adv-x="1345" d="M10 1434h291l373 -1047h2l381 1047h278l-571 -1434h-211z" />
<glyph unicode="W" horiz-adv-x="1884" d="M10 1434h281l256 -985h4l274 985h238l262 -985h4l268 985h277l-410 -1434h-252l-270 1004h-4l-287 -1004h-243z" />
<glyph unicode="X" horiz-adv-x="1402" d="M6 0l526 725l-512 709h332l357 -504l360 504h315l-518 -705l531 -729h-328l-375 522l-370 -522h-318z" />
<glyph unicode="Y" horiz-adv-x="1200" d="M10 1434h314l278 -551h4l289 551h295l-471 -834v-600h-254v610z" />
<glyph unicode="Z" horiz-adv-x="1138" d="M74 0v135l635 1082h-619v217h963v-131l-635 -1086h684v-217h-1028z" />
<glyph unicode="[" horiz-adv-x="659" d="M160 -336v1868h481v-203h-254v-1466h254v-199h-481z" />
<glyph unicode="\" horiz-adv-x="794" d="M0 1491l199 76l596 -1606l-199 -78z" />
<glyph unicode="]" horiz-adv-x="659" d="M18 -137h256v1466h-256v203h482v-1868h-482v199z" />
<glyph unicode="^" d="M143 692l308 721h225l307 -721h-221l-199 443l-198 -443h-222z" />
<glyph unicode="_" d="M0 -293h1126v-172h-1126v172z" />
<glyph unicode="`" horiz-adv-x="737" d="M78 1516l170 133l264 -365l-145 -110z" />
<glyph unicode="a" horiz-adv-x="1153" d="M98 305q0 76 27 136t71.5 98.5t106 63.5t125.5 35.5t135 10.5q86 0 199 -22v24q0 230 -225 230q-148 0 -326 -93l-68 187q209 104 439 104q428 0 428 -442v-637h-222l-12 98q-102 -123 -299 -123q-156 0 -268 86q-111 86 -111 244zM342 313q0 -73 49.5 -113t130.5 -40 q118 0 240 104v203q-84 20 -162 20q-113 0 -185.5 -43t-72.5 -131z" />
<glyph unicode="b" horiz-adv-x="1304" d="M154 0v1536h247v-602q54 70 141 107.5t181 37.5q218 0 360 -161q146 -161 146 -394q0 -221 -146 -387q-143 -162 -364 -162q-96 0 -185 38.5t-143 109.5l-12 -123h-225zM401 326q106 -133 271 -133q145 0 225 102q80 103 80 235q0 133 -84 234q-82 98 -217 98 q-85 0 -159.5 -42.5t-115.5 -121.5v-372z" />
<glyph unicode="c" horiz-adv-x="1015" d="M76 528q0 237 155 392q156 159 392 159q196 0 340 -112l-123 -185q-92 80 -209 80q-129 0 -217 -98q-86 -95 -86 -236q0 -147 88 -241t213 -94q122 0 211 77l129 -176q-137 -119 -357 -119q-234 0 -385 154t-151 399z" />
<glyph unicode="d" horiz-adv-x="1304" d="M76 530q0 223 143 385q144 164 367 164q194 0 315 -133v590h250v-1536h-227l-13 135q-53 -77 -141 -118.5t-188 -41.5q-218 0 -363 160q-143 162 -143 395zM328 524q0 -135 82 -233t219 -98q83 0 157 42t115 121v373q-106 133 -268 133q-145 0 -225 -102 q-80 -103 -80 -236z" />
<glyph unicode="e" horiz-adv-x="1179" d="M76 520q0 238 151 398q151 161 379 161q215 0 357 -139q141 -138 141 -350q0 -53 -10 -125h-768q12 -126 92.5 -206.5t202.5 -80.5q195 0 290 164l168 -113q-92 -133 -203 -193.5t-270 -60.5q-239 0 -385 152q-145 154 -145 393zM340 643h510q-4 103 -72 170.5t-166 67.5 q-106 0 -175.5 -63t-96.5 -175z" />
<glyph unicode="f" horiz-adv-x="714" d="M72 846v209h116v112q0 182 72 279q86 115 291 115q125 0 240 -56l-74 -194q-65 32 -142 32q-70 0 -100 -34q-39 -39 -39 -160v-94h273v-209h-273v-846h-248v846h-116z" />
<glyph unicode="g" horiz-adv-x="1292" d="M76 543q0 224 143 379q145 157 367 157q94 0 182 -37.5t143 -107.5l13 121h227v-1000q0 -165 -64 -278q-132 -240 -471 -240q-272 0 -477 144l92 204q78 -60 182 -95.5t197 -35.5q133 0 212 71t79 204v118q-52 -71 -138.5 -109t-182.5 -38q-217 0 -361 156 q-143 155 -143 387zM328 537q0 -132 82 -226t217 -94q84 0 158 42.5t116 119.5v350q-106 133 -268 133q-146 0 -225 -98q-80 -95 -80 -227z" />
<glyph unicode="h" horiz-adv-x="1255" d="M154 0v1536h247v-625q122 168 326 168q183 0 291 -135q94 -125 94 -395v-549h-248v530q0 181 -41 252q-47 80 -159 80q-73 0 -144.5 -44t-118.5 -118v-700h-247z" />
<glyph unicode="i" horiz-adv-x="555" d="M154 0v1055h247v-1055h-247zM154 1227v231h247v-231h-247z" />
<glyph unicode="j" horiz-adv-x="569" d="M-143 -416l67 197q58 -27 121 -27q74 0 98.5 44.5t24.5 148.5v1108h248v-1137q0 -158 -51 -235q-79 -144 -291 -144q-126 0 -217 45zM168 1227v231h248v-231h-248z" />
<glyph unicode="k" horiz-adv-x="1101" d="M154 0v1536h247v-948l5 -2l374 469h289l-373 -437l404 -618h-303l-267 424l-129 -150v-274h-247z" />
<glyph unicode="l" horiz-adv-x="555" d="M154 0v1536h247v-1536h-247z" />
<glyph unicode="m" horiz-adv-x="1894" d="M154 0v1055h227l10 -142q59 78 144 122t172 44q183 0 284 -143q1 -1 23 -41q129 184 358 184q182 0 283 -131q96 -125 96 -399v-549h-250v530q0 188 -37 252q-47 80 -157 80q-63 0 -129 -38.5t-113 -104.5q10 -72 10 -170v-549h-248v530q0 193 -41 258q-44 74 -147 74 q-59 0 -124 -39.5t-114 -101.5v-721h-247z" />
<glyph unicode="n" horiz-adv-x="1255" d="M154 0v1055h225l12 -156q125 180 336 180q183 0 291 -135q94 -125 94 -395v-549h-248v530q0 181 -41 252q-47 80 -159 80q-73 0 -144.5 -44t-118.5 -118v-700h-247z" />
<glyph unicode="o" horiz-adv-x="1245" d="M76 528q0 234 155 392q156 159 392 159q235 0 391 -159q155 -158 155 -392q0 -235 -155 -393q-157 -160 -391 -160q-235 0 -392 160q-155 158 -155 393zM328 528q0 -138 84 -239q84 -96 211 -96t211 96q84 101 84 239q0 140 -84 236q-82 98 -211 98t-211 -98 q-84 -96 -84 -236z" />
<glyph unicode="p" horiz-adv-x="1304" d="M154 -512v1567h225l14 -135q49 77 139 118t191 41q218 0 360 -161q146 -161 146 -394q0 -221 -146 -387q-143 -162 -364 -162q-199 0 -318 131v-618h-247zM401 326q106 -133 271 -133q145 0 225 102q80 103 80 235q0 133 -84 234q-82 98 -217 98q-85 0 -159.5 -42.5 t-115.5 -121.5v-372z" />
<glyph unicode="q" horiz-adv-x="1304" d="M76 530q0 223 143 385q144 164 367 164q94 0 182 -37.5t143 -107.5l13 121h227v-1567h-250v635q-52 -71 -138.5 -109.5t-180.5 -38.5q-218 0 -363 160q-143 162 -143 395zM328 524q0 -135 82 -233t219 -98q83 0 157 42t115 121v373q-106 133 -268 133q-145 0 -225 -102 q-80 -103 -80 -236z" />
<glyph unicode="r" horiz-adv-x="751" d="M154 0v1055h227l12 -150q107 174 256 174q69 0 127 -18l-55 -232q-48 23 -100 23q-139 0 -218 -141v-711h-249z" />
<glyph unicode="s" horiz-adv-x="958" d="M63 150l152 143q119 -119 242 -119q67 0 112 32t45 89q0 35 -34 65q-30 29 -60 44.5t-102 44.5q-63 26 -101 46t-86 56q-98 73 -98 209q0 152 105 235q110 84 258 84q210 0 348 -129l-139 -151q-91 82 -209 82q-56 0 -90.5 -28t-34.5 -75q0 -32 28 -63q28 -27 56 -41.5 t98 -42.5q67 -26 107 -47.5t94 -59.5q106 -72 106 -213q0 -166 -115 -252q-116 -84 -282 -84q-244 0 -400 175z" />
<glyph unicode="t" horiz-adv-x="741" d="M29 846v209h131l26 241h224v-241h278v-209h-278v-436q0 -65 2 -88q12 -129 114 -129q63 0 117 28l74 -188q-100 -56 -230 -56q-114 0 -192 53t-109 148q-26 68 -26 195v473h-131z" />
<glyph unicode="u" horiz-adv-x="1255" d="M143 506v549h248v-531q0 -181 41 -252q46 -79 160 -79q73 0 144 43.5t118 117.5v701h248v-1055h-225l-13 156q-126 -181 -336 -181q-181 0 -290 136q-95 127 -95 395z" />
<glyph unicode="v" horiz-adv-x="1052" d="M10 1055h275l239 -721h4l242 721h270l-424 -1055h-206z" />
<glyph unicode="w" horiz-adv-x="1536" d="M10 1053h266l173 -719h4l202 719h234l190 -717h4l189 717h254l-305 -1053h-260l-191 690h-4l-195 -690h-270z" />
<glyph unicode="x" horiz-adv-x="1132" d="M10 0l408 532l-377 523h315l226 -334l229 334h305l-393 -520l391 -535h-317l-236 348l-239 -348h-312z" />
<glyph unicode="y" horiz-adv-x="1042" d="M8 1055h273l237 -699h4l242 699h270l-594 -1534l-221 84l168 444z" />
<glyph unicode="z" horiz-adv-x="964" d="M88 846v209h776v-111l-430 -735h465v-209h-788v113l428 733h-451z" />
<glyph unicode="{" horiz-adv-x="675" d="M16 520l4 199q156 37 156 270v150q0 185 107 301t284 116q18 0 88 -4v-198q-14 2 -67 2q-185 0 -185 -271v-149q0 -215 -133 -315q133 -106 133 -318v-192q0 -271 189 -271q49 0 63 2v-196q-52 -6 -88 -6q-177 0 -284 116t-107 301v217q0 99 -41 164t-119 82z" />
<glyph unicode="|" horiz-adv-x="657" d="M219 -348v2105h219v-2105h-219z" />
<glyph unicode="}" horiz-adv-x="675" d="M16 -158q14 -2 64 -2q188 0 188 271v192q0 212 133 318q-133 100 -133 315v149q0 271 -184 271q-54 0 -68 -2v198q70 4 88 4q176 0 283 -116q109 -118 109 -301v-150q0 -233 155 -270l4 -199q-78 -17 -118.5 -82t-40.5 -164v-217q0 -183 -109 -301q-107 -116 -283 -116 q-36 0 -88 6v196z" />
<glyph unicode="~" d="M49 586q0 128 81 206t212 78q53 2 108.5 -17t101.5 -47t88 -55.5t81 -46t67 -16.5q41 0 69 26t28 64q0 17 -4 29l194 12q4 -36 4 -51q0 -129 -81 -207t-212 -78q-68 0 -136.5 26.5t-119.5 63.5q-113 93 -190 93q-41 0 -68.5 -26.5t-27.5 -64.5q0 -16 4 -28l-195 -12 q-4 36 -4 51z" />
<glyph unicode="&#xa1;" horiz-adv-x="661" d="M190 -135l21 725h240l20 -725v-244h-281v244zM195 776v279h272v-279h-272z" />
<glyph unicode="&#xa2;" d="M131 631q0 209 127 360q126 150 330 185v186h155v-184q149 -15 277 -109l-125 -184q-92 80 -209 80q-128 0 -217 -99q-86 -95 -86 -235q0 -148 88 -242t213 -94q121 0 211 78l129 -174q-114 -99 -281 -117v-180h-155v182q-204 27 -330 174q-127 151 -127 373z" />
<glyph unicode="&#xa3;" d="M154 0v217h114v408h-114v217h114v82q0 201 121 331q119 131 311 131q179 0 328 -90l-98 -194q-81 69 -209 69q-102 0 -155.5 -74.5t-53.5 -209.5v-45h266v-217h-266v-408h510v-217h-868z" />
<glyph unicode="&#xa4;" d="M74 317l112 113q-69 103 -69 236q0 125 69 237l-112 115l139 139l115 -113q109 68 235 68q127 0 236 -68l114 113l140 -139l-113 -115q70 -113 70 -237q0 -129 -70 -236l113 -113l-140 -141l-112 115q-107 -70 -238 -70q-128 0 -237 68l-113 -113zM309 666 q0 -105 74 -179q76 -73 180 -73q105 0 178 73q76 73 76 179q0 105 -76 178q-73 76 -178 76q-104 0 -180 -76q-74 -74 -74 -178z" />
<glyph unicode="&#xa5;" d="M6 1362h283l278 -512h4l269 512h280l-377 -662h277v-176h-338v-118h338v-177h-340v-229h-244v229h-340v177h338v118h-338v176h279z" />
<glyph unicode="&#xa6;" horiz-adv-x="657" d="M219 393h219v-794h-219v794zM219 741v795h219v-795h-219z" />
<glyph unicode="&#xa7;" d="M76 -111l145 162q141 -135 320 -135q88 0 147.5 39t59.5 106q0 69 -84 107q-17 9 -31.5 15.5t-32.5 13t-29.5 10t-38.5 11.5t-43 13q-26 7 -75 23l-74 25q-65 25 -80 34q-6 5 -27.5 19.5t-36 25.5t-31.5 26.5t-26 29.5q-47 84 -47 164q0 205 187 299q-132 92 -132 239 q0 162 119 250q121 92 287 92q227 0 393 -129l-141 -155q-112 83 -254 83q-69 0 -117.5 -31.5t-48.5 -86.5q0 -32 20.5 -60t55.5 -45q52 -24 84 -35l45 -16l104 -33q79 -26 132 -51.5t106 -64.5q115 -77 115 -232q0 -171 -185 -285q133 -89 133 -235q0 -178 -129 -272 q-129 -97 -319 -97q-277 0 -471 176zM340 610q0 -35 17.5 -58.5t54.5 -51.5q26 -16 110 -47l70 -23l70 -20q61 25 98 71t37 99q7 53 -72 102q-40 28 -111 49q-24 12 -67 25l-70 22q-65 -23 -101 -68t-36 -100z" />
<glyph unicode="&#xa8;" horiz-adv-x="737" d="M12 1227v231h250v-231h-250zM475 1227v231h250v-231h-250z" />
<glyph unicode="&#xa9;" horiz-adv-x="1648" d="M109 682q0 296 210 500q213 207 506 207t506 -207q211 -205 211 -500t-211 -500q-213 -207 -506 -207t-506 207q-210 204 -210 500zM305 682q0 -215 152 -373q153 -153 368 -153q217 0 367 153q154 157 154 373q0 217 -154 371q-149 155 -367 155q-216 0 -368 -155 t-152 -371zM451 680q0 160 114 268q115 109 281 109q117 0 221 -72l-90 -133q-65 45 -135 45q-90 0 -146.5 -61t-56.5 -156q0 -102 54.5 -160.5t148.5 -58.5q70 0 141 53l94 -127q-109 -86 -231 -86q-169 0 -283 105q-112 103 -112 274z" />
<glyph unicode="&#xaa;" horiz-adv-x="790" d="M70 989q0 116 86 174t223 58q55 0 125 -15v15q-3 135 -146 135q-107 0 -208 -64l-50 138q143 73 293 73q143 0 219 -75.5t76 -221.5v-415h-164l-10 61q-72 -78 -195 -78q-107 0 -178 57.5t-71 157.5zM256 999q0 -90 111 -90q72 0 137 56v131q-65 10 -90 10 q-70 0 -114 -27t-44 -80z" />
<glyph unicode="&#xab;" horiz-adv-x="1155" d="M111 424v240l315 327l131 -200l-260 -248l260 -248l-131 -201zM600 424v240l315 327l132 -200l-261 -248l261 -248l-132 -201z" />
<glyph unicode="&#xac;" d="M43 670v209h1038v-625h-209v416h-829z" />
<glyph unicode="&#xad;" horiz-adv-x="925" d="M182 479v211h561v-211h-561z" />
<glyph unicode="&#xae;" horiz-adv-x="1177" d="M98 981q0 200 144 344q143 143 348 143q203 0 346 -143q145 -145 145 -344t-145 -344q-143 -143 -346 -143q-205 0 -348 143q-144 144 -144 344zM246 981q0 -148 100 -248q102 -102 244 -102t244 102q100 100 100 248t-100 248q-102 102 -244 102t-244 -102 q-100 -100 -100 -248zM412 741v484h139q213 0 213 -150q0 -99 -92 -137l147 -197h-153l-113 168h-16v-168h-125zM537 1016q56 0 79 12t23 43q0 32 -20.5 42.5t-81.5 10.5v-108z" />
<glyph unicode="&#xaf;" horiz-adv-x="737" d="M37 1247v176h663v-176h-663z" />
<glyph unicode="&#xb0;" horiz-adv-x="946" d="M147 1100q0 130 95 225q96 96 227 96t227 -96q97 -97 97 -225q0 -131 -97 -228q-95 -92 -227 -92q-134 0 -229 92q-93 93 -93 228zM321 1099q0 -64 41 -108q43 -43 106.5 -43t106.5 43q43 44 43 108t-43 107q-43 44 -106.5 44t-106.5 -44q-41 -43 -41 -107z" />
<glyph unicode="&#xb1;" d="M43 0v211h1038v-211h-1038zM43 731v211h414v414h209v-414h415v-211h-415v-416h-209v416h-414z" />
<glyph unicode="&#xb2;" horiz-adv-x="667" d="M47 1350q6 104 84.5 170.5t190.5 66.5q115 0 196 -63q84 -63 84 -164q0 -116 -82 -223q-90 -118 -223 -240h334v-145h-568v137q162 154 283 309q66 84 66 154q0 41 -24.5 64.5t-63.5 23.5q-41 0 -66 -32.5t-25 -82.5z" />
<glyph unicode="&#xb3;" horiz-adv-x="688" d="M31 907l147 70q41 -90 137 -90q55 0 90 28.5t35 77.5q0 53 -42 84t-107 31q-41 0 -72 -8v141q56 0 98 10q89 21 89 95q0 42 -29 68t-76 26q-84 0 -111 -82l-145 65q26 77 96 120.5t162 43.5q124 0 206.5 -60.5t82.5 -158.5q0 -118 -111 -176q71 -23 110.5 -79t39.5 -126 q0 -111 -87 -179.5t-218 -68.5q-101 0 -181 44t-114 124z" />
<glyph unicode="&#xb4;" horiz-adv-x="737" d="M225 1284l264 365l170 -133l-288 -342z" />
<glyph unicode="&#xb5;" d="M84 -512v1567h248v-535q0 -77 5 -120.5t21 -96.5q37 -110 174 -110q73 0 144.5 43.5t118.5 117.5v701h247v-1055h-225l-14 156q-123 -181 -334 -181q-73 0 -137 27v-514h-248z" />
<glyph unicode="&#xb6;" d="M70 995q0 92 31.5 167.5t83 125t120.5 83.5t140.5 48.5t146.5 14.5h115v-1792h-228v921q-179 27 -293 133q-116 107 -116 299zM295 995q0 -92 52 -150.5t132 -64.5v432q-80 -6 -132 -64.5t-52 -152.5zM811 -358v1792h225v-1792h-225z" />
<glyph unicode="&#xb7;" horiz-adv-x="512" d="M119 514v277h272v-277h-272z" />
<glyph unicode="&#xb8;" horiz-adv-x="819" d="M160 -186l94 219l131 -23l-53 -137l2 -2q44 33 96 33q75 0 130.5 -58t55.5 -143q0 -88 -67 -152q-64 -67 -162 -67q-150 0 -227 135l131 62q25 -66 88 -66q34 0 57 24.5t23 57.5q0 37 -23 62.5t-59 25.5q-51 0 -78 -43z" />
<glyph unicode="&#xb9;" horiz-adv-x="458" d="M57 1321v160l179 94h122v-823h-186v618z" />
<glyph unicode="&#xba;" horiz-adv-x="843" d="M53 1139q0 155 105 260q104 104 264 104t264 -104q105 -105 105 -260t-105 -260t-264 -105t-264 105t-105 260zM244 1139q0 -93 49 -154q50 -59 129 -59t129 59q49 61 49 154t-49 151q-50 62 -129 62t-129 -62q-49 -58 -49 -151z" />
<glyph unicode="&#xbb;" horiz-adv-x="1155" d="M111 295l258 246l-258 250l129 188l317 -317v-240l-317 -318zM600 295l258 246l-258 250l129 188l318 -317v-240l-318 -318z" />
<glyph unicode="&#xbc;" horiz-adv-x="1593" d="M180 66l1020 1398l131 -96l-1020 -1399zM190 1190v162q145 74 160 82h129v-742h-176v549q-57 -30 -113 -51zM838 170v149l313 418h180v-426h99v-141h-99v-170h-174v170h-319zM1012 311h145v215q-75 -120 -145 -215z" />
<glyph unicode="&#xbd;" horiz-adv-x="1646" d="M180 66l1020 1398l131 -96l-1020 -1399zM190 1190v162q145 74 160 82h129v-742h-176v549q-57 -30 -113 -51zM948 543q6 95 78 153t178 58q100 0 178 -60q76 -58 76 -149q0 -98 -80 -201q-65 -88 -182 -199h287v-145h-520v127q156 141 258 276q59 77 59 136q6 44 -39 63 q-44 19 -85 -5q-43 -25 -38 -83z" />
<glyph unicode="&#xbe;" horiz-adv-x="1744" d="M164 838l141 63q35 -78 121 -78q43 0 71.5 24.5t28.5 65.5q0 47 -35 72t-96 25q-28 0 -55 -6l-2 135q63 0 84 8q74 15 74 82q0 33 -25 55.5t-65 22.5q-74 0 -89 -72l-141 65q25 68 88.5 108t145.5 40q108 0 184 -55.5t76 -141.5q0 -102 -97 -159q60 -20 96 -71t36 -114 q0 -101 -79.5 -163t-195.5 -62q-195 0 -266 156zM332 66l1020 1398l131 -96l-1020 -1399zM989 170v149l314 418h178v-426h100v-141h-100v-170h-172v170h-320zM1163 311h146v215q-69 -109 -146 -215z" />
<glyph unicode="&#xbf;" horiz-adv-x="1114" d="M135 -18q0 166 78 256q82 92 227 161v193h256v-324q-105 -35 -182 -73q-135 -69 -135 -207q0 -75 49 -126.5t127 -51.5q85 0 132.5 53t47.5 145v31h244v-23q0 -184 -123 -301q-119 -116 -301 -116q-183 0 -301 118q-119 116 -119 265zM432 778v279h273v-279h-273z" />
<glyph unicode="&#xc0;" horiz-adv-x="1380" d="M29 0l571 1434h211l543 -1434h-291l-100 283h-553l-103 -283h-278zM358 1767l131 172l349 -290l-113 -142zM487 496h400l-197 551h-2z" />
<glyph unicode="&#xc1;" horiz-adv-x="1380" d="M29 0l571 1434h211l543 -1434h-291l-100 283h-553l-103 -283h-278zM487 496h400l-197 551h-2zM528 1649l349 290l131 -172l-367 -260z" />
<glyph unicode="&#xc2;" horiz-adv-x="1380" d="M29 0l571 1434h211l543 -1434h-291l-100 283h-553l-103 -283h-278zM336 1618l233 283h271l225 -283l-143 -109l-222 236l-219 -236zM487 496h400l-197 551h-2z" />
<glyph unicode="&#xc3;" horiz-adv-x="1380" d="M29 0l571 1434h211l543 -1434h-291l-100 283h-553l-103 -283h-278zM362 1638q0 91 61.5 148t160.5 57q77 0 172 -59q98 -58 127 -58q56 0 59 54q0 14 -2 16l154 19q10 -38 10 -68q0 -93 -61.5 -150t-161.5 -57q-78 0 -174 57q-94 58 -125 58q-26 0 -43 -14.5t-17 -38.5 q0 -15 2 -17l-151 -16q-11 42 -11 69zM487 496h400l-197 551h-2z" />
<glyph unicode="&#xc4;" horiz-adv-x="1380" d="M29 0l571 1434h211l543 -1434h-291l-100 283h-553l-103 -283h-278zM291 1563v237h266v-237h-266zM487 496h400l-197 551h-2zM852 1563v237h266v-237h-266z" />
<glyph unicode="&#xc5;" horiz-adv-x="1380" d="M29 0l571 1434h211l543 -1434h-291l-100 283h-553l-103 -283h-278zM487 496h400l-197 551h-2zM492 1689.5q0 88.5 63 151.5t151.5 63t151.5 -63t63 -151.5t-63 -151.5t-151.5 -63t-151.5 63t-63 151.5zM613 1690q0 -39 26 -68q29 -26 68 -26t65 26q43 39 24.5 91.5 t-66 66t-91.5 -24.5q-26 -26 -26 -65z" />
<glyph unicode="&#xc6;" horiz-adv-x="2048" d="M-18 0l1052 1434h893v-217h-641v-369h641v-219h-641v-412h641v-217h-895v283h-538l-195 -283h-317zM639 498h393v569z" />
<glyph unicode="&#xc7;" horiz-adv-x="1380" d="M111 717q0 318 223 528q227 213 543 213q210 0 417 -127l-120 -196q-138 100 -297 100q-216 0 -357 -150q-141 -147 -141 -368q0 -236 135 -377q138 -141 363 -141q169 0 309 110l141 -184q-211 -150 -457 -150q-62 0 -108 9l-45 -111l2 -2q42 33 96 33q79 0 132.5 -58 t53.5 -143q0 -88 -67 -152q-64 -67 -162 -67q-152 0 -225 135l129 62q28 -66 88 -66q35 0 58.5 24.5t23.5 57.5q0 36 -22.5 62t-57.5 26q-53 0 -80 -43l-141 72l88 194q-233 66 -379 256q-143 186 -143 453z" />
<glyph unicode="&#xc8;" horiz-adv-x="1187" d="M174 0v1434h895v-217h-641v-371h641v-217h-641v-412h641v-217h-895zM342 1767l131 172l348 -290l-112 -142z" />
<glyph unicode="&#xc9;" horiz-adv-x="1187" d="M174 0v1434h895v-217h-641v-371h641v-217h-641v-412h641v-217h-895zM461 1649l348 290l131 -172l-367 -260z" />
<glyph unicode="&#xca;" horiz-adv-x="1187" d="M174 0v1434h895v-217h-641v-371h641v-217h-641v-412h641v-217h-895zM266 1618l234 283h270l225 -283l-143 -109l-221 236l-219 -236z" />
<glyph unicode="&#xcb;" horiz-adv-x="1187" d="M174 0v1434h895v-217h-641v-369h641v-219h-641v-412h641v-217h-895zM266 1563v237h262v-237h-262zM745 1563v237h263v-237h-263z" />
<glyph unicode="&#xcc;" horiz-adv-x="602" d="M-45 1767l131 172l348 -290l-112 -142zM174 0v1434h254v-1434h-254z" />
<glyph unicode="&#xcd;" horiz-adv-x="602" d="M168 1649l348 290l131 -172l-366 -260zM174 0v1434h254v-1434h-254z" />
<glyph unicode="&#xce;" horiz-adv-x="602" d="M-63 1618l233 283h270l226 -283l-144 -109l-221 236l-219 -236zM174 0v1434h254v-1434h-254z" />
<glyph unicode="&#xcf;" horiz-adv-x="602" d="M-68 1563v237h267v-237h-267zM174 0v1434h254v-1434h-254zM403 1563v237h267v-237h-267z" />
<glyph unicode="&#xd0;" horiz-adv-x="1468" d="M35 647v184h139v603h406q114 0 222 -23.5t210 -78t178 -134.5t122 -202.5t46 -272.5q0 -187 -67.5 -332.5t-186.5 -228.5q-229 -162 -545 -162h-385v647h-139zM428 217h47q615 0 615 488q0 246 -143 379t-402 133h-117v-386h238v-184h-238v-430z" />
<glyph unicode="&#xd1;" horiz-adv-x="1538" d="M174 0v1434h223l713 -971v971h254v-1434h-227l-709 969v-969h-254zM422 1638q0 91 61 148t160 57q77 0 172 -59q98 -58 127 -58q56 0 59 54q0 14 -2 16l154 19q10 -38 10 -68q0 -93 -61.5 -150t-161.5 -57q-78 0 -174 57q-94 58 -125 58q-25 0 -42 -14.5t-17 -38.5 q0 -15 2 -17l-152 -16q-10 38 -10 69z" />
<glyph unicode="&#xd2;" horiz-adv-x="1710" d="M111 717q0 308 213 524q214 217 530 217t530 -217q215 -215 215 -524t-215 -527q-215 -215 -530 -215t-530 215q-213 219 -213 527zM379 717q0 -219 135 -369q134 -149 340 -149q208 0 342 149q135 150 135 369q0 218 -135 368t-342 150q-205 0 -340 -150t-135 -368z M514 1767l131 172l348 -290l-112 -142z" />
<glyph unicode="&#xd3;" horiz-adv-x="1710" d="M111 717q0 308 213 524q214 217 530 217t530 -217q215 -215 215 -524t-215 -527q-215 -215 -530 -215t-530 215q-213 219 -213 527zM379 717q0 -219 135 -369q134 -149 340 -149q208 0 342 149q135 150 135 369q0 218 -135 368t-342 150q-205 0 -340 -150t-135 -368z M723 1649l348 290l131 -172l-366 -260z" />
<glyph unicode="&#xd4;" horiz-adv-x="1710" d="M111 717q0 308 213 524q214 217 530 217t530 -217q215 -215 215 -524t-215 -527q-215 -215 -530 -215t-530 215q-213 219 -213 527zM379 717q0 -219 135 -369q134 -149 340 -149q208 0 342 149q135 150 135 369q0 218 -135 368t-342 150q-205 0 -340 -150t-135 -368z M489 1618l234 283h270l226 -283l-144 -109l-221 236l-219 -236z" />
<glyph unicode="&#xd5;" horiz-adv-x="1710" d="M111 717q0 308 213 524q214 217 530 217t530 -217q215 -215 215 -524t-215 -527q-215 -215 -530 -215t-530 215q-213 219 -213 527zM379 717q0 -219 135 -369q134 -149 340 -149q208 0 342 149q135 150 135 369q0 218 -135 368t-342 150q-205 0 -340 -150t-135 -368z M526 1638q0 91 61.5 148t160.5 57q77 0 172 -59q98 -58 127 -58q56 0 59 54q0 14 -2 16l153 19q11 -42 11 -68q0 -93 -62 -150t-162 -57q-78 0 -174 57q-94 58 -125 58q-25 0 -42 -14.5t-17 -38.5q0 -15 2 -17l-151 -16q-11 42 -11 69z" />
<glyph unicode="&#xd6;" horiz-adv-x="1710" d="M111 717q0 308 213 524q214 217 530 217t530 -217q215 -215 215 -524t-215 -527q-215 -215 -530 -215t-530 215q-213 219 -213 527zM379 717q0 -219 135 -369q134 -149 340 -149q208 0 342 149q135 150 135 369q0 218 -135 368t-342 150q-205 0 -340 -150t-135 -368z M440 1563v237h267v-237h-267zM1001 1563v237h267v-237h-267z" />
<glyph unicode="&#xd7;" d="M125 350l289 289l-287 287l149 149l287 -289l287 289l149 -149l-288 -289l290 -287l-149 -149l-289 288l-289 -288z" />
<glyph unicode="&#xd8;" horiz-adv-x="1710" d="M111 717q0 308 213 524q214 217 530 217q173 0 324 -74l61 93l168 -109l-61 -92q119 -104 186 -250t67 -309q0 -309 -215 -527q-215 -215 -530 -215q-185 0 -334 76l-69 -100l-168 108l69 105q-116 103 -178.5 246t-62.5 307zM379 717q0 -204 117 -342l551 817 q-85 43 -193 43q-205 0 -340 -150t-135 -368zM649 246q96 -47 205 -47q208 0 342 149q135 150 135 369q0 206 -125 352z" />
<glyph unicode="&#xd9;" horiz-adv-x="1472" d="M168 674v760h254v-803q0 -211 81.5 -321.5t231.5 -110.5q151 0 233.5 110.5t82.5 321.5v803h254v-760q0 -350 -140.5 -524.5t-433.5 -174.5q-563 0 -563 699zM391 1767l131 172l348 -290l-112 -142z" />
<glyph unicode="&#xda;" horiz-adv-x="1472" d="M168 674v760h254v-803q0 -211 81.5 -321.5t231.5 -110.5q151 0 233.5 110.5t82.5 321.5v803h254v-760q0 -350 -140.5 -524.5t-433.5 -174.5q-563 0 -563 699zM584 1649l348 290l131 -172l-367 -260z" />
<glyph unicode="&#xdb;" horiz-adv-x="1472" d="M168 674v760h254v-803q0 -211 81.5 -321.5t231.5 -110.5q151 0 233.5 110.5t82.5 321.5v803h254v-760q0 -350 -140.5 -524.5t-433.5 -174.5q-563 0 -563 699zM379 1618l233 283h271l225 -283l-143 -109l-222 236l-219 -236z" />
<glyph unicode="&#xdc;" horiz-adv-x="1472" d="M168 674v760h254v-803q0 -211 81.5 -321.5t231.5 -110.5q151 0 233.5 110.5t82.5 321.5v803h254v-760q0 -350 -140.5 -524.5t-433.5 -174.5q-563 0 -563 699zM324 1563v237h266v-237h-266zM885 1563v237h266v-237h-266z" />
<glyph unicode="&#xdd;" horiz-adv-x="1200" d="M10 1434h314l278 -551h4l289 551h295l-471 -834v-600h-254v610zM446 1649l349 290l131 -172l-367 -260z" />
<glyph unicode="&#xde;" horiz-adv-x="1222" d="M174 -8v1444h254v-271h190q75 0 147 -14.5t141.5 -48t121 -83t83.5 -125t32 -167.5q0 -94 -31.5 -170t-83 -126t-120.5 -83.5t-141.5 -48t-148.5 -14.5h-190v-293h-254zM428 504h141q303 0 303 217q0 104 -71.5 164.5t-190.5 60.5h-182v-442z" />
<glyph unicode="&#xdf;" horiz-adv-x="1298" d="M147 0v1100q0 210 138 336q137 125 342 125q198 0 329 -113q136 -115 136 -303q0 -85 -39.5 -159.5t-106.5 -125.5q128 -43 200.5 -150.5t72.5 -256.5q0 -210 -146 -344t-352 -134q-109 0 -207 48l72 198q67 -33 133 -33q121 0 186.5 72t65.5 193q0 134 -83.5 208 t-221.5 74q-53 0 -99 -4v193h51q91 0 160 57q72 60 72 154t-60.5 153.5t-156.5 59.5q-120 0 -181 -75t-61 -212v-1061h-244z" />
<glyph unicode="&#xe0;" horiz-adv-x="1153" d="M98 305q0 76 27 136t71.5 98.5t106 63.5t125.5 35.5t135 10.5q86 0 199 -22v24q0 230 -225 230q-148 0 -326 -93l-68 187q209 104 439 104q428 0 428 -442v-637h-222l-12 98q-102 -123 -299 -123q-156 0 -268 86q-111 86 -111 244zM266 1516l170 133l264 -365l-145 -110z M342 313q0 -73 49.5 -113t130.5 -40q118 0 240 104v203q-84 20 -162 20q-113 0 -185.5 -43t-72.5 -131z" />
<glyph unicode="&#xe1;" horiz-adv-x="1153" d="M98 305q0 76 27 136t71.5 98.5t106 63.5t125.5 35.5t135 10.5q86 0 199 -22v24q0 230 -225 230q-148 0 -326 -93l-68 187q209 104 439 104q428 0 428 -442v-637h-222l-12 98q-102 -123 -299 -123q-156 0 -268 86q-111 86 -111 244zM342 313q0 -73 49.5 -113t130.5 -40 q118 0 240 104v203q-84 20 -162 20q-113 0 -185.5 -43t-72.5 -131zM455 1284l264 365l170 -133l-289 -342z" />
<glyph unicode="&#xe2;" horiz-adv-x="1153" d="M98 305q0 76 27 136t71.5 98.5t106 63.5t125.5 35.5t135 10.5q86 0 199 -22v24q0 230 -225 230q-148 0 -326 -93l-68 187q209 104 439 104q428 0 428 -442v-637h-222l-12 98q-102 -123 -299 -123q-156 0 -268 86q-111 86 -111 244zM209 1276l223 334h248l217 -334 l-137 -88l-207 268l-203 -268zM342 313q0 -73 49.5 -113t130.5 -40q118 0 240 104v203q-84 20 -162 20q-113 0 -185.5 -43t-72.5 -131z" />
<glyph unicode="&#xe3;" horiz-adv-x="1153" d="M98 305q0 76 27 136t71.5 98.5t106 63.5t125.5 35.5t135 10.5q86 0 199 -22v24q0 230 -225 230q-148 0 -326 -93l-68 187q209 104 439 104q428 0 428 -442v-637h-222l-12 98q-102 -123 -299 -123q-156 0 -268 86q-111 86 -111 244zM195 1286q0 91 61.5 147t161.5 56 q80 0 172 -57q98 -58 127 -58q56 0 59 53q0 15 -2 17l152 16q10 -38 10 -65q0 -91 -61.5 -147t-161.5 -56q-78 0 -174 57q-94 58 -125 58q-57 0 -60 -54q0 -14 2 -16l-151 -16q-10 38 -10 65zM342 313q0 -73 49.5 -113t130.5 -40q118 0 240 104v203q-84 20 -162 20 q-113 0 -185.5 -43t-72.5 -131z" />
<glyph unicode="&#xe4;" horiz-adv-x="1153" d="M98 305q0 76 27 136t71.5 98.5t106 63.5t125.5 35.5t135 10.5q86 0 199 -22v24q0 230 -225 230q-148 0 -326 -93l-68 187q209 104 439 104q428 0 428 -442v-637h-222l-12 98q-102 -123 -299 -123q-156 0 -268 86q-111 86 -111 244zM205 1227v231h250v-231h-250zM342 313 q0 -73 49.5 -113t130.5 -40q118 0 240 104v203q-84 20 -162 20q-113 0 -185.5 -43t-72.5 -131zM668 1227v231h250v-231h-250z" />
<glyph unicode="&#xe5;" horiz-adv-x="1153" d="M98 305q0 76 27 136t71.5 98.5t106 63.5t125.5 35.5t135 10.5q86 0 199 -22v24q0 230 -225 230q-148 0 -326 -93l-68 187q209 104 439 104q428 0 428 -442v-637h-222l-12 98q-102 -123 -299 -123q-156 0 -268 86q-111 86 -111 244zM342 313q0 -73 49.5 -113t130.5 -40 q118 0 240 104v203q-84 20 -162 20q-113 0 -185.5 -43t-72.5 -131zM365 1384q0 92 63 152q63 63 151.5 63t151.5 -63q64 -61 64 -152q0 -89 -64 -153q-63 -61 -151.5 -61t-151.5 61q-63 63 -63 153zM488 1384.5q0 -39.5 26 -65.5t65.5 -26t65.5 26t26 65.5t-26 65.5 t-65.5 26t-65.5 -26t-26 -65.5z" />
<glyph unicode="&#xe6;" horiz-adv-x="1859" d="M98 305q0 76 27 136t71.5 98.5t106 63.5t125.5 35.5t135 10.5q86 0 199 -22v24q0 230 -225 230q-148 0 -326 -93l-68 187q209 104 439 104q244 0 344 -151q145 151 360 151q214 0 356 -139t142 -350q0 -48 -12 -125h-766q12 -126 91.5 -206.5t200.5 -80.5q191 0 293 164 l168 -113q-92 -133 -203 -193.5t-272 -60.5q-251 0 -395 166q-166 -166 -412 -166q-156 0 -268 86q-111 86 -111 244zM342 313q0 -73 49.5 -113t130.5 -40q157 0 273 137q-31 88 -39 172q-92 18 -156 18q-113 0 -185.5 -43t-72.5 -131zM1020 643h510q-4 103 -72 170.5 t-166 67.5q-106 0 -175.5 -63t-96.5 -175z" />
<glyph unicode="&#xe7;" horiz-adv-x="1015" d="M76 528q0 237 155 392q156 159 392 159q196 0 340 -112l-123 -185q-92 80 -209 80q-129 0 -217 -98q-86 -95 -86 -236q0 -147 88 -241t213 -94q122 0 211 77l129 -176q-137 -119 -357 -119q-33 0 -41 2l-41 -104l2 -2q44 33 99 33q75 0 129.5 -58t54.5 -143 q0 -88 -67 -152q-64 -67 -162 -67q-152 0 -226 135l132 62q25 -66 86 -66q34 0 57.5 24.5t23.5 57.5q0 37 -24 62.5t-60 25.5q-54 0 -75 -43l-140 72l80 188q-167 50 -265.5 190.5t-98.5 335.5z" />
<glyph unicode="&#xe8;" horiz-adv-x="1179" d="M76 520q0 238 151 398q151 161 379 161q215 0 357 -139q141 -138 141 -350q0 -53 -10 -125h-768q12 -126 92.5 -206.5t202.5 -80.5q195 0 290 164l168 -113q-92 -133 -203 -193.5t-270 -60.5q-239 0 -385 152q-145 154 -145 393zM289 1516l170 133l264 -365l-145 -110z M340 643h510q-4 103 -72 170.5t-166 67.5q-106 0 -175.5 -63t-96.5 -175z" />
<glyph unicode="&#xe9;" horiz-adv-x="1179" d="M76 520q0 238 151 398q151 161 379 161q215 0 357 -139q141 -138 141 -350q0 -53 -10 -125h-768q12 -126 92.5 -206.5t202.5 -80.5q195 0 290 164l168 -113q-92 -133 -203 -193.5t-270 -60.5q-239 0 -385 152q-145 154 -145 393zM340 643h510q-4 103 -72 170.5t-166 67.5 q-106 0 -175.5 -63t-96.5 -175zM512 1284l264 365l170 -133l-289 -342z" />
<glyph unicode="&#xea;" horiz-adv-x="1179" d="M76 520q0 238 151 398q151 161 379 161q215 0 357 -139q141 -138 141 -350q0 -53 -10 -125h-768q12 -126 92.5 -206.5t202.5 -80.5q195 0 290 164l168 -113q-92 -133 -203 -193.5t-270 -60.5q-239 0 -385 152q-145 154 -145 393zM262 1276l223 334h248l217 -334l-137 -88 l-207 268l-203 -268zM340 643h510q-4 103 -72 170.5t-166 67.5q-106 0 -175.5 -63t-96.5 -175z" />
<glyph unicode="&#xeb;" horiz-adv-x="1179" d="M76 520q0 238 151 398q151 161 379 161q215 0 357 -139q141 -138 141 -350q0 -53 -10 -125h-768q12 -126 92.5 -206.5t202.5 -80.5q195 0 290 164l168 -113q-92 -133 -203 -193.5t-270 -60.5q-239 0 -385 152q-145 154 -145 393zM252 1227v231h250v-231h-250zM340 643 h510q-4 103 -72 170.5t-166 67.5q-106 0 -175.5 -63t-96.5 -175zM715 1227v231h250v-231h-250z" />
<glyph unicode="&#xec;" horiz-adv-x="555" d="M-47 1516l170 133l264 -365l-145 -110zM154 0v1055h247v-1055h-247z" />
<glyph unicode="&#xed;" horiz-adv-x="555" d="M154 0v1055h247v-1055h-247zM168 1284l264 365l170 -133l-289 -342z" />
<glyph unicode="&#xee;" horiz-adv-x="555" d="M-68 1276l224 334h247l218 -334l-138 -88l-207 268l-202 -268zM154 0v1055h247v-1055h-247z" />
<glyph unicode="&#xef;" horiz-adv-x="555" d="M-61 1227v231h249v-231h-249zM154 0v1055h247v-1055h-247zM367 1227v231h251v-231h-251z" />
<glyph unicode="&#xf0;" horiz-adv-x="1218" d="M76 485q0 209 137 346q140 140 344 140q117 0 234 -66q-106 179 -314 309l-104 -188l-162 92l102 182q-60 31 -178 80l88 205q152 -70 195 -92l98 178l164 -88l-96 -176q278 -165 418.5 -384.5t140.5 -512.5q0 -224 -154 -381q-151 -154 -399 -154q-220 0 -369 152 q-145 151 -145 358zM328 487q0 -123 78 -213q77 -86 198 -86q142 0 214.5 90.5t72.5 239.5q0 62 -23 174q-117 66 -245 66t-211.5 -72.5t-83.5 -198.5z" />
<glyph unicode="&#xf1;" horiz-adv-x="1255" d="M154 0v1055h225l12 -156q125 180 336 180q183 0 291 -135q94 -125 94 -395v-549h-248v530q0 181 -41 252q-47 80 -159 80q-73 0 -144.5 -44t-118.5 -118v-700h-247zM305 1286q0 91 61.5 147t161.5 56q80 0 172 -57q98 -58 127 -58q57 0 60 53q0 15 -2 17l151 16 q11 -42 11 -65q0 -91 -62 -147t-162 -56q-78 0 -174 57q-94 58 -125 58q-56 0 -59 -54q0 -14 2 -16l-152 -16q-10 38 -10 65z" />
<glyph unicode="&#xf2;" horiz-adv-x="1245" d="M76 528q0 234 155 392q156 159 392 159q235 0 391 -159q155 -158 155 -392q0 -235 -155 -393q-157 -160 -391 -160q-235 0 -392 160q-155 158 -155 393zM270 1516l170 133l265 -365l-146 -110zM328 528q0 -138 84 -239q84 -96 211 -96t211 96q84 101 84 239 q0 140 -84 236q-82 98 -211 98t-211 -98q-84 -96 -84 -236z" />
<glyph unicode="&#xf3;" horiz-adv-x="1245" d="M76 528q0 234 155 392q156 159 392 159q235 0 391 -159q155 -158 155 -392q0 -235 -155 -393q-157 -160 -391 -160q-235 0 -392 160q-155 158 -155 393zM328 528q0 -138 84 -239q84 -96 211 -96t211 96q84 101 84 239q0 140 -84 236q-82 98 -211 98t-211 -98 q-84 -96 -84 -236zM526 1284l265 365l170 -133l-289 -342z" />
<glyph unicode="&#xf4;" horiz-adv-x="1245" d="M76 528q0 234 155 392q156 159 392 159q235 0 391 -159q155 -158 155 -392q0 -235 -155 -393q-157 -160 -391 -160q-235 0 -392 160q-155 158 -155 393zM276 1276l224 334h248l217 -334l-138 -88l-206 268l-203 -268zM328 528q0 -138 84 -239q84 -96 211 -96t211 96 q84 101 84 239q0 140 -84 236q-82 98 -211 98t-211 -98q-84 -96 -84 -236z" />
<glyph unicode="&#xf5;" horiz-adv-x="1245" d="M76 528q0 234 155 392q156 159 392 159q235 0 391 -159q155 -158 155 -392q0 -235 -155 -393q-157 -160 -391 -160q-235 0 -392 160q-155 158 -155 393zM276 1286q0 91 62 147t162 56q80 0 172 -57q98 -58 127 -58q56 0 59 53q0 15 -2 17l152 16q10 -38 10 -65 q0 -91 -61.5 -147t-161.5 -56q-78 0 -174 57q-94 58 -125 58q-57 0 -60 -54q0 -14 2 -16l-151 -16q-11 42 -11 65zM328 528q0 -138 84 -239q84 -96 211 -96t211 96q84 101 84 239q0 140 -84 236q-82 98 -211 98t-211 -98q-84 -96 -84 -236z" />
<glyph unicode="&#xf6;" horiz-adv-x="1245" d="M76 528q0 234 155 392q156 159 392 159q235 0 391 -159q155 -158 155 -392q0 -235 -155 -393q-157 -160 -391 -160q-235 0 -392 160q-155 158 -155 393zM266 1227v231h250v-231h-250zM328 528q0 -138 84 -239q84 -96 211 -96t211 96q84 101 84 239q0 140 -84 236 q-82 98 -211 98t-211 -98q-84 -96 -84 -236zM729 1227v231h250v-231h-250z" />
<glyph unicode="&#xf7;" d="M49 539v202h1026v-202h-1026zM426 96v279h272v-279h-272zM426 905v279h272v-279h-272z" />
<glyph unicode="&#xf8;" horiz-adv-x="1245" d="M76 528q0 237 155 392q156 159 392 159q130 0 235 -51l49 74l133 -88l-49 -74q178 -156 178 -412q0 -235 -155 -393q-157 -160 -391 -160q-131 0 -246 56l-58 -84l-133 88l60 86q-170 159 -170 407zM328 528q0 -117 57 -200l344 512q-52 22 -106 22q-129 0 -213 -96 q-82 -94 -82 -238zM504 219q51 -26 119 -26q127 0 211 96q84 101 84 239q0 116 -66 207z" />
<glyph unicode="&#xf9;" horiz-adv-x="1255" d="M143 506v549h248v-531q0 -181 41 -252q46 -79 160 -79q73 0 144 43.5t118 117.5v701h248v-1055h-225l-13 156q-126 -181 -336 -181q-181 0 -290 136q-95 127 -95 395zM328 1516l170 133l264 -365l-146 -110z" />
<glyph unicode="&#xfa;" horiz-adv-x="1255" d="M143 506v549h248v-531q0 -181 41 -252q46 -79 160 -79q73 0 144 43.5t118 117.5v701h248v-1055h-225l-13 156q-126 -181 -336 -181q-181 0 -290 136q-95 127 -95 395zM516 1284l264 365l170 -133l-288 -342z" />
<glyph unicode="&#xfb;" horiz-adv-x="1255" d="M143 506v549h248v-531q0 -181 41 -252q46 -79 160 -79q73 0 144 43.5t118 117.5v701h248v-1055h-225l-13 156q-126 -181 -336 -181q-181 0 -290 136q-95 127 -95 395zM287 1276l223 334h248l217 -334l-137 -88l-207 268l-203 -268z" />
<glyph unicode="&#xfc;" horiz-adv-x="1255" d="M143 506v549h248v-531q0 -181 41 -252q46 -79 160 -79q73 0 144 43.5t118 117.5v701h248v-1055h-225l-13 156q-126 -181 -336 -181q-181 0 -290 136q-95 127 -95 395zM266 1227v231h250v-231h-250zM729 1227v231h250v-231h-250z" />
<glyph unicode="&#xfd;" horiz-adv-x="1042" d="M8 1055h273l237 -699h4l242 699h270l-594 -1534l-221 84l168 444zM389 1284l264 365l170 -133l-288 -342z" />
<glyph unicode="&#xfe;" horiz-adv-x="1304" d="M154 -512v2048h247v-602q54 70 141 107.5t181 37.5q218 0 360 -161q146 -161 146 -394q0 -221 -146 -387q-143 -162 -364 -162q-199 0 -318 131v-618h-247zM401 326q106 -133 271 -133q145 0 225 102q80 103 80 235q0 133 -84 234q-82 98 -217 98q-85 0 -159.5 -42.5 t-115.5 -121.5v-372z" />
<glyph unicode="&#xff;" horiz-adv-x="1042" d="M8 1055h273l237 -699h4l242 699h270l-594 -1534l-221 84l168 444zM170 1227v231h250v-231h-250zM633 1227v231h250v-231h-250z" />
<glyph unicode="&#x152;" horiz-adv-x="2168" d="M111 717q0 308 213 524q214 217 530 217q158 0 301 -76v52h895v-217h-641v-369h641v-219h-641v-412h641v-217h-895v51q-140 -76 -301 -76q-315 0 -530 215q-213 219 -213 527zM379 717q0 -219 135 -369q134 -149 340 -149q175 0 301 102v829q-126 105 -301 105 q-205 0 -340 -150t-135 -368z" />
<glyph unicode="&#x153;" horiz-adv-x="2013" d="M76 528q0 237 155 392q156 159 392 159q265 0 415 -202q150 202 402 202q214 0 356 -139q141 -138 141 -348q0 -55 -10 -127h-768q12 -126 92.5 -206.5t202.5 -80.5q196 0 291 164l168 -113q-89 -132 -201 -193t-272 -61q-265 0 -410 195q-151 -195 -407 -195 q-235 0 -392 160q-155 158 -155 393zM328 528q0 -141 82 -239q84 -96 213 -96t211 98q84 101 84 237q0 140 -84 236q-82 98 -211 98t-213 -96q-82 -94 -82 -238zM1174 643h509q-5 103 -72 170.5t-165 67.5q-106 0 -175.5 -63t-96.5 -175z" />
<glyph unicode="&#x178;" horiz-adv-x="1200" d="M10 1434h314l278 -551h4l289 551h295l-471 -834v-600h-254v610zM225 1563v237h262v-237h-262zM739 1563v237h262v-237h-262z" />
<glyph unicode="&#x2c6;" horiz-adv-x="737" d="M20 1276l224 334h248l217 -334l-138 -88l-206 268l-203 -268z" />
<glyph unicode="&#x2dc;" horiz-adv-x="737" d="M-2 1286q0 91 61.5 147t161.5 56q80 0 172 -57q98 -58 127 -58q57 0 60 53q0 15 -2 17l151 16q10 -38 10 -65q0 -91 -61.5 -147t-161.5 -56q-78 0 -174 57q-94 58 -125 58q-56 0 -59 -54q0 -14 2 -16l-152 -16q-10 38 -10 65z" />
<glyph unicode="&#x2000;" horiz-adv-x="969" />
<glyph unicode="&#x2001;" horiz-adv-x="1939" />
<glyph unicode="&#x2002;" horiz-adv-x="969" />
<glyph unicode="&#x2003;" horiz-adv-x="1939" />
<glyph unicode="&#x2004;" horiz-adv-x="646" />
<glyph unicode="&#x2005;" horiz-adv-x="484" />
<glyph unicode="&#x2006;" horiz-adv-x="323" />
<glyph unicode="&#x2007;" horiz-adv-x="323" />
<glyph unicode="&#x2008;" horiz-adv-x="242" />
<glyph unicode="&#x2009;" horiz-adv-x="387" />
<glyph unicode="&#x200a;" horiz-adv-x="107" />
<glyph unicode="&#x2010;" horiz-adv-x="925" d="M182 479v211h561v-211h-561z" />
<glyph unicode="&#x2011;" horiz-adv-x="925" d="M182 479v211h561v-211h-561z" />
<glyph unicode="&#x2012;" horiz-adv-x="925" d="M182 479v211h561v-211h-561z" />
<glyph unicode="&#x2013;" horiz-adv-x="1228" d="M102 537v213h1024v-213h-1024z" />
<glyph unicode="&#x2014;" horiz-adv-x="1843" d="M102 537v213h1639v-213h-1639z" />
<glyph unicode="&#x2018;" horiz-adv-x="600" d="M111 891l141 543h237l-110 -543h-268z" />
<glyph unicode="&#x2019;" horiz-adv-x="600" d="M111 891l110 543h268l-143 -543h-235z" />
<glyph unicode="&#x201a;" horiz-adv-x="600" d="M111 -264l110 543h268l-143 -543h-235z" />
<glyph unicode="&#x201c;" horiz-adv-x="1130" d="M147 891l144 543h235l-112 -543h-267zM604 891l144 543h235l-113 -543h-266z" />
<glyph unicode="&#x201d;" horiz-adv-x="1130" d="M147 891l113 543h266l-143 -543h-236zM604 891l113 543h266l-143 -543h-236z" />
<glyph unicode="&#x201e;" horiz-adv-x="1130" d="M147 -264l113 543h266l-143 -543h-236zM604 -264l113 543h266l-143 -543h-236z" />
<glyph unicode="&#x2022;" horiz-adv-x="696" d="M72 592q0 114 80 194q82 82 196 82q116 0 195 -82q82 -79 82 -194t-82 -197q-80 -80 -195 -80q-113 0 -196 80q-80 83 -80 197z" />
<glyph unicode="&#x2026;" horiz-adv-x="1536" d="M127 0v279h272v-279h-272zM631 0v279h272v-279h-272zM1135 0v279h272v-279h-272z" />
<glyph unicode="&#x202f;" horiz-adv-x="387" />
<glyph unicode="&#x2039;" horiz-adv-x="665" d="M111 424v240l315 327l131 -200l-260 -248l260 -248l-131 -201z" />
<glyph unicode="&#x203a;" horiz-adv-x="665" d="M111 295l258 246l-258 250l129 200l317 -329v-240l-317 -328z" />
<glyph unicode="&#x205f;" horiz-adv-x="484" />
<glyph unicode="&#x20ac;" horiz-adv-x="1331" d="M25 432v174h143q-4 66 -4 74q0 6 4 72h-143v176h180q71 215 254 336q183 122 405 122q214 0 414 -120l-111 -187q-135 97 -295 97q-141 0 -247 -65t-160 -183h512v-176h-563q-4 -66 -4 -72q0 -42 4 -74h563v-174h-518q56 -121 163.5 -183.5t247.5 -62.5q179 0 310 107 l131 -174q-203 -144 -451 -144q-227 0 -407 119q-179 118 -250 338h-178z" />
<glyph unicode="&#x2122;" horiz-adv-x="2011" d="M147 1276v158h586v-158h-201v-698h-186v698h-199zM852 578v856h283l221 -574l229 574h279v-856h-185v628l-256 -628h-135l-252 630v-630h-184z" />
<glyph unicode="&#x25fc;" horiz-adv-x="1054" d="M0 0v1055h1055v-1055h-1055z" />
</font>
</defs>
</svg>
