<svg width="80" height="80" viewBox="0 0 80 80" version="1.1" xmlns="http://www.w3.org/2000/svg" xmlns:xlink="http://www.w3.org/1999/xlink">
<title>blockchain</title>
<desc>Created using Figma</desc>
<g id="Canvas" transform="translate(-5663 -3662)">
<g id="Icons/blockchain">
<g id="genders">
<g id="Shape">
<use xlink:href="#path0_fill" transform="translate(5686.84 3676.55)" fill="#15479D"/>
</g>
</g>
</g>
</g>
<defs>
<path id="path0_fill" fill-rule="evenodd" d="M 18.7256 11.895C 23.4209 11.895 27.2256 15.6899 27.2256 20.3733C 27.2256 23.3306 25.7007 25.9282 23.3989 27.4424C 23.3428 27.2305 23.3989 27.4712 23.3989 27.4712C 23.3989 27.4712 22.792 27.8223 22.0879 28.1562C 20.8862 28.7312 20.2656 28.7429 20.2656 28.7429C 20.2656 28.7429 20.2095 28.5193 20.2095 28.7007C 19.7251 28.7854 19.2339 28.8499 18.7256 28.8499C 14.4141 28.8499 12.0308 25.6704 12.0308 25.6704C 12.0308 25.6704 11.2505 25.8418 10.4702 26.1707C 9.70508 26.4929 8.95215 26.9592 8.91162 26.9863C 9.02344 26.7915 8.896 26.9966 8.896 26.9966L 8.91162 26.9863C 11.0449 30.1418 14.6201 32.2412 18.7256 32.2412C 19.2456 32.2412 19.7573 32.197 20.2622 32.1309L 20.3184 32.0835C 20.3184 32.0835 21.1445 32.0139 21.9912 31.78C 22.8013 31.5571 23.6401 31.2058 23.7798 31.1475L 23.7832 31.146L 23.7915 31.1423L 23.8252 31.1289C 23.8252 31.1289 23.8076 31.1055 23.7949 31.0981C 27.8291 29.1975 30.6255 25.116 30.6255 20.3733C 30.6255 13.8179 25.2959 8.50366 18.7256 8.50366C 16.5122 8.50366 14.4482 9.11743 12.6753 10.1672L 8.34717 5.8501L 11.917 2.28906L 9.6543 0.0339355L 6.08447 3.59302L 2.48193 0L 0 2.47559L 3.60254 6.06885L 0.0322266 9.62793L 2.29492 11.8865L 5.86523 8.32568L 9.94336 12.3901C 8.99805 13.428 8.24512 14.6387 7.71289 15.9578C 7.7998 15.9153 8.29785 15.6831 9.19678 15.4661C 10.3921 15.1794 11.9253 15.2864 11.9253 15.2864C 11.9253 15.2864 13.4419 11.895 18.7256 11.895ZM 23.7949 31.0981C 23.7822 31.0908 23.7739 31.0994 23.7915 31.1423L 23.793 31.1228C 23.7939 31.1152 23.7949 31.1072 23.7949 31.0981ZM 32.3257 39.0271L 32.3257 50.8965L 20.4258 50.8965L 20.4258 47.5054L 26.4419 47.5054L 18.9941 40.0767C 17.019 41.54 14.5776 42.4182 11.9238 42.4182C 5.35156 42.4182 0.0239258 37.1042 0.0239258 30.5488C 0.0239258 25.8059 2.82031 21.7246 6.85303 19.8237C 6.85352 19.8059 6.85645 19.7891 6.85938 19.772C 6.8623 19.7549 6.86523 19.738 6.86621 19.7202L 6.88232 19.7134C 7.02881 19.6506 7.67822 19.3735 8.42041 19.1592C 9.55762 18.8335 11.0669 18.6792 11.9258 18.6792C 15.9731 18.6792 19.5298 20.7073 21.6753 23.7881C 21.6123 23.8477 21.0479 24.3613 20.4697 24.6716C 19.7935 25.0366 19.1221 25.303 18.8516 25.4102C 18.7729 25.4414 18.7285 25.4592 18.7275 25.4619C 18.7275 25.4619 16.9082 22.0706 11.9272 22.0706C 11.1963 22.0706 9.84473 22.2739 8.96924 22.5945C 8.16699 22.8877 7.25244 23.449 7.25244 23.449L 7.25244 23.4778C 4.95068 24.9956 3.42725 27.5933 3.42725 30.5505C 3.42725 35.2339 7.23193 39.0288 11.9272 39.0288C 14.7441 39.0288 17.2109 37.6433 18.7544 35.5356C 18.8975 35.5593 20.0654 35.7358 21.0054 35.5339C 21.9062 35.3398 22.6055 35.1445 22.8247 35.0833L 22.8872 35.0659C 22.5117 35.9663 22.0508 36.8262 21.4795 37.6011L 28.9272 45.0312L 28.9272 39.0288L 32.3257 39.0271ZM 21.7007 23.7646C 21.7007 23.7646 21.7432 23.717 21.6753 23.7881L 21.7007 23.7646ZM 6.82373 19.7373C 6.82373 19.7373 6.90186 19.0742 6.86475 19.7188L 6.82373 19.7373ZM 7.67383 15.9746L 7.70947 15.9578C 7.44092 16.6257 7.67383 15.9746 7.67383 15.9746ZM 18.751 35.5325L 18.7236 35.5273C 18.7236 35.5273 19.0566 35.1169 18.751 35.5325ZM 22.9229 35.0508C 22.9229 35.0508 22.8921 35.0593 22.8872 35.0627C 23.0454 34.676 22.9229 35.0508 22.9229 35.0508Z"/>
</defs>
</svg>
