<svg width="80" height="80" viewBox="0 0 80 80" version="1.1" xmlns="http://www.w3.org/2000/svg" xmlns:xlink="http://www.w3.org/1999/xlink">
<title>Group</title>
<desc>Created using Figma</desc>
<g id="Canvas" transform="translate(-5663 -3082)">
<g id="Group">
<g id="Icons/blockchain">
<g id="icon">
<g id="gift">
<g id="Shape">
<use xlink:href="#path0_fill" transform="translate(5671 3092.01)" fill="#15479D"/>
</g>
</g>
</g>
</g>
</g>
</g>
<defs>
<path id="path0_fill" fill-rule="evenodd" d="M 61.8667 23.5715L 62.9336 23.5715C 63.5732 23.5715 64 24 64 24.6431L 64 35.3572C 64 36.0002 63.5732 36.4287 62.9331 36.4287L 61.8667 36.4287L 61.8667 56.7856C 61.8667 58.5 60.373 60 58.6665 60L 37.333 60L 26.6665 60L 5.33301 60C 3.52002 60 2.1333 58.5 2.1333 56.7856L 2.1333 36.4285L 1.06641 36.4285C 0.426758 36.4285 0 36 0 35.3572L 0 24.6428C 0 24 0.426758 23.5715 1.06641 23.5715L 2.1333 23.5715L 2.1333 3.21436C 2.1333 1.39282 3.62695 0 5.3335 0L 26.6665 0L 26.6982 0.0012207L 26.7202 0.00219727L 26.7422 0.0012207L 26.7734 0L 37.3335 0L 37.4399 0L 58.667 0C 60.48 0 61.8667 1.5 61.8667 3.21436L 61.8667 23.5715ZM 59.7334 23.5715L 59.7334 3.21436C 59.7334 2.57153 59.2002 2.14282 58.667 2.14282L 38.5068 2.14282L 38.5068 21.1794C 40.0649 19.5312 41.9438 18.1072 44.0532 18.1072L 44.1602 18.1072C 46.5068 18.1072 48.4268 19.2859 49.4937 21.2144C 49.7935 21.7307 49.9727 22.6277 50.0801 23.5715L 59.7334 23.5715ZM 46.1714 37.7202L 46.1479 37.7468L 46.1396 37.7566C 46.1201 37.7788 46.1006 37.801 46.0801 37.8215C 46.043 37.8586 46.0044 37.8938 45.9658 37.9282C 45.939 37.9514 45.9116 37.9741 45.8838 37.9961L 45.8638 38.0125C 45.062 38.6355 43.9023 38.6851 42.8296 38.4705C 42.1406 38.3152 41.4468 38.0337 40.8164 37.6709C 39.231 36.6926 37.79 35.0288 37.6597 32.989C 37.8384 32.6497 37.9888 32.293 38.1055 31.9214L 40.96 34.0715C 41.1733 34.1787 41.3862 34.2859 41.5996 34.2859C 41.9199 34.2859 42.2397 34.179 42.4531 33.8574C 42.7729 33.429 42.6665 32.6787 42.2397 32.3574L 39.1108 30.0002L 42.2397 27.6431C 42.6665 27.3215 42.7734 26.5715 42.4531 26.1431C 42.1333 25.7144 41.3867 25.6072 40.96 25.9287L 38.106 28.0789C 37.9092 27.4524 37.6182 26.8674 37.251 26.3389L 37.3081 26.2644L 37.3486 26.2117L 37.3525 26.2068L 37.3828 26.1677L 37.3965 26.1501C 37.4736 26.05 37.5581 25.9409 37.6533 25.8215C 37.8657 25.6082 38.0776 25.2888 38.29 24.9688L 38.293 24.9644L 38.3496 24.8494C 39.3418 23.5144 41.8394 20.4644 44.0532 20.4644C 45.1968 20.4644 46.1206 20.7947 46.7896 21.4512C 47.0107 21.6904 47.2017 21.9683 47.3599 22.2856C 47.6797 22.9285 47.8931 25.8215 47.7866 26.8928L 47.7866 28.3928C 47.7866 30.0071 47.7363 33.0779 47.1909 35.3699C 46.8247 36.6799 46.4624 37.373 46.1714 37.7202ZM 36.5757 43.5056L 36.7847 43.1787L 37.3335 42.2144C 37.5464 41.8928 37.9731 41.6787 38.3999 41.6787L 40.1606 41.9907L 38.7598 38.8953C 38.0474 38.3362 37.3921 37.657 36.8594 36.8782C 36.4609 36.3203 36.1411 35.7231 35.8994 35.0867C 35.2007 35.6292 34.3887 36.03 33.5059 36.2461L 36.4443 43.625C 36.4829 43.5825 36.5269 43.5425 36.5757 43.5056ZM 26.1333 42.2144C 25.9199 41.8931 25.4937 41.6787 25.1733 41.6787L 25.0669 41.6787L 23.2534 42L 24.4268 39.4287L 24.4302 39.4265C 26.2153 38.3708 27.4819 36.7954 28.1304 35.1104C 28.8086 35.6306 29.5923 36.0186 30.4424 36.2341L 27.0234 43.7041L 26.1333 42.2144ZM 16.6738 35.3008C 16.9966 36.7979 17.5044 37.511 17.8135 37.8215C 18.6089 38.6206 19.7749 38.7571 20.9277 38.5405C 21.3281 38.4482 21.7188 38.3103 22.0801 38.1428C 24.1069 37.2856 26.0269 35.3572 26.1333 32.8928C 26.0244 32.6011 25.9292 32.2837 25.8491 31.9551L 23.04 34.0715C 22.8267 34.1787 22.6133 34.2856 22.3999 34.2856C 22.0801 34.2856 21.7598 34.1787 21.5464 33.8572C 21.2266 33.4285 21.3335 32.6787 21.7598 32.3572L 24.8887 30L 21.7598 27.6431C 21.333 27.3215 21.2266 26.5715 21.5464 26.1428C 21.8667 25.7144 22.6133 25.6072 23.04 25.9285L 25.8862 28.0728C 26.0864 27.4177 26.3867 26.8049 26.7734 26.25C 26.7202 26.1965 26.6665 26.1162 26.6133 26.0359C 26.5601 25.9556 26.5068 25.875 26.4531 25.8215C 26.2988 25.6016 26.1221 25.3547 25.9272 25.0913C 25.8833 25.0535 25.8447 25.0115 25.8135 24.9644C 24.9868 23.823 22.46 20.5713 20.1694 20.3674C 20.0952 20.3608 20.021 20.3572 19.9468 20.3572L 19.8901 20.3584L 19.8481 20.3596C 18.2988 20.386 17.1597 21.0269 16.5332 22.2856C 16.4268 22.5 16.2134 23.1428 16.1064 24.6428L 16.103 24.6611C 16.105 24.6907 16.1064 24.7202 16.1064 24.75C 16 25.7144 16 26.5715 16 26.8928L 16 28.3928C 16 30.2144 16.1064 32.8928 16.6401 35.1428C 16.6577 35.1958 16.6675 35.2485 16.6738 35.3008ZM 35.7495 27.9612C 35.7646 27.9885 35.7783 28.0159 35.7915 28.0427L 35.8052 28.0696C 36.0737 28.6169 36.2319 29.2046 36.2617 29.7966C 36.2646 29.864 36.2666 29.9316 36.2666 30C 36.2666 30.0916 36.2632 30.1833 36.2568 30.2747L 36.2559 30.2893C 36.2241 30.7244 36.1182 31.1536 35.9419 31.5583C 35.7197 31.6506 35.5234 31.8142 35.4136 32.0356C 34.667 33.3213 33.2798 34.1785 31.7866 34.1785C 31.1895 34.1785 30.6099 34.0564 30.0811 33.8235C 29.4277 33.4902 28.8696 32.9939 28.4619 32.3875C 28.4473 32.3147 28.4219 32.2397 28.3735 32.1428C 28.0015 31.5828 27.792 30.9412 27.7441 30.2893L 27.7432 30.2747C 27.7368 30.1833 27.7334 30.0916 27.7334 30C 27.7334 29.9321 27.7354 29.8647 27.7383 29.7979C 27.7891 28.7954 28.2207 27.8167 29.1201 27.2141C 29.2427 27.05 29.3179 26.8542 29.3467 26.6514C 30.0762 26.0659 30.999 25.7141 32 25.7141C 33.6133 25.7144 35.0249 26.6257 35.7495 27.9612ZM 35.8398 24.4287L 36.2666 23.8726L 36.2666 2.14282L 27.7334 2.14282L 27.7334 23.8113L 28.1948 24.4106L 28.3735 24.6431L 28.3945 24.6709C 28.5605 24.5688 28.7285 24.4729 28.8979 24.384C 29.6841 23.9431 30.5703 23.6648 31.5122 23.5923L 31.5347 23.5906C 31.5991 23.5859 31.6636 23.5813 31.7285 23.5786C 31.8188 23.5745 31.9097 23.5715 32 23.5715C 32.0903 23.5715 32.1812 23.5742 32.2715 23.5786C 32.3369 23.5813 32.4014 23.5859 32.4663 23.5906L 32.4873 23.5923C 33.6475 23.6812 34.7236 24.0835 35.6313 24.7158C 35.6431 24.6746 35.6772 24.6523 35.7217 24.625L 35.8398 24.4287ZM 4.2666 3.21411C 4.2666 2.67847 4.7998 2.14282 5.33301 2.14282L 25.7065 2.14282L 25.7065 21.3213C 24 19.6072 22.0801 18.2141 19.9468 18.2141C 17.4932 18.3213 15.6802 19.3928 14.6133 21.3213C 14.5068 21.5356 14.2935 21.9644 14.0801 23.5713L 4.2666 23.5713L 4.2666 3.21411ZM 3.19971 25.7144L 2.1333 25.7144L 2.1333 34.2856L 3.19971 34.2856L 14.293 34.2856C 14.0693 32.7871 14.002 31.2358 13.9453 29.9255L 13.9453 29.9207L 13.9453 29.9165L 13.9453 29.9128L 13.9453 29.9084L 13.9453 29.9036C 13.9209 29.3489 13.8984 28.8376 13.8667 28.3928L 13.8667 27.1072L 13.8667 25.7144L 3.19971 25.7144ZM 4.2666 56.7859L 4.2666 36.4287L 14.7559 36.4287C 15.1069 37.6663 15.6079 38.7131 16.3198 39.4287C 17.2798 40.2859 18.5601 40.8215 20.0532 40.8215C 20.501 40.8215 20.9487 40.7729 21.4072 40.6799L 20.3735 42.9644C 20.1602 43.2859 20.2666 43.7144 20.48 44.0359C 20.7998 44.3572 21.1201 44.5715 21.5464 44.4644L 24.6401 43.9285L 25.6001 45.6428L 25.6001 57.8572L 5.3335 57.8572C 4.7998 57.8574 4.2666 57.4287 4.2666 56.7859ZM 28.1597 46.5002C 28.0532 46.7146 27.9463 46.8218 27.8398 46.9287L 27.8398 57.8574L 36.2666 57.8574L 36.2666 47.1431L 36.2197 47.1431L 36.1597 47.1431C 35.7422 47.1431 35.4272 46.835 35.314 46.5203L 35.3066 46.5002L 32 38.0359L 28.1597 46.5002ZM 59.7334 56.7859C 59.7334 57.3215 59.3066 57.8572 58.6665 57.8572L 38.3999 57.8572L 38.3999 44.6431L 38.8267 43.9287L 41.4932 44.3572C 41.5708 44.3572 41.6479 44.3523 41.7241 44.3445L 41.813 44.3572C 42.2397 44.3572 42.6665 44.2502 42.8799 43.9287C 43.0933 43.6072 43.1997 43.1787 42.9863 42.8574L 41.8691 40.5105C 42.5654 40.7163 43.2812 40.8215 43.9463 40.8215C 45.4399 40.8215 46.7197 40.2859 47.8931 39.2144C 48.5635 38.5408 49.0347 37.5728 49.3701 36.4287L 59.7329 36.4287L 59.7334 56.7859ZM 60.7998 34.2859L 61.8667 34.2859L 61.8667 25.7144L 60.7998 25.7144L 50.2227 25.7144C 50.2402 26.2888 50.2402 26.7568 50.2402 27L 50.2402 28.2859C 50.189 30.2805 50.1133 32.3967 49.8281 34.2859L 60.7998 34.2859Z"/>
</defs>
</svg>
