<svg width="80" height="80" viewBox="0 0 80 80" version="1.1" xmlns="http://www.w3.org/2000/svg" xmlns:xlink="http://www.w3.org/1999/xlink">
<title>blockchain</title>
<desc>Created using Figma</desc>
<g id="Canvas" transform="translate(-5663 -3386)">
<g id="Icons/blockchain">
<g id="icon">
<g id="Shape">
<use xlink:href="#path0_fill" transform="translate(5677 3400.01)" fill="#15479D"/>
</g>
<g id="Shape">
<use xlink:href="#path1_fill" transform="translate(5711.72 3434.71)" fill="#15479D"/>
</g>
</g>
</g>
</g>
<defs>
<path id="path0_fill" fill-rule="evenodd" d="M 43.2402 0L 50.3296 0C 51.1743 0 51.8589 0.68457 51.8589 1.5293L 51.8589 8.6189C 51.8589 9.46387 51.1743 10.1484 50.3296 10.1484C 49.4849 10.1484 48.8003 9.46387 48.8003 8.6189L 48.8003 5.22192L 33.0928 20.9292C 34.0762 22.3291 34.6562 24.0322 34.6562 25.8691C 34.6562 30.6189 30.792 34.4829 26.042 34.4829C 24.2007 34.4829 22.4932 33.9001 21.0918 32.9116L 5.22168 48.7815L 8.61914 48.7815C 9.46338 48.7815 10.1484 49.4661 10.1484 50.311C 10.1484 51.1558 9.46338 51.8403 8.61914 51.8403L 1.5293 51.8403C 0.68457 51.8403 0 51.1558 0 50.311L 0 43.2214C 0 42.3765 0.68457 41.6919 1.5293 41.6919C 2.37402 41.6919 3.05859 42.3765 3.05859 43.2214L 3.05859 46.6184L 18.9404 30.7366C 17.9878 29.3508 17.4282 27.6743 17.4282 25.8689C 17.4282 24.0898 17.9707 22.4351 18.8984 21.061L 3.05859 5.22192L 3.05859 8.6189C 3.05859 9.46387 2.37402 10.1484 1.5293 10.1484C 0.68457 10.1484 0 9.46387 0 8.6189L 0 1.5293C 0 0.68457 0.68457 0 1.5293 0L 8.61914 0C 9.46387 0 10.1484 0.68457 10.1484 1.5293C 10.1484 2.37427 9.46387 3.05884 8.61914 3.05884L 5.22168 3.05884L 21.0317 18.8689C 22.4448 17.8542 24.1743 17.2549 26.0425 17.2549C 27.8525 17.2549 29.5332 17.8171 30.9214 18.7749L 46.6377 3.05884L 43.2402 3.05884C 42.3955 3.05884 41.7109 2.37427 41.7109 1.5293C 41.7109 0.68457 42.3955 0 43.2402 0ZM 20.4873 25.8691C 20.4873 28.9321 22.9795 31.4243 26.0425 31.4243C 29.1055 31.4243 31.5977 28.9321 31.5977 25.8691C 31.5977 24.4634 31.0718 23.1787 30.2075 22.199C 30.0972 22.1343 29.9922 22.0564 29.8975 21.9619C 29.8071 21.8713 29.7319 21.7715 29.6685 21.6663C 28.6948 20.8245 27.4277 20.314 26.0425 20.314C 22.9795 20.314 20.4873 22.8062 20.4873 25.8691Z"/>
<path id="path1_fill" d="M 15.6087 6.98982C 14.7641 6.98982 14.0793 7.67438 14.0793 8.51923L 14.0793 11.9162L 2.61076 0.447812C 2.01347 -0.149271 1.04505 -0.149271 0.447965 0.447812C -0.149322 1.0453 -0.149322 2.01352 0.447965 2.61081L 11.9165 14.0792L 8.51918 14.0792C 7.67454 14.0792 6.98977 14.7637 6.98977 15.6086C 6.98977 16.4534 7.67454 17.138 8.51918 17.138L 15.6087 17.138C 16.4534 17.138 17.1381 16.4534 17.1381 15.6086L 17.1381 8.51903C 17.1381 7.67438 16.4534 6.98982 15.6087 6.98982Z"/>
</defs>
</svg>
