<svg width="80" height="80" viewBox="0 0 80 80" version="1.1" xmlns="http://www.w3.org/2000/svg" xmlns:xlink="http://www.w3.org/1999/xlink">
<title>tshirt</title>
<desc>Created using Figma</desc>
<g id="Canvas" transform="translate(-6369 -3082)">
<g id="Icons/tshirt">
<g id="icon">
<g id="Shape">
<use xlink:href="#path0_fill" transform="translate(6377 3092)" fill="#15479D"/>
</g>
</g>
</g>
</g>
<defs>
<path id="path0_fill" fill-rule="evenodd" d="M 59.457 14.9556C 62.4292 18.6975 64 23.2068 64 27.9956C 64 36.6472 58.7363 44.0923 51.2441 47.2969C 53.8926 48.0916 56.0215 48.1033 56.0483 48.1033C 56.4697 48.1033 56.8394 48.3845 56.9517 48.7908C 57.0645 49.1968 56.8921 49.6282 56.5308 49.845C 49.5801 54.0159 41.6704 53.5032 37.5742 52.8264C 36.9141 52.7173 36.2446 52.9019 35.7368 53.3325C 35.2314 53.7612 34.9419 54.3887 34.9419 55.054L 34.9419 59.0625C 34.9419 59.5801 34.522 60 34.0044 60C 33.4863 60 33.0669 59.5801 33.0669 59.0625L 33.0669 52.7864C 33.0669 50.3125 34.8896 48.2085 37.3066 47.8923C 41.333 47.3655 44.7148 45.9487 47.3574 43.6809C 49.4702 41.8684 51.1299 39.5024 52.2905 36.6489C 53.4424 33.8179 53.8716 31.0698 54.0278 29.2417C 52.0894 30.8691 49.0996 32.5466 42.2041 33.9258C 38.3613 34.6946 35.6367 36.7915 34.106 40.1589C 32.9507 42.7004 32.9375 45.0093 32.9375 45.0322C 32.9375 45.55 32.5181 45.9697 32 45.9697C 31.4824 45.9697 31.0625 45.55 31.0625 45.0322C 31.0625 45.0105 31.0396 42.6426 29.8662 40.0977C 28.3301 36.7661 25.6147 34.6897 21.7959 33.9258C 14.9062 32.5476 11.916 30.8716 9.97705 29.2456C 10.2275 32.1162 11.1484 37.2485 14.4526 41.4033C 14.7749 41.8086 14.7075 42.3984 14.3022 42.7207C 13.8975 43.0432 13.3076 42.9758 12.9849 42.5706C 7.69385 35.917 8.00146 27.3159 8.01709 26.9531C 8.0332 26.5815 8.26709 26.2546 8.61377 26.1199C 8.96045 25.9849 9.35352 26.0676 9.6167 26.3306L 9.70215 26.416C 10.4917 27.2063 11.2925 28.0076 12.5293 28.7942C 11.5391 26.3225 11.0225 23.666 11.0225 20.9807C 11.0225 17.0437 12.1128 13.3569 14.0068 10.2056C 10.8979 11.4297 8.12061 13.4707 6.02148 16.1094C 3.30859 19.5186 1.875 23.6287 1.875 27.9956C 1.875 37.4526 8.78125 45.3254 17.814 46.8374C 17.1626 46.4402 16.5386 46.0083 15.9463 45.5378C 15.541 45.2153 15.4736 44.6257 15.7959 44.2202C 16.1182 43.8149 16.708 43.7476 17.1133 44.0698C 19.6797 46.1104 22.9028 47.3962 26.6934 47.8923C 29.1104 48.2085 30.9336 50.3123 30.9336 52.7861L 30.9336 59.0623C 30.9336 59.5801 30.5137 59.9998 29.9961 59.9998C 29.478 59.9998 29.0586 59.5801 29.0586 59.0623L 29.0586 55.0537C 29.0586 54.3887 28.7686 53.7612 28.2632 53.3323C 27.7559 52.9019 27.0859 52.7173 26.4258 52.8264C 22.3296 53.5029 14.4199 54.0156 7.46924 49.8447C 7.10791 49.6279 6.93555 49.1968 7.04834 48.7905C 7.16064 48.3843 7.53027 48.1033 7.95166 48.1033C 7.97803 48.1033 10.1138 48.0864 12.7544 47.2961C 5.2627 44.0911 0 36.6467 0 27.9956C 0 23.2002 1.57471 18.6863 4.5542 14.9417C 7.4043 11.3589 11.3945 8.77881 15.8052 7.65894C 19.6558 2.98511 25.4858 0 32 0C 35.9561 0 39.8096 1.10718 43.144 3.20215C 45.0703 4.41235 46.7764 5.92212 48.207 7.66235C 52.6187 8.78491 56.6089 11.3696 59.457 14.9556ZM 22.5269 48.9194C 22.0137 48.957 21.4927 48.9763 20.9775 48.9763C 19.1035 48.9763 17.2861 48.7278 15.5562 48.2644C 13.9805 48.9553 12.4502 49.3682 11.1807 49.6143C 16.8735 51.9597 22.8154 51.5222 26.1201 50.9761C 27.0234 50.8269 27.9375 50.9797 28.7295 51.3975C 28.292 50.5229 27.4556 49.8833 26.4502 49.7517C 25.0742 49.5718 23.7661 49.2922 22.5269 48.9194ZM 52.8193 49.6143C 47.1265 51.9597 41.1841 51.5222 37.8794 50.9761C 36.9761 50.8271 36.0625 50.9797 35.2705 51.3972C 35.708 50.5229 36.5444 49.8833 37.5498 49.7517C 38.9673 49.5664 40.2734 49.2827 41.478 48.9192C 41.9897 48.9565 42.5083 48.9763 43.0225 48.9763C 44.8965 48.9763 46.7139 48.7278 48.4438 48.2644C 50.0195 48.9553 51.5498 49.3682 52.8193 49.6143ZM 54.0269 37.3557C 52.7251 40.5557 50.3789 44.269 46.1689 46.8403C 55.21 45.3352 62.125 37.4585 62.1245 27.9958C 62.1245 23.6348 60.6943 19.5288 57.9883 16.1221C 55.8906 13.481 53.1138 11.4368 50.0044 10.2102C 50.2632 10.6421 50.5083 11.0835 50.7358 11.5349C 50.9692 11.9971 50.7842 12.561 50.3218 12.7944C 49.8599 13.0278 49.2959 12.8425 49.0625 12.3801C 47.4922 9.271 45.1011 6.64648 42.1465 4.79028C 39.1113 2.88354 35.6025 1.87549 31.9995 1.87549C 21.4663 1.87549 12.897 10.446 12.897 20.981C 12.897 24.1943 13.7095 27.3613 15.2446 30.1597C 16.9185 30.8313 19.127 31.4797 22.1636 32.0872C 27.7285 33.2004 30.3672 36.6692 31.6006 39.3831C 31.7495 39.7109 31.8823 40.0352 31.9995 40.353C 32.1172 40.0352 32.2495 39.7109 32.3989 39.3831C 33.6323 36.6689 36.2705 33.2004 41.8359 32.0872C 44.8726 31.4797 47.0811 30.8313 48.7549 30.1597C 50.29 27.3616 51.1025 24.1943 51.1025 20.9807C 51.1025 19.3618 50.8999 17.7544 50.5005 16.2026C 50.3716 15.7012 50.6733 15.1899 51.1748 15.0608C 51.6763 14.9312 52.187 15.2336 52.3164 15.7351C 52.7554 17.4395 52.9775 19.2043 52.9775 20.9807C 52.9775 23.666 52.4609 26.3228 51.4707 28.7942C 52.7075 28.0076 53.5083 27.2065 54.2979 26.416L 54.3833 26.3306C 54.646 26.0676 55.0391 25.9849 55.3862 26.1199C 55.7324 26.2546 55.9668 26.5815 55.9829 26.9531C 55.9917 27.1597 56.1768 32.0715 54.0269 37.3557Z"/>
</defs>
</svg>
