<svg width="80" height="80" viewBox="0 0 80 80" version="1.1" xmlns="http://www.w3.org/2000/svg" xmlns:xlink="http://www.w3.org/1999/xlink">
<title>blockchain</title>
<desc>Created using Figma</desc>
<g id="Canvas" transform="translate(-6015 -3662)">
<g id="Icons/blockchain">
<g id="paper-plane (1)">
<g id="Shape">
<use xlink:href="#path0_fill" transform="translate(6023 3679.11)" fill="#15479D"/>
</g>
</g>
</g>
</g>
<defs>
<path id="path0_fill" fill-rule="evenodd" d="M 1.94388 26.5415C 0.837433 26.2107 0.0732725 25.2412 0.0049131 24.0894C -0.0634463 22.9375 0.586456 21.8882 1.64749 21.4092L 53.9976 0.104008C 54.4766 -0.0898401 55.0127 -0.0100061 55.4117 0.320804C 55.7998 0.64014 55.9937 1.1648 55.8907 1.66651L 47.3711 45.0864C 47.0972 46.364 45.9795 47.2764 44.6909 47.2764C 44.1319 47.2764 43.5962 47.1052 43.1397 46.7859L 32.875 39.6804L 25.6328 47.6982C 25.3589 48.0064 24.9825 48.166 24.5835 48.166C 24.4351 48.166 24.2754 48.1431 24.127 48.0862C 23.5913 47.9036 23.2149 47.4131 23.1807 46.8543L 22.4278 32.7346L 1.94388 26.5415ZM 25.3135 34.4453L 25.7813 43.3528L 30.5601 38.0723L 25.3135 34.4453ZM 44.6451 44.4363L 25.9634 31.5027L 52.1612 6.16016L 44.6451 44.4363ZM 23.3858 30.0999L 49.2871 5.04248L 2.92483 23.9182L 23.3858 30.0999Z"/>
</defs>
</svg>
