<svg width="80" height="80" viewBox="0 0 80 80" version="1.1" xmlns="http://www.w3.org/2000/svg" xmlns:xlink="http://www.w3.org/1999/xlink">
<title>tshirt</title>
<desc>Created using Figma</desc>
<g id="Canvas" transform="translate(-6369 -3386)">
<g id="Icons/tshirt">
<g id="Icons/tshirt">
<g id="hourglass">
<g id="hourglass (1)">
<g id="Shape">
<use xlink:href="#path0_fill" transform="translate(6389.09 3402)" fill="#15479D"/>
</g>
<g id="Shape">
<use xlink:href="#path1_fill" transform="translate(6399.04 3402)" fill="#15479D"/>
</g>
<g id="Shape">
<use xlink:href="#path2_fill" transform="translate(6402.5 3412.02)" fill="#15479D"/>
</g>
<g id="Shape">
<use xlink:href="#path3_fill" transform="translate(6399.04 3446)" fill="#15479D"/>
</g>
<g id="Shape">
<use xlink:href="#path4_fill" transform="translate(6402.5 3435.98)" fill="#15479D"/>
</g>
</g>
</g>
</g>
</g>
</g>
<defs>
<path id="path0_fill" d="M 23.2871 24C 28.4054 20.7184 39.7297 12.3037 39.7297 1.99837C 39.7297 0.891429 38.8218 6.96042e-16 37.6943 6.96042e-16C 36.5669 6.96042e-16 35.659 0.891429 35.659 1.99837C 35.659 11.138 23.4667 19.2 19.8748 21.3845C 16.263 19.2098 4.08073 11.1576 4.08073 1.99837C 4.08073 0.891429 3.17279 0 2.04535 0C 0.917914 0 0.00997732 0.891429 0.00997732 1.99837C 0.00997732 12.2939 11.3342 20.7184 16.4526 24C 11.3342 27.2816 0 35.6963 0 46.0016C 0 47.1086 0.907937 48 2.03537 48C 3.16281 48 4.07075 47.1086 4.07075 46.0016C 4.07075 36.862 16.263 28.8 19.8549 26.6155C 23.4567 28.7902 35.639 36.8424 35.639 46.0016C 35.639 47.1086 36.5469 48 37.6744 48C 38.8018 48 39.7098 47.1086 39.7098 46.0016C 39.7297 35.6963 28.3955 27.2816 23.2871 24Z"/>
<path id="path1_fill" d="M 2.03537 3.99673L 17.7995 3.99673C 18.927 3.99673 19.8349 3.10531 19.8349 1.99837C 19.8349 0.891429 18.927 0 17.7995 0L 2.03537 0C 0.907937 0 0 0.891429 0 1.99837C 0 3.10531 0.907937 3.99673 2.03537 3.99673Z"/>
<path id="path2_fill" d="M 2.03537 1.39208e-15C 0.907937 1.39208e-15 0 0.891429 0 1.99837C 0 3.10531 0.907937 3.99673 2.03537 3.99673L 10.8753 3.99673C 12.0027 3.99673 12.9107 3.10531 12.9107 1.99837C 12.9107 0.891429 12.0027 0 10.8753 0L 2.03537 0L 2.03537 1.39208e-15Z"/>
<path id="path3_fill" d="M 17.7995 0L 2.03537 0C 0.907937 0 0 0.891429 0 1.99837C 0 3.10531 0.907937 3.99673 2.03537 3.99673L 17.7995 3.99673C 18.927 3.99673 19.8349 3.10531 19.8349 1.99837C 19.8349 0.891429 18.927 0 17.7995 0Z"/>
<path id="path4_fill" d="M 10.8753 3.99673C 12.0027 3.99673 12.9107 3.10531 12.9107 1.99837C 12.9107 0.891429 12.0027 0 10.8753 0L 2.03537 0C 0.907937 0 0 0.891429 0 1.99837C 0 3.10531 0.907937 3.99673 2.03537 3.99673L 10.8753 3.99673Z"/>
</defs>
</svg>
