<svg width="80" height="80" viewBox="0 0 80 80" version="1.1" xmlns="http://www.w3.org/2000/svg" xmlns:xlink="http://www.w3.org/1999/xlink">
<title>blockchain</title>
<desc>Created using Figma</desc>
<g id="Canvas" transform="translate(-6015 -3082)">
<g id="Icons/blockchain">
<g id="icon">
<g id="Shape">
<use xlink:href="#path0_fill" transform="translate(6023 3097.01)" fill="#15479D"/>
</g>
<g id="Shape">
<use xlink:href="#path1_fill" transform="translate(6023 3111)" fill="#15479D"/>
</g>
<g id="Shape">
<use xlink:href="#path2_fill" transform="translate(6081.16 3111)" fill="#15479D"/>
</g>
<g id="Shape">
<use xlink:href="#path3_fill" transform="translate(6033.03 3097.02)" fill="#15479D"/>
</g>
<g id="Shape">
<use xlink:href="#path4_fill" transform="translate(6054.09 3120)" fill="#15479D"/>
</g>
<g id="Shape">
<use xlink:href="#path5_fill" transform="translate(6073.52 3097.02)" fill="#15479D"/>
</g>
<g id="Shape">
<use xlink:href="#path6_fill" transform="translate(6039.05 3097.02)" fill="#15479D"/>
</g>
<g id="Shape">
<use xlink:href="#path7_fill" transform="translate(6054.09 3097.02)" fill="#15479D"/>
</g>
<g id="Shape">
<use xlink:href="#path8_fill" transform="translate(6065.12 3105.01)" fill="#15479D"/>
</g>
</g>
</g>
</g>
<defs>
<path id="path0_fill" fill-rule="evenodd" d="M 32.8638 53.6001L 63.9395 15.6213L 63.9668 14.397L 53.9551 0.422607C 53.7608 0.149902 53.4536 0.00634766 53.1402 0.00415039L 53.1402 0L 11.0269 0C 10.6616 0 10.3443 0.195801 10.1665 0.485107L 0.184108 14.4158C -0.0815173 14.7883 -0.0522205 15.282 0.223658 15.6213L 31.3057 53.6064C 31.6524 54.0332 32.2832 54.0977 32.7115 53.7522C 32.77 53.7065 32.8199 53.6565 32.8638 53.6001ZM 61.9068 14.9529L 32.0825 51.4033L 2.25588 14.9529L 11.5386 2.00098L 52.626 2.00098L 61.9068 14.9529Z"/>
<path id="path1_fill" d="M 39.1032 0C 39.6567 0 40.1057 0.447741 40.1057 0.999521C 40.1057 1.5513 39.6567 1.99904 39.1032 1.99904L 1.00267 1.99904C 0.44915 1.99904 0 1.55141 0 0.999521C 0 0.447741 0.449046 0 1.00267 0L 39.1032 0Z"/>
<path id="path2_fill" d="M 4.84193 0C 5.39545 0 5.8446 0.447741 5.8446 0.999521C 5.8446 1.5513 5.39545 1.99904 4.84193 1.99904L 1.00267 1.99904C 0.44915 1.99904 0 1.55141 0 0.999521C 0 0.447741 0.44915 0 1.00267 0L 4.84193 0Z"/>
<path id="path3_fill" d="M 0.0714274 1.3664C -0.133331 0.856212 0.117336 0.275243 0.629127 0.071231C 1.14092 -0.132885 1.72371 0.116996 1.92837 0.625096L 22.9838 52.6031C 23.1886 53.1134 22.9379 53.6943 22.4282 53.8983C 21.9164 54.1024 21.3337 53.8546 21.1269 53.3445L 0.0714274 1.3664Z"/>
<path id="path4_fill" d="M 11.8149 0.627153C 12.0196 0.116968 12.6044 -0.132912 13.1141 0.0712033C 13.6259 0.275319 13.8766 0.858269 13.6697 1.36845L 1.92837 30.3581C 1.72371 30.8684 1.13883 31.1182 0.629127 30.912C 0.117336 30.7079 -0.133331 30.1248 0.0714274 29.6167L 11.8149 0.627153Z"/>
<path id="path5_fill" d="M 1.68938 0.625364C 1.89414 0.115179 2.47903 -0.132616 2.99061 0.0714996C 3.5024 0.275615 3.75307 0.85867 3.54622 1.36875L 1.9274 5.36673C 1.72274 5.87692 1.13785 6.1268 0.628153 5.9206C 0.116362 5.71658 -0.134304 5.13353 0.07265 4.62543L 1.68938 0.625364Z"/>
<path id="path6_fill" d="M 1.68165 15.7175C 1.27642 16.0923 0.64353 16.0694 0.267478 15.6676C -0.10847 15.2657 -0.0854637 14.6327 0.319765 14.2599L 15.3615 0.266953C 15.7647 -0.10792 16.3997 -0.0849853 16.7735 0.316887C 17.1496 0.71876 17.1266 1.35175 16.7234 1.72443L 1.68165 15.7175Z"/>
<path id="path7_fill" d="M 11.7021 9.59144C 12.1052 9.96621 12.1282 10.5972 11.7522 10.9991C 11.3761 11.401 10.7433 11.4239 10.3402 11.049L 0.317884 1.72454C -0.0852528 1.34977 -0.108259 0.718864 0.267793 0.316887C 0.643741 -0.0849853 1.27663 -0.10792 1.67987 0.266953L 11.7021 9.59144Z"/>
<path id="path8_fill" fill-rule="evenodd" d="M 9.77336 4.24142L 7.90618 0.547328C 7.81194 0.362025 7.66155 0.203822 7.4633 0.105922C 6.97014 -0.139684 6.36858 0.0558727 6.12004 0.547328L 4.25481 4.24142L 0.548753 6.10275C 0.365648 6.1965 0.206468 6.3464 0.10637 6.54415C -0.140212 7.03561 0.0560774 7.63546 0.548753 7.88327L 4.25481 9.74484L 6.12004 13.4387C 6.21428 13.622 6.36467 13.7802 6.56291 13.8801C 7.05608 14.1279 7.65959 13.9301 7.90618 13.4387L 9.77336 9.74484L 13.4789 7.88327C 13.6625 7.78952 13.8217 7.63961 13.9218 7.44162C 14.1684 6.95016 13.9721 6.3486 13.4789 6.10275L 9.77336 4.24142ZM 7.01409 3.21261L 8.13567 5.43234C 8.23625 5.63009 8.39494 5.77999 8.57854 5.87374L 10.8071 6.99191L 8.57854 8.11227C 8.3803 8.21212 8.22991 8.37033 8.13567 8.55368L 7.01409 10.7756L 5.89201 8.55368C 5.79192 8.35592 5.63323 8.20602 5.44914 8.11227L 3.22063 6.99191L 5.44914 5.87374C 5.64787 5.77389 5.79826 5.61569 5.89201 5.43234L 7.01409 3.21261Z"/>
</defs>
</svg>
