<svg width="80" height="80" viewBox="0 0 80 80" version="1.1" xmlns="http://www.w3.org/2000/svg" xmlns:xlink="http://www.w3.org/1999/xlink">
<title>blockchain</title>
<desc>Created using Figma</desc>
<g id="Canvas" transform="translate(-6015 -3386)">
<g id="Icons/blockchain">
<g id="Icons/blockchain">
<g id="icon">
<g id="Shape">
<use xlink:href="#path0_fill" transform="translate(6028 3399)" fill="#15479D"/>
</g>
</g>
</g>
</g>
</g>
<defs>
<path id="path0_fill" fill-rule="evenodd" d="M 31.8638 6.04413L 31.8638 10.2421C 41.228 8.90594 53.9233 10.778 53.9233 15.8657L 53.9233 37.9638C 53.9233 41.7851 46.7144 43.8754 39.2173 44.0817L 39.2173 47.7851C 39.2173 51.8144 31.2021 53.9233 23.2852 53.9233C 15.3682 53.9233 7.35303 51.8146 7.35303 47.7851L 7.35303 40.4189C 7.35303 38.7433 8.74316 37.4213 10.9253 36.4428C 4.95898 35.7407 0 33.7658 0 30.5976L 0 6.04413C 0 -2.01471 31.8638 -2.01471 31.8638 6.04413ZM 29.4126 6.12762C 29.4126 4.87933 24.6543 2.45111 15.9321 2.45111C 7.20947 2.45111 2.45117 4.87958 2.45117 6.12762C 2.45117 7.37592 7.20996 9.80438 15.9321 9.80438C 24.6543 9.80438 29.4126 7.37592 29.4126 6.12762ZM 2.45117 9.53802C 5.4248 11.3278 10.6924 12.2553 15.9321 12.2553C 21.1714 12.2553 26.439 11.3278 29.4131 9.53802L 29.4131 10.7558C 25.1538 11.7004 22.0596 13.4252 22.0596 15.9321L 22.0596 16.6572C 20.1392 16.9653 18.0659 17.1574 15.9321 17.1574C 7.20996 17.1574 2.45117 14.7292 2.45117 13.4809L 2.45117 9.53802ZM 25.2471 34.4548C 24.9868 34.3251 24.7441 34.1889 24.5107 34.0485L 24.5107 34.4282C 24.7568 34.4345 25.002 34.4445 25.2471 34.4548ZM 2.45117 16.8911C 5.4248 18.6808 10.6924 19.6083 15.9321 19.6083C 18.0532 19.6083 20.1152 19.4179 22.0596 19.1274L 22.0596 25.2358C 20.1392 25.5439 18.0654 25.736 15.9321 25.736C 7.20947 25.736 2.45117 23.3078 2.45117 22.0595L 2.45117 16.8911ZM 2.45117 25.4699L 2.45117 30.6384C 2.45117 31.8864 7.20996 34.3149 15.9321 34.3149C 18.0654 34.3149 20.1392 34.1227 22.0596 33.8146L 22.0596 27.7062C 20.1152 27.9968 18.0532 28.1872 15.9321 28.1872C 10.6924 28.1872 5.4248 27.2597 2.45117 25.4699ZM 36.7661 47.7956C 36.7661 49.0439 32.0073 51.4724 23.2852 51.4724C 14.563 51.4724 9.8042 49.0439 9.8042 47.7956L 9.8042 43.8527C 12.7778 45.6425 18.0454 46.57 23.2852 46.57C 28.3003 46.57 33.3481 45.7224 36.3794 44.0805C 36.4512 44.0832 36.5239 44.0847 36.5962 44.0859L 36.7656 44.0898L 36.7661 47.7956ZM 9.8042 40.4423C 9.8042 41.6906 14.5625 44.1191 23.2852 44.1191C 32.0073 44.1191 36.7656 41.6906 36.7656 40.4423C 36.7656 39.194 32.0073 36.7658 23.2852 36.7658C 14.563 36.7658 9.8042 39.194 9.8042 40.4423ZM 51.4722 37.9914C 51.4722 39.1777 47.1294 41.4047 39.2168 41.6254L 39.2168 40.4426C 39.2168 38.9113 38.0581 37.6738 36.189 36.7253C 36.7881 36.7495 37.3892 36.7658 37.9912 36.7658C 43.2305 36.7658 48.4985 35.8383 51.4722 34.0485L 51.4722 37.9914ZM 37.9917 34.3151C 46.7139 34.3151 51.4722 31.8867 51.4722 30.6384L 51.4722 26.6955C 48.4985 28.4853 43.231 29.4128 37.9917 29.4128C 32.752 29.4128 27.4844 28.4853 24.5107 26.6955L 24.5107 30.6384C 24.5107 31.8867 29.2695 34.3151 37.9917 34.3151ZM 51.4722 23.2851C 51.4722 24.5334 46.7139 26.9619 37.9917 26.9619C 29.2695 26.9619 24.5107 24.5334 24.5107 23.2851L 24.5107 19.3422C 27.4844 21.132 32.752 22.0595 37.9917 22.0595C 43.231 22.0595 48.4985 21.132 51.4722 19.3422L 51.4722 23.2851ZM 24.5107 15.9318C 24.5107 17.1801 29.269 19.6086 37.9917 19.6086C 46.7139 19.6086 51.4722 17.1801 51.4722 15.9318C 51.4722 14.6835 46.7139 12.2553 37.9917 12.2553C 29.2695 12.2553 24.5107 14.6835 24.5107 15.9318Z"/>
</defs>
</svg>
